<!-- Generated by IcoMoon.io -->
<svg version="1.1" xmlns="http://www.w3.org/2000/svg" width="32" height="32" viewBox="0 0 32 32">
<title>AfterEffects</title>
<path fill="#00005b" d="M7.5 0h17c4.142 0 7.5 3.358 7.5 7.5v17c0 4.142-3.358 7.5-7.5 7.5h-17c-4.142 0-7.5-3.358-7.5-7.5v-17c0-4.142 3.358-7.5 7.5-7.5z"></path>
<path fill="#99f" d="M13.145 19.515h-4.96l-1.013 3.147c-0.027 0.12-0.133 0.2-0.253 0.187h-2.507c-0.147 0-0.187-0.080-0.147-0.24l4.293-12.307c0.040-0.133 0.080-0.253 0.133-0.413 0.053-0.28 0.080-0.573 0.080-0.867-0.013-0.067 0.040-0.133 0.107-0.147h3.453c0.093 0 0.16 0.040 0.173 0.107l4.867 13.6c0.040 0.147 0 0.213-0.133 0.213h-2.787c-0.093 0.013-0.187-0.053-0.213-0.147l-1.093-3.2v0.067zM8.958 16.862h3.387c-0.080-0.28-0.187-0.613-0.307-0.96-0.12-0.36-0.24-0.747-0.36-1.147-0.133-0.413-0.253-0.813-0.387-1.227s-0.253-0.8-0.36-1.187c-0.107-0.373-0.2-0.72-0.293-1.040h-0.027c-0.12 0.573-0.267 1.147-0.453 1.72-0.2 0.64-0.4 1.307-0.613 1.973-0.173 0.68-0.387 1.307-0.587 1.867v0z"></path>
<path fill="#99f" d="M25.225 18.315h-4.227c0.053 0.413 0.187 0.827 0.413 1.187 0.24 0.36 0.573 0.64 0.973 0.8 0.533 0.227 1.12 0.347 1.707 0.333 0.467-0.013 0.933-0.053 1.387-0.147 0.413-0.053 0.813-0.16 1.187-0.307 0.067-0.053 0.107-0.027 0.107 0.107v2.040c0 0.053-0.013 0.107-0.027 0.16-0.027 0.040-0.053 0.067-0.093 0.093-0.427 0.187-0.867 0.32-1.333 0.4-0.627 0.12-1.253 0.173-1.893 0.16-1.013 0-1.867-0.16-2.56-0.467-0.653-0.28-1.227-0.72-1.68-1.267-0.427-0.52-0.733-1.107-0.92-1.747-0.187-0.627-0.28-1.28-0.28-1.947 0-0.72 0.107-1.427 0.333-2.12 0.213-0.667 0.547-1.28 1-1.827 0.44-0.533 0.987-0.96 1.613-1.267s1.373-0.413 2.227-0.413c0.707-0.013 1.413 0.12 2.067 0.413 0.547 0.24 1.027 0.6 1.4 1.067 0.347 0.453 0.627 0.96 0.8 1.52 0.173 0.533 0.253 1.080 0.253 1.627 0 0.32-0.013 0.6-0.027 0.853-0.027 0.253-0.040 0.44-0.053 0.56-0.013 0.093-0.093 0.173-0.187 0.173-0.080 0-0.227 0.013-0.44 0.027-0.213 0.027-0.467 0.040-0.773 0.040s-0.627-0.053-0.973-0.053v0zM20.998 16.368h2.813c0.347 0 0.6 0 0.76-0.013 0.107-0.013 0.213-0.040 0.307-0.107v-0.133c0-0.173-0.027-0.333-0.080-0.493-0.24-0.747-0.947-1.253-1.733-1.227-0.733-0.040-1.427 0.347-1.773 1.013-0.16 0.307-0.253 0.627-0.293 0.96z"></path>
</svg>
