<!-- Generated by IcoMoon.io -->
<svg version="1.1" xmlns="http://www.w3.org/2000/svg" width="32" height="32" viewBox="0 0 32 32">
<title>Astro</title>
<path fill="#000" d="M7.5 0h17c4.142 0 7.5 3.358 7.5 7.5v17c0 4.142-3.358 7.5-7.5 7.5h-17c-4.142 0-7.5-3.358-7.5-7.5v-17c0-4.142 3.358-7.5 7.5-7.5z"></path>
<path fill="#31274a" d="M19.715 4.126c0.204 0.253 0.308 0.596 0.517 1.28l4.55 14.945c-1.709-0.887-3.543-1.508-5.439-1.841l-2.962-10.010c-0.024-0.080-0.073-0.15-0.139-0.2s-0.148-0.077-0.231-0.077c-0.083 0-0.164 0.027-0.231 0.077s-0.115 0.12-0.139 0.2l-2.926 10.004c-1.905 0.332-3.747 0.954-5.463 1.844l4.572-14.946c0.209-0.683 0.313-1.024 0.518-1.277 0.18-0.223 0.415-0.397 0.681-0.504 0.302-0.121 0.659-0.121 1.373-0.121h3.265c0.715 0 1.073 0 1.375 0.122 0.267 0.107 0.501 0.281 0.681 0.505z"></path>
<path fill="#ff5d01" d="M20.259 21.062c-0.75 0.641-2.247 1.079-3.971 1.079-2.116 0-3.89-0.659-4.361-1.545-0.168 0.508-0.206 1.089-0.206 1.46 0 0-0.111 1.823 1.157 3.091 0-0.659 0.534-1.192 1.192-1.192 1.129 0 1.127 0.985 1.126 1.784v0.071c0 1.212 0.741 2.252 1.795 2.69-0.162-0.334-0.246-0.7-0.246-1.072 0-1.156 0.679-1.587 1.468-2.087 0.628-0.398 1.325-0.84 1.806-1.728 0.259-0.478 0.394-1.013 0.393-1.557 0-0.347-0.054-0.681-0.154-0.994z"></path>
<path fill="#000" d="M20.259 21.062c-0.75 0.641-2.247 1.079-3.971 1.079-2.116 0-3.89-0.659-4.361-1.545-0.168 0.508-0.206 1.089-0.206 1.46 0 0-0.111 1.823 1.157 3.091 0-0.659 0.534-1.192 1.192-1.192 1.129 0 1.127 0.985 1.126 1.784v0.071c0 1.212 0.741 2.252 1.795 2.69-0.162-0.334-0.246-0.7-0.246-1.072 0-1.156 0.679-1.587 1.468-2.087 0.628-0.398 1.325-0.84 1.806-1.728 0.259-0.478 0.394-1.013 0.393-1.557 0-0.347-0.054-0.681-0.154-0.994z"></path>
</svg>
