<!-- Generated by IcoMoon.io -->
<svg version="1.1" xmlns="http://www.w3.org/2000/svg" width="32" height="32" viewBox="0 0 32 32">
<title>Babel</title>
<path fill="#3b3c37" d="M7.5 0h17c4.142 0 7.5 3.358 7.5 7.5v17c0 4.142-3.358 7.5-7.5 7.5h-17c-4.142 0-7.5-3.358-7.5-7.5v-17c0-4.142 3.358-7.5 7.5-7.5z"></path>
<path fill="#000" d="M20.645 11.989l-0.006-0.054-0.087 0.007 0.006 0.054 0.087-0.007zM21.229 13.392l0.002 0.030 0.061-0.005c-0.002-0.018 0.006-0.048 0.018-0.085l-0.006-0.053c-0.026 0.002-0.052 0.041-0.076 0.114zM18.952 15.159c-0.004-0.050-0.159-0.244-0.465-0.585-0.006-0.063 0.1-0.157 0.316-0.281l0.617-0.537c0.139-0.175 0.22-0.46 0.244-0.855l-0.007-0.091c-0.024-0.273-0.222-0.493-0.596-0.661-0.221-0.15-0.62-0.233-1.196-0.247-0.476 0.041-1.099 0.21-1.865 0.511-0.21 0.151-0.45 0.303-0.72 0.454l0.004 0.046c0.017-0.002 0.043-0.011 0.072-0.031 0.031-0.004 0.050 0.011 0.052 0.041l0.046-0.024 0.022-0.002 0.002 0.020c0.002 0.024-0.164 0.155-0.5 0.389l0.026 0.048-0.022 0.002-0.055-0.020c0.002 0.017-0.022 0.028-0.068 0.031l0.002 0.020 0.053 0.066c-0.017 0.002-0.043-0.005-0.078-0.018-0.078 0.007-0.153 0.048-0.229 0.126l0.031-0.137c0.113-0.486 0.19-0.916 0.231-1.289l-0.005-0.024c-0.078-0.050-0.153-0.12-0.223-0.209 0.002-0.057 0.002-0.090 0-0.098l-0.005-0.020-0.022 0.006c-0.244 0.366-0.713 0.99-1.409 1.872-0.53 0.628-0.803 0.977-0.82 1.047-0.216 0.223-0.319 0.358-0.308 0.404-0.057 0.037-0.081 0.074-0.072 0.114-0.017 0.004-0.028-0.002-0.031-0.018-0.092 0.15-0.229 0.246-0.412 0.288l-0.192 0.044c-0.026 0.005-0.039 0.024-0.037 0.055l0.006 0.024 0.072-0.017 0.006 0.020-0.162 0.063-0.288 0.066-0.151 0.009c-0.022 0.022 0.12-0.002 0.065 0.011l-0.188 0.044c-0.114 0.026-0.177 0.017-0.188-0.030l-0.022 0.006c0.004 0.020 0.006 0.035 0.002 0.048l-0.011-0.046-0.151 0.035c-0.011-0.070-0.216-0.325-0.613-0.764-0.007-0.085 0.133-0.209 0.419-0.369l0.809-0.711c0.181-0.233 0.288-0.606 0.323-1.119l-0.011-0.12c-0.031-0.362-0.294-0.654-0.787-0.879-0.292-0.198-0.816-0.303-1.573-0.319-0.628 0.054-1.448 0.277-2.456 0.667-0.277 0.201-0.593 0.401-0.947 0.598l0.006 0.063c0.024-0.002 0.055-0.015 0.094-0.037 0.041-0.004 0.063 0.015 0.066 0.052l0.063-0.035 0.031-0.002 0.002 0.030c0.002 0.030-0.218 0.201-0.663 0.515l0.035 0.055-0.031 0.002-0.068-0.024c0.002 0.018-0.030 0.031-0.094 0.037l0.004 0.033 0.074 0.081c-0.024 0.002-0.057-0.006-0.1-0.020-0.144 0.013-0.284 0.116-0.423 0.312l0.035 0.055c0.12-0.111 0.19-0.166 0.21-0.168l0.007 0.090c-0.020 0.002-0.052 0.015-0.094 0.037l0.076 0.114c0.146-0.157 0.306-0.292 0.482-0.404 0.087 0.022 0.133 0.050 0.135 0.079l0.066-0.005c0.476-0.353 0.947-0.607 1.414-0.764l0.006 0.063c-0.087 0.129-0.146 0.196-0.177 0.199 0.004 0.044 0.018 0.083 0.046 0.116 0.007 0.079-0.205 0.615-0.635 1.604-0.977 2.301-1.797 4.003-2.463 5.104 0.002 0.022 0.015 0.052 0.039 0.089 0.164-0.039 0.268-0.079 0.312-0.118l0.035-0.004 0.006 0.063 0.061-0.006 0.063-0.035c0.002 0.018 0.022 0.028 0.065 0.024l0.006 0.063c0.006 0.061-0.030 0.153-0.103 0.281-0.066 0.076-0.138 0.235-0.214 0.476l0.002 0.030 0.061-0.006c0.266-0.297 0.467-0.589 0.606-0.873 0.775-0.227 1.366-0.451 1.776-0.67 0.412-0.035 0.726-0.144 0.94-0.323l-0.004-0.033-0.155 0.046-0.035 0.004-0.004-0.033c0.303-0.046 0.511-0.113 0.628-0.205 0.589-0.454 1.034-0.776 1.335-0.966 0.619-0.454 1.021-0.897 1.204-1.328 0.033-0.007 0.066-0.015 0.103-0.024 0.087-0.004 0.135-0.006 0.148-0.009-0.004-0.017 0.004-0.026 0.020-0.030 0.138-0.015 0.072 0.009 0.161-0.011l0.233-0.054c-0.015 0.004-0.020 0.011-0.017 0.026l0.035-0.022c-0.007 0-0.013-0.002-0.018-0.004l0.039-0.009-0.018 0.011c0.026 0.004 0.054 0.002 0.085-0.006l0.017 0.068-1.058 1.682-0.235 0.294-0.114 0.384 0.022-0.006 0.114-0.048-0.037 0.149 0.011 0.044 0.031 0.039c-0.015 0.004-0.020 0.013-0.017 0.029l0.006 0.024 0.048-0.011c0.070-0.061 0.1-0.116 0.089-0.166 0.076 0.013 0.126 0.018 0.151 0.011l0.006 0.024c-0.046 0.011-0.070 0.048-0.074 0.111l0.006 0.024 0.026-0.006c0.384-0.419 1.326-1.854 2.081-2.827-0.024-0.105 0.369-0.251 1.182-0.439l0.026-0.006c0.030 0.127-0.033 0.436-0.188 0.925-0.1 0.295-0.148 0.458-0.14 0.484-0.129 0.393-0.19 0.606-0.183 0.639l-0.288 0.944c-0.186 0.484-0.329 0.991-0.428 1.527 0.017-0.004 0.042-0.002 0.079 0.007l0.041-0.035c0.004 0.017 0.015 0.022 0.031 0.018l-0.017-0.068 0.126-0.004c0.037-0.009 0.068-0.055 0.094-0.14-0.006-0.128 0.020-0.196 0.078-0.21 0.078-0.303 0.126-0.454 0.142-0.46 0.072-0.301 0.126-0.473 0.161-0.515 0.109-0.392 0.188-0.593 0.24-0.606l0.011 0.048-0.079 0.205c-0.139 0.615-0.279 1.101-0.421 1.457l0.041 0.177 0.026-0.006c0.344-0.738 0.838-2.201 1.483-4.387 0.018-0.192 0.111-0.341 0.275-0.447l-0.037-0.039-0.006-0.020c0.074-0.017 0.126-0.046 0.155-0.087-0.004-0.017-0.068-0.041-0.194-0.074l0.321-1.377c0.070-0.063 0.111-0.096 0.124-0.096l0.005 0.070c-0.017 0.002-0.042 0.011-0.072 0.031l0.061 0.087c0.111-0.12 0.231-0.223 0.362-0.31 0.066 0.018 0.1 0.041 0.103 0.063l0.048-0.004c0.366-0.268 0.724-0.46 1.076-0.576l0.004 0.046c-0.065 0.098-0.109 0.148-0.133 0.15 0.004 0.033 0.013 0.063 0.029 0.089 0.006 0.061-0.153 0.467-0.478 1.22-0.742 1.745-1.364 3.035-1.87 3.874 0.002 0.017 0.013 0.039 0.033 0.068 0.124-0.029 0.203-0.061 0.235-0.090l0.022-0.002 0.004 0.046 0.052-0.004 0.046-0.024c0.002 0.013 0.018 0.018 0.050 0.017l0.004 0.050c0.004 0.044-0.022 0.114-0.079 0.21-0.054 0.057-0.109 0.177-0.168 0.36l0.002 0.024 0.048-0.004c0.201-0.225 0.354-0.447 0.46-0.665 0.589-0.174 1.038-0.342 1.348-0.508 0.316-0.028 0.554-0.109 0.716-0.246l-0.002-0.024-0.12 0.035-0.026 0.002-0.002-0.024c0.229-0.033 0.39-0.085 0.476-0.153 0.447-0.343 0.785-0.589 1.014-0.733 0.713-0.519 1.045-1.017 1.005-1.495zM18.831 15.191l0.017 0.187c-0.022 0.046-0.046 0.070-0.068 0.072l-0.028-0.318c0.052 0.018 0.078 0.037 0.079 0.059zM4.85 13.688l-0.031 0.002-0.006-0.057 0.127-0.011 0.002 0.030c-0.020 0.002-0.052 0.013-0.092 0.037zM4.227 19.912c-0.074-0.033-0.14-0.046-0.198-0.041l-0.007-0.090c-0.004-0.035 0.017-0.059 0.061-0.068 0.041-0.004 0.065 0.026 0.068 0.085 0.107-0.131 0.166-0.198 0.177-0.2l0.068 0.028c-0.022 0.185-0.079 0.279-0.17 0.286zM10.876 12.957c-0.031 0.004-0.094-0.094-0.185-0.288l-0.006-0.057c0.059-0.006 0.12 0.090 0.185 0.288l0.006 0.057zM10.788 12.268l-0.026 0.061-0.903-0.377c0.602 0.020 0.912 0.126 0.929 0.316zM6.975 15.541l-0.127 0.011-0.006-0.057 0.127-0.011 0.006 0.057zM6.871 13.575l0.031-0.002 0.007 0.091c-0.030 0.002-0.068 0.046-0.116 0.131l-0.006-0.063c0.057-0.068 0.087-0.12 0.083-0.157zM6.604 14.207l0.011 0.12-0.031 0.002-0.011-0.12 0.031-0.002zM6.463 14.432l0.061-0.005c-0.006 0.1-0.033 0.153-0.083 0.157l-0.031 0.002c0.039-0.066 0.057-0.118 0.054-0.153zM6.358 14.746l0.035-0.004 0.002 0.030-0.057 0.096-0.061 0.005-0.002-0.030c0.061-0.005 0.089-0.037 0.083-0.098zM6.255 15.028l-0.018 0.151-0.031 0.002-0.013-0.15 0.063-0.004zM5.219 17.973c-0.041 0.207-0.085 0.312-0.131 0.316l-0.002-0.030c-0.011-0.102 0.033-0.198 0.133-0.286zM5.029 18.385l0.002 0.029c0.004 0.041-0.015 0.065-0.055 0.067l-0.002-0.030c-0.004-0.035 0.015-0.057 0.055-0.066zM4.973 19.24l0.096-0.009 0.004 0.033c-0.024 0.002-0.055 0.015-0.094 0.037l-0.061 0.006c-0.004-0.031 0.017-0.055 0.055-0.066zM7.706 18.396c-0.539 0.266-0.857 0.447-0.951 0.541-0.583 0.203-0.873 0.329-0.868 0.378-0.519 0.205-0.86 0.356-1.025 0.451-0.039 0.004-0.094-0.011-0.168-0.044-0.009-0.105 0.039-0.19 0.14-0.259 0.090-0.007 0.177 0.006 0.26 0.041 0.096-0.050 0.264-0.105 0.502-0.164l-0.006-0.063-0.192 0.017c0.024-0.033 0.209-0.12 0.556-0.26l0.096-0.009 0.002 0.029c-0.164 0.015-0.255 0.063-0.275 0.149 0.004 0.039 0.026 0.055 0.066 0.052 0.124-0.078 0.185-0.124 0.183-0.137 0.234-0.044 0.883-0.384 1.944-1.017l0.006 0.057c0.002 0.028-0.089 0.105-0.271 0.238zM6.078 18.931c0.155-0.013 0.288-0.076 0.399-0.185 0.044-0.004 0.068 0.013 0.070 0.052-0.076 0.008-0.222 0.070-0.434 0.192l-0.031 0.002-0.004-0.061zM8.705 16.913l-0.814 0.644c-0.606 0.397-0.931 0.596-0.977 0.6-0.964 0.53-1.564 0.805-1.797 0.825l-0.035 0.004c0.030-0.109 0.458-0.986 1.289-2.637 0.366-0.031 0.942-0.201 1.726-0.511l0.192-0.017c0.397-0.035 0.694 0.042 0.89 0.227l0.011 0.12c-0.148 0.425-0.31 0.672-0.486 0.744zM7.113 16.018l0.131-0.011 0.002 0.029-0.131 0.011-0.002-0.030zM8.954 15.706l0.096-0.009c0.089 0.043 0.135 0.079 0.139 0.113l0.002 0.030c-0.085 0.008-0.164-0.037-0.236-0.133zM9.215 14.223c-0.085 0.101-0.318 0.275-0.698 0.519-0.126 0.011-0.593 0.192-1.401 0.547-0.041-0.018-0.083-0.026-0.129-0.022l-0.006-0.057c-0.009-0.116 0.042-0.262 0.157-0.44 0.063-0.332 0.131-0.523 0.207-0.569l0.674-1.516c-0.007-0.094 0.137-0.166 0.432-0.216l0.096-0.009 0.007 0.087c0.29-0.044 0.471-0.070 0.541-0.076 0.535-0.046 0.814 0.063 0.836 0.323l0.061-0.005-0.013-0.153 0.066-0.006c0.157 0.087 0.242 0.192 0.253 0.316 0.007 0.085-0.039 0.19-0.137 0.316-0.041 0.004-0.065-0.026-0.068-0.085l-0.066 0.005-0.015 0.185c-0.271 0.406-0.469 0.615-0.591 0.626-0.111 0.153-0.179 0.229-0.207 0.231zM9.628 15.285c-0.055-0.037-0.1-0.053-0.133-0.052l-0.007-0.091 0.061-0.006 0.135 0.079c0.006 0.042-0.013 0.065-0.055 0.068zM10.056 15.793c0.059 0.024 0.094 0.050 0.102 0.074l-0.030 0.007 0.002 0.002c-0.006 0-0.013 0.002-0.018 0.004l-0.044 0.035-0.011-0.122zM10.097 16.047l-0.006-0.024 0.078-0.018 0.006 0.024-0.078 0.018zM10.284 16.256c0.079-0.013 0.118-0.018 0.266-0.052l0.006 0.024-0.281 0.065c0.004-0.013 0.007-0.026 0.009-0.037zM10.557 16.372c-0.118 0.011-0.092-0.004-0.281 0.039l-0.006-0.024 0.235-0.076 0.113-0.026 0.011 0.044c-0.050 0.011-0.013 0.011-0.072 0.042zM10.806 16.313c-0.028 0.007-0.050-0.006-0.063-0.037l0.072-0.017c0.031-0.007 0.052 0.006 0.059 0.037l-0.068 0.017zM11.482 15.586l-0.006-0.024 0.116-0.028 0.011 0.044-0.122 0.007zM12.204 20.014c0.007-0.033 0.009-0.057 0.006-0.074l0.026-0.006c0.031-0.007 0.050 0.004 0.057 0.033l0.006 0.024-0.094 0.022zM12.71 15.776l-0.052-0.009c-0.083 0.033-0.153 0.057-0.21 0.070l-0.048 0.011c-0.028 0.007-0.050-0.004-0.061-0.033l0.338-0.078 0.111-0.052 0.037 0.043c-0.054 0.011-0.092 0.028-0.114 0.048zM12.97 15.693l-0.006-0.024c0.017-0.004 0.039-0.017 0.063-0.041l0.24-0.056 0.005 0.024c-0.127 0.031-0.229 0.063-0.303 0.096zM13.007 15.207c-0.017 0.004-0.039 0.018-0.066 0.041-0.004-0.017-0.037-0.017-0.1-0.002-0.011-0.046 0.166-0.111 0.534-0.196l0.052-0.011 0.011 0.044c-0.258 0.076-0.402 0.118-0.43 0.124zM13.653 14.509c-0.026 0.294-0.129 0.46-0.312 0.502l-0.006-0.024-0.162 0.063-0.072 0.017c-0.037 0.009-0.070 0.007-0.1-0.002l-0.015-0.065c-0.006-0.024 0.229-0.349 0.705-0.973l0.055 0.009c0.020 0.085-0.011 0.242-0.094 0.473zM14.796 13.531l-0.022 0.002-0.004-0.046 0.096-0.009 0.002 0.024c-0.017 0.004-0.041 0.013-0.072 0.030zM14.325 18.259c-0.056-0.026-0.105-0.037-0.148-0.033l-0.005-0.070c-0.002-0.024 0.013-0.041 0.044-0.050 0.031-0.004 0.050 0.018 0.053 0.067 0.079-0.102 0.124-0.153 0.133-0.153l0.050 0.020c-0.018 0.14-0.061 0.214-0.127 0.22zM19.373 12.979c-0.024 0.002-0.070-0.072-0.142-0.222l-0.004-0.046c0.046-0.004 0.094 0.068 0.142 0.216l0.004 0.052zM19.307 12.451l-0.022 0.048-0.683-0.286c0.456 0.015 0.692 0.094 0.705 0.238zM16.41 14.938l-0.096 0.009-0.004-0.046 0.096-0.007 0.004 0.044zM16.331 13.444l0.026-0.002 0.006 0.070c-0.024 0.002-0.053 0.035-0.089 0.1l-0.004-0.046c0.043-0.053 0.063-0.094 0.061-0.122zM16.129 13.924l0.007 0.091-0.026 0.002-0.007-0.090 0.026-0.002zM16.020 14.096l0.048-0.004c-0.006 0.078-0.026 0.118-0.061 0.122l-0.026 0.002c0.028-0.052 0.041-0.092 0.039-0.12zM15.943 14.332l0.022-0.002 0.002 0.024-0.043 0.074-0.048 0.004-0.002-0.024c0.050-0.004 0.072-0.030 0.068-0.076zM15.865 14.546l-0.017 0.118-0.022 0.002-0.009-0.116 0.048-0.004zM15.077 16.786c-0.031 0.155-0.065 0.235-0.1 0.238l-0.002-0.020c-0.005-0.078 0.028-0.151 0.101-0.218zM14.931 17.098l0.002 0.020c0.004 0.033-0.011 0.052-0.044 0.053l-0.002-0.024c-0.002-0.024 0.013-0.041 0.044-0.050zM14.89 17.748l0.074-0.006 0.002 0.024c-0.017 0.002-0.043 0.011-0.072 0.028l-0.048 0.004c-0.002-0.026 0.013-0.043 0.044-0.050zM16.964 17.107c-0.406 0.201-0.648 0.338-0.724 0.408-0.443 0.155-0.663 0.251-0.659 0.29-0.393 0.157-0.652 0.27-0.774 0.341-0.030 0.002-0.072-0.009-0.127-0.035-0.008-0.079 0.030-0.144 0.107-0.192 0.070-0.006 0.137 0.004 0.198 0.030 0.074-0.037 0.201-0.078 0.382-0.124l-0.004-0.046-0.151 0.011c0.018-0.026 0.161-0.092 0.425-0.199l0.074-0.006 0.002 0.020c-0.126 0.011-0.196 0.048-0.21 0.114 0.002 0.029 0.020 0.044 0.052 0.041 0.092-0.061 0.137-0.096 0.137-0.107 0.177-0.031 0.668-0.29 1.475-0.774l0.004 0.046c0.002 0.020-0.067 0.079-0.205 0.181zM15.727 17.514c0.12-0.011 0.222-0.057 0.306-0.139 0.031-0.004 0.050 0.011 0.052 0.041-0.055 0.006-0.164 0.052-0.329 0.14l-0.026 0.002-0.004-0.044zM17.724 15.979l-0.615 0.495c-0.46 0.301-0.709 0.452-0.748 0.456-0.731 0.402-1.185 0.611-1.364 0.626l-0.026 0.002c0.022-0.083 0.349-0.75 0.98-2.002 0.275-0.024 0.711-0.155 1.309-0.391l0.15-0.013c0.301-0.026 0.526 0.033 0.674 0.175l0.007 0.091c-0.113 0.318-0.234 0.504-0.367 0.561zM16.517 15.3l0.096-0.009 0.002 0.024-0.096 0.009-0.002-0.024zM17.915 15.062l0.074-0.005c0.068 0.033 0.103 0.063 0.105 0.087l0.002 0.020c-0.065 0.006-0.125-0.028-0.181-0.101zM18.108 13.937c-0.065 0.078-0.24 0.21-0.526 0.395-0.096 0.009-0.451 0.146-1.064 0.412-0.030-0.011-0.063-0.015-0.098-0.013l-0.004-0.046c-0.007-0.089 0.031-0.2 0.116-0.334 0.048-0.255 0.102-0.397 0.157-0.43l0.515-1.152c-0.006-0.068 0.104-0.124 0.325-0.166l0.074-0.006 0.006 0.070c0.218-0.035 0.355-0.055 0.41-0.061 0.406-0.035 0.619 0.046 0.635 0.246l0.048-0.004-0.009-0.111 0.048-0.004c0.118 0.065 0.181 0.142 0.188 0.234 0.006 0.066-0.028 0.148-0.098 0.242-0.031 0.004-0.050-0.018-0.054-0.066l-0.048 0.004-0.015 0.139c-0.205 0.312-0.355 0.473-0.449 0.48-0.083 0.113-0.135 0.17-0.159 0.172zM18.325 14.705l-0.006-0.070 0.048-0.004 0.104 0.063c0.002 0.030-0.013 0.046-0.044 0.050-0.044-0.028-0.078-0.041-0.102-0.039zM9.73 19.19l-0.048 0.011-0.041 0.035c0.007 0.030 0.026 0.041 0.057 0.033s0.044-0.026 0.037-0.055l-0.006-0.024zM9.547 18.826l0.006 0.024c0.031-0.007 0.044-0.026 0.037-0.055l-0.006-0.024c-0.030 0.007-0.042 0.026-0.037 0.055zM10.847 15.733l0.055-0.013-0.011-0.048-0.055 0.013 0.011 0.048zM27.601 17.14c-0.561 0.125-0.631 0.103-0.75 0.113l0.004 0.046 0.079-0.006-0.007-0.006 0.061-0.024c0.556-0.061 0.62-0.039 0.615-0.102l-0.002-0.022zM24.578 17.541l0.004 0.046h0.007l-0.004-0.046h-0.007zM24.231 16.324l-0.050-0.017c-0.041 0.109-0.061 0.174-0.059 0.192l0.002 0.020c0.039-0.002 0.074-0.068 0.107-0.196zM27.715 17.131l0.004 0.046 0.081 0.015-0.004-0.046-0.081-0.015zM23.895 17.598l-0.126-0.015-0.022 0.048 0.002 0.024 0.748-0.063-0.004-0.046-0.598 0.052zM23.555 15.961l-0.002-0.024-0.026 0.002-0.046 0.030 0.026 0.044c0.035-0.004 0.052-0.020 0.048-0.052zM28.070 16.791l0.035-0.004c0.020-0.002 0.029-0.018 0.028-0.048l-0.020-0.044c-0.127 0.011-0.186 0.017-0.29 0.074l-0.002-0.024-0.153 0.015c-0.004-0.046-0.017-0.070-0.037-0.068l-0.079 0.007c-0.092 0.007-0.137 0.004-0.183 0.039-0.002-0.017-0.007-0.024-0.017-0.024l-0.089 0.007-0.052 0.029c-0.002-0.017-0.007-0.024-0.017-0.024l-0.031 0.028-0.002-0.024-0.124-0.009-0.029 0.002 0.004 0.046 0.063 0.017 0.059-0.004c0.020 0.013 0.043 0.017 0.068 0.015l0.052-0.026 0.002 0.020c-0.29 0.072-0.288 0.059-0.487 0.092-0.022-0.015-0.039-0.022-0.050-0.020l-0.004 0.004c-0.022-0.002-0.035-0.017-0.037-0.041l0.103-0.013c0.007 0 0.013 0.007 0.070 0.018 0.083-0.041 0.087-0.057 0.131-0.061l-0.004-0.046c-0.284 0.055-0.17 0.018-0.526 0.050l-0.017 0.002-0.004-0.046c0.458-0.055 0.305-0.024 0.462-0.068 0.002 0.017 0.007 0.024 0.017 0.024 0.018-0.018 0.039-0.028 0.063-0.031l0.031-0.002c0.161-0.013 0.214 0.018 0.532-0.070l0.002 0.020 0.052-0.026 0.048-0.004c-0.004-0.046 0.067-0.053 0.090-0.055l-0.004-0.050c-0.558 0.113-0.703 0.081-0.859 0.126l-0.002-0.020c-0.146 0.026-0.151 0.015-0.188 0.017-0.011 0.002-0.028 0.011-0.046 0.030-0.002-0.017-0.007-0.024-0.018-0.024-0.006 0-0.007 0.002-0.009 0.002l-0.473 0.078c-0.002-0.013-0.007-0.020-0.018-0.018-0.245 0.052-0.179 0.061-0.508 0.090-0.015 0.002-0.035 0.009-0.061 0.026-0.002-0.013-0.009-0.020-0.026-0.018l-0.201 0.017-0.135 0.033c-0.002-0.013-0.009-0.020-0.026-0.018-0.076 0.020-0.142 0.033-0.196 0.037h-0.004c-0.033 0.004 0.017-0.009-0.009-0.020l-0.041 0.024c-0.059 0.006-0.028-0.004-0.231-0.002-0.356 0.044-0.317 0.050-0.356 0.052l-0.133-0.009c0.002 0.013-0.006 0.022-0.020 0.022-0.151-0.020-0.229-0.044-0.231-0.072 0.020-0.144 0.055-0.218 0.105-0.221l0.026-0.002-0.022 0.048 0.026-0.002c0.048-0.026 0.070-0.050 0.068-0.072l-0.004-0.050-0.048 0.004-0.004-0.046c-0.004-0.035 0.002-0.066 0.015-0.092l0.109-0.175 0.004 0.046 0.052-0.004-0.004-0.046-0.029-0.043c0.039-0.033 0.068-0.052 0.092-0.053l-0.002-0.024-0.070 0.006-0.006-0.070c0.14-0.292 0.207-0.462 0.203-0.51l0.050 0.020c0.032-0.002 0.046-0.020 0.044-0.054l-0.048 0.004-0.002-0.020c-0.004-0.035 0.004-0.068 0.018-0.098 0.076-0.079 0.111-0.159 0.103-0.242 0.015-0.002 0.022 0.005 0.024 0.022 0.065-0.037 0.114-0.135 0.151-0.297 0.114-0.207 0.277-0.62 0.489-1.239 0.406-1.093 0.39-1.209 0.447-1.468l-0.048 0.004c0.004 0.033-0.004 0.065-0.018 0.094-0.033-0.013-0.059-0.020-0.078-0.018l-0.002-0.020c-0.007-0.094 0.031-0.207 0.12-0.34l0.022-0.002 0.041 0.159 0.048-0.004c-0.002-0.011 0.011-0.074 0.037-0.19-0.002-0.024-0.020-0.039-0.057-0.041l-0.046 0.030c-0.004-0.033-0.002-0.12 0.004-0.258l-0.024 0.002c-0.041-0.041-0.061-0.074-0.063-0.102l-0.264 0.026c-0.002-0.018-0.011-0.046-0.029-0.081-0.002-0.024 0.057-0.048 0.179-0.072l0.054 0.020 0.050-0.030c0.002 0.017 0.011 0.024 0.029 0.022l0.050-0.030c0.002 0.017 0.011 0.024 0.029 0.022l0.024-0.002-0.004-0.054c-0.037 0.004-0.135 0.004-0.29-0.002l-0.050 0.033-0.002-0.030c-1.239 0.102-1.942 0.159-2.11 0.175-0.022 0.002-0.109 0-0.262-0.004 0.002 0.020-0.017 0.031-0.053 0.035l-0.054-0.024-0.181 0.046c-0.043 0.004-0.114 0.002-0.214-0.009-0.028 0.022-0.061 0.035-0.102 0.039-0.022 0.002 0.264-0.015 0.53-0.033-0.028 0.022-0.070 0.035-0.129 0.041-0.041 0.004-0.076-0.002-0.105-0.018-0.041 0.018-0.172 0.048-0.391 0.092l-0.053-0.020-0.864 0.133c-0.033-0.017-0.072-0.022-0.116-0.018-0.046 0.004-0.124 0.020-0.231 0.050l-0.417 0.174 0.032 0.052c0.020-0.002 0.050-0.013 0.085-0.033l0.148 0.013-0.018 0.138c-0.137 0.061-0.216 0.151-0.238 0.266-0.205 0.090-0.306 0.155-0.306 0.194l0.002 0.024 0.031-0.002 0.055-0.030 0.065 0.078 0.009 0.107c0.004 0.033-0.341 0.759-1.032 2.177-0.598 1.366-0.912 2.114-0.942 2.249-0.205 0.057-0.323 0.14-0.358 0.251 0.004 0.035 0.065 0.059 0.183 0.068l0.006 0.054-0.053 0.089 0.009 0.107c0.006 0.055 0.155 0.098 0.449 0.128-0.002-0.018 0.007-0.030 0.028-0.032 0.006 0.067-0.013 0.196-0.055 0.388l0.031-0.002c0.122-0.166 0.179-0.281 0.174-0.343l0.026-0.002c0.029-0.002 0.061 0.031 0.098 0.104-0.037 0.015-0.166 0.308-0.388 0.883l0.031 0.052 0.031-0.002c0.271-0.687 0.441-1.067 0.512-1.139 0.356-0.031 0.973-0.094 1.848-0.188l0.055-0.033c0.002 0.018 0.013 0.028 0.033 0.026l0.057-0.006 0.055-0.033c0.002 0.018 0.013 0.028 0.033 0.026l0.663-0.057c0.175-0.015 0.259-0.068 0.251-0.159-0.002-0.024 0.102-0.052 0.31-0.081 0.020-0.002 0.050 0.004 0.090 0.017-0.002-0.017 0.104-0.033 0.314-0.052 0.006-0.111 0.041-0.17 0.104-0.175l-0.006-0.053c-0.059 0.006-0.125 0.020-0.203 0.046-0.139-0.007-0.227-0.018-0.264-0.031-0.037 0.020-0.065 0.031-0.085 0.033l-0.462 0.015-0.055 0.029c-0.002-0.017-0.013-0.024-0.033-0.022l-0.026 0.002-0.059 0.029c-0.002-0.017-0.050-0.029-0.146-0.043l-0.059 0.035-0.114 0.009-0.002-0.029c0.595-0.065 0.888-0.146 0.881-0.242 0.039-0.004 0.059 0.015 0.063 0.054l0.174-0.044-0.006-0.053-1.424 0.039c0.002 0.018-0.007 0.030-0.028 0.031l-0.174-0.015c-0.044 0.004-0.081 0.017-0.111 0.039l-0.065-0.024c-0.179 0.015-0.312 0.037-0.401 0.065-0.122-0.009-0.257-0.007-0.406 0.006l-0.32 0.028-0.148-0.017c-0.007-0.094 0.175-0.558 0.552-1.389 0.109-0.281 0.209-0.456 0.305-0.523 0.020-0.002 0.050 0.005 0.090 0.022l0.227-0.078 0.116 0.018c0.196-0.017 0.423-0.072 0.683-0.168 0.065-0.006 0.113-0.002 0.148 0.013l0.174-0.041 0.517-0.044c0.22-0.018 0.458-0.066 0.716-0.146l-0.006-0.054c-0.096 0.009-0.146-0.007-0.15-0.046-0.006-0.072-0.076-0.101-0.21-0.091l-0.006-0.053 0.142-0.041 0.373-0.031-0.006-0.054c-0.015 0.002-0.090 0-0.231-0.005l-0.006-0.057 0.144-0.013c0.039-0.004 0.055-0.022 0.052-0.059-0.194 0.005-0.292-0.004-0.294-0.030-1.352 0.066-2.029 0.079-2.033 0.037-0.020 0.002-0.048 0.015-0.085 0.037l-0.035-0.056c0.358-0.761 0.569-1.145 0.63-1.15 0.002 0.030-0.013 0.078-0.046 0.142l0.002 0.024 0.057-0.006c0.142-0.34 0.262-0.515 0.362-0.522 0.425-0.037-0.059-0.065 0.849-0.207 0.037 0.017 0.063 0.024 0.081 0.022 0.356-0.072 0.853-0.148 1.49-0.225l-0.004-0.054-0.34 0.031-0.004-0.054c0.041-0.004 0.074-0.017 0.102-0.039l0.002 0.030c0.018-0.002 0.044-0.015 0.078-0.037 0.059-0.006 0.104 0 0.135 0.017 0.118-0.031 0.214-0.050 0.284-0.057l0.212-0.020c0.052-0.033 0.076-0.063 0.074-0.090l-0.002-0.024c-0.053 0.006-0.114 0.002-0.186-0.011-0.002-0.030 0.013-0.050 0.048-0.059l0.395-0.037 0.181-0.046c0.002 0.020 0.011 0.028 0.026 0.028 0.018-0.002 0.044-0.015 0.078-0.037 0.009 0.002 0.020 0.002 0.029 0.004-0.024 0.050-0.052 0.122-0.079 0.216l-0.052 0.004c-0.004-0.035-0.013-0.066-0.030-0.094l-0.026 0.002c-0.48 1.337-0.694 1.959-1.137 2.986-0.081 0.262-0.15 0.408-0.209 0.44 0.002 0.030 0.020 0.044 0.052 0.041 0.011 0.129-0.018 0.257-0.090 0.382-0.205 0.591-0.341 0.914-0.412 0.973l0.046 0.279c0.002 0.030-0.013 0.046-0.044 0.050l-0.048 0.004c-0.007-0.078-0.035-0.114-0.085-0.109l-0.026 0.002c-0.063 0.098-0.111 0.21-0.142 0.342l0.048-0.004c0.065-0.043 0.094-0.092 0.089-0.149l0.096-0.009 0.055 0.020c-0.044 0.070-0.065 0.126-0.061 0.168l0.026 0.044-0.063 0.148 0.002 0.024c0.055-0.006 0.116 0.013 0.181 0.052 0.044-0.004 0.092-0.024 0.146-0.059 0.055-0.006 0.262-0.007 0.619-0.007l0.179-0.061c0.218-0.002 0.253 0.004 0.441-0.013l0.078-0.008 0.041-0.028 0.002 0.024c0.198-0.017 0.21-0.004 0.366 0.015l0.002 0.024-0.109 0.009 0.004 0.046c0.033-0.004 0.063-0.013 0.087-0.033 0.028-0.002 0.044 0.013 0.046 0.046-0.044 0.004-0.094 0.015-0.15 0.033l-0.048-0.017c-0.076 0.020-0.059 0.026-0.111 0.029l-0.076-0.015c0.002 0.013-0.006 0.022-0.018 0.022 0.002 0.029 0.018 0.044 0.046 0.043l0.078-0.007 0.404-0.035 0.153-0.033c0.002 0.013 0.007 0.020 0.020 0.018l0.074-0.028 0.139-0.011c0.107-0.009 0.105-0.017 0.338-0.054-0.002-0.015 0.004-0.020 0.015-0.022l0.002 0.020c0.378-0.065 0.402-0.068 0.463-0.089l0.006 0.011c0.094-0.022 0.041-0.017 0.067-0.035 0.002 0.017 0.007 0.024 0.017 0.024l0.066-0.006-0.004-0.050-0.135-0.002-0.002-0.004c-0.006 0.002-0.009 0.002-0.015 0.004h-0.018v0.004c-0.090 0.018-0.092 0.006-0.151 0.011l-0.338 0.018-0.002-0.024 0.188-0.026 0.068-0.006 0.039-0.028 0.002 0.024c0.266-0.022 0.36 0.044 1.59-0.218 0.067-0.006 0.061-0.061 0.103-0.175-0.022 0.002-0.044-0.004-0.065-0.015-0.102 0.039-0.155 0.020-0.351 0.052-0.017 0.002-0.030-0.013-0.035-0.043l-0.002-0.020 0.188 0.006c0.035-0.004 0.103-0.009 0.205-0.067 0 0.017-0.037 0.026-0.015 0.024zM18.978 16.937l-0.087 0.007c-0.004-0.035 0.043-0.168 0.139-0.395l0.057-0.006c0.002 0.053-0.033 0.185-0.109 0.393zM19.084 16.516l-0.002-0.024c-0.002-0.029 0.017-0.050 0.057-0.059l0.002 0.024c0.002 0.035-0.017 0.055-0.057 0.059zM20.237 17.408l0.002 0.024-0.144 0.013-0.002-0.024 0.144-0.013zM20.064 17.393c0.002 0.029-0.043 0.063-0.139 0.096l-0.177-0.013-0.057 0.006-0.006-0.054 0.378-0.035zM21.231 12.022l-0.087 0.007-0.002-0.030c-0.002-0.030 0.015-0.050 0.052-0.059l0.031-0.002 0.059 0.024c0.002 0.035-0.015 0.055-0.054 0.059zM22.551 11.764l0.028-0.002 0.004 0.054-0.079 0.007c-0.002-0.030 0.013-0.050 0.048-0.059zM22.219 11.88l-0.131-0.015-0.002-0.024c0.172-0.015 0.229-0.033 0.334-0.063 0.002 0.020 0.020 0.028 0.053 0.024l0.004 0.054-0.052 0.006c-0.041 0.004-0.076-0.002-0.105-0.018-0.031 0.020-0.065 0.033-0.102 0.037zM22.383 12.358l-0.002-0.024 0.212-0.020 0.002 0.024-0.212 0.020zM22.61 12.174l-0.002-0.030 0.104-0.009 0.002 0.030-0.103 0.009zM22.634 11.812l-0.028 0.002 0.024-0.057 0.236-0.022 0.002 0.030c-0.061 0.006-0.14 0.022-0.235 0.048zM22.754 12.321l-0.004-0.054 0.103-0.009c0.035-0.004 0.053 0.013 0.055 0.050l-0.155 0.013zM23.38 11.468l-0.133 0.037-0.024 0.002c-0.063 0.006-0.144 0.004-0.24-0.006 0.172-0.011 0.336-0.024 0.397-0.033zM23.238 12.059l0.002 0.024-0.183 0.017-0.002-0.024 0.183-0.017zM23.537 12.201c-0.002-0.022-0.037-0.037-0.109-0.044l-0.183 0.052-0.14 0.006c-0.031-0.022-0.048-0.037-0.050-0.048l0.163 0.009 0.366-0.059 0.186 0.007 0.002 0.030c-0.092 0.009-0.17 0.026-0.235 0.048zM25.418 11.716c0.022 0.002 0.037 0.002 0.043 0.002 0.065-0.063 0.137-0.113 0.22-0.148-0.066 0.292-0.17 0.508-0.312 0.648l-0.103-0.063c0.087-0.22 0.139-0.366 0.153-0.439zM25.101 12.261l0.026-0.002c-0.035 0.066-0.067 0.102-0.092 0.103l-0.006-0.070c0.017 0 0.041-0.011 0.072-0.031zM24.896 12.75c0.050-0.199 0.098-0.312 0.142-0.342l0.002 0.024c-0.026 0.185-0.067 0.283-0.12 0.29l0.009 0.116c-0.044 0.063-0.065 0.111-0.063 0.148l-0.026 0.002-0.015-0.161c0.030-0.004 0.054-0.030 0.070-0.078zM24.817 13.016c0.002 0.028-0.017 0.092-0.054 0.192l-0.026 0.002-0.006-0.070c0.035-0.081 0.065-0.122 0.085-0.124zM23.326 17.34l-0.002-0.020 0.048-0.004 0.006 0.070c-0.026 0.002-0.044-0.013-0.052-0.046zM25.455 17.395c-0.002-0.017-0.009-0.024-0.026-0.022l-0.12 0.011-0.002-0.024h0.011l0.284-0.024 0.002 0.024c-0.083 0.004-0.133 0.017-0.15 0.035zM25.313 17.336c0.011 0.006 0.006 0.011 0 0.015-0.006-0.002-0.013-0.007 0-0.015zM25.328 17.004l-0.159 0.013-0.002-0.024 0.144-0.013 0.126-0.031c0.002 0.015 0.009 0.020 0.026 0.018 0.15-0.026 0.135-0.033 0.207-0.039 0.024-0.002 0.039 0.013 0.041 0.043l-0.382 0.033zM25.884 16.956c-0.089-0.009-0.094-0.017-0.157-0.011l-0.002-0.020 0.142-0.013 0.002 0.020c-0.015 0.002 0.039 0.006 0.015 0.024zM25.895 16.93l-0.002-0.020 0.078-0.007 0.002 0.020-0.078 0.007zM26.067 16.915l-0.002-0.020c0.013-0.002 0.031-0.011 0.055-0.029 0.039-0.004 0.059 0.022 0.063 0.052l-0.116-0.002zM26.286 16.887l-0.002-0.024 0.094-0.007 0.002 0.024-0.094 0.007zM26.417 16.877c-0.002-0.028 0.009-0.044 0.033-0.048l0.031 0.041c-0.002-0.013 0.004-0.020 0.015-0.022l0.024 0.044-0.103-0.015zM25.023 17.478l-0.004-0.046-0.015 0.002 0.004 0.046 0.015-0.002zM28.267 16.638c0.015-0.009 0.022-0.018-0.013-0.024-0.017 0.018 0.018 0.024-0.018 0.026l0.002 0.017c0.004-0.004 0.013-0.009 0.020-0.015l-0.020 0.017v0.002l-0.039 0.050 0.078-0.028h0.009l-0.004-0.046-0.015 0.002zM28.402 16.744l-0.015 0.002 0.004 0.046 0.109-0.009c-0.002-0.029-0.074-0.039-0.098-0.039zM28.234 16.662l0.002-0.002v-0.002c0 0-0.002 0.002-0.002 0.004z"></path>
<path fill="#f9dc3e" d="M21.146 13.245l0.002 0.030 0.061-0.005c-0.002-0.018 0.006-0.048 0.018-0.085l-0.006-0.054c-0.026 0.002-0.052 0.041-0.076 0.114zM20.562 11.841l-0.006-0.054-0.087 0.007 0.006 0.054 0.087-0.007zM18.869 15.012c-0.004-0.050-0.159-0.244-0.465-0.585-0.006-0.063 0.1-0.157 0.316-0.281l0.617-0.537c0.139-0.175 0.22-0.46 0.244-0.855l-0.007-0.091c-0.024-0.273-0.222-0.493-0.596-0.661-0.222-0.15-0.62-0.233-1.197-0.247-0.476 0.041-1.099 0.21-1.865 0.511-0.21 0.151-0.451 0.303-0.72 0.454l0.004 0.046c0.017-0.002 0.043-0.011 0.072-0.031 0.031-0.004 0.050 0.011 0.052 0.041l0.046-0.024 0.022-0.002 0.002 0.020c0.002 0.024-0.164 0.155-0.5 0.39l0.026 0.048-0.022 0.002-0.055-0.020c0.002 0.017-0.022 0.028-0.068 0.031l0.002 0.020 0.053 0.066c-0.017 0.002-0.042-0.005-0.078-0.018-0.078 0.007-0.153 0.048-0.229 0.126l0.031-0.137c0.113-0.486 0.19-0.916 0.231-1.289l-0.005-0.024c-0.078-0.050-0.153-0.12-0.223-0.209 0.002-0.057 0.002-0.090 0-0.098l-0.005-0.020-0.022 0.006c-0.244 0.366-0.713 0.99-1.409 1.872-0.53 0.628-0.803 0.977-0.82 1.047-0.216 0.223-0.319 0.358-0.308 0.404-0.057 0.037-0.081 0.074-0.072 0.114-0.017 0.004-0.028-0.002-0.031-0.018-0.092 0.149-0.229 0.245-0.412 0.288l-0.192 0.044c-0.026 0.006-0.039 0.024-0.037 0.056l0.006 0.024 0.072-0.017 0.006 0.020-0.162 0.063-0.288 0.066-0.151 0.009c-0.022 0.022 0.12-0.002 0.065 0.011l-0.188 0.044c-0.114 0.026-0.177 0.017-0.188-0.030l-0.022 0.005c0.004 0.020 0.006 0.035 0.002 0.048l-0.011-0.046-0.151 0.035c-0.011-0.070-0.216-0.325-0.613-0.764-0.007-0.085 0.133-0.209 0.419-0.369l0.809-0.711c0.181-0.233 0.288-0.606 0.323-1.119l-0.011-0.12c-0.031-0.362-0.294-0.654-0.787-0.879-0.292-0.198-0.816-0.303-1.573-0.319-0.628 0.054-1.448 0.277-2.456 0.667-0.277 0.201-0.593 0.401-0.947 0.598l0.006 0.063c0.024-0.002 0.055-0.015 0.094-0.037 0.041-0.004 0.063 0.015 0.066 0.052l0.063-0.035 0.031-0.002 0.002 0.030c0.002 0.030-0.218 0.201-0.663 0.515l0.035 0.055-0.031 0.002-0.068-0.024c0.002 0.018-0.030 0.031-0.094 0.037l0.004 0.033 0.074 0.081c-0.024 0.002-0.057-0.005-0.1-0.020-0.144 0.013-0.284 0.116-0.423 0.312l0.035 0.055c0.12-0.111 0.19-0.166 0.21-0.168l0.007 0.091c-0.020 0.002-0.052 0.015-0.094 0.037l0.076 0.114c0.146-0.157 0.306-0.292 0.482-0.404 0.087 0.022 0.133 0.050 0.135 0.079l0.066-0.005c0.476-0.353 0.947-0.607 1.414-0.764l0.006 0.063c-0.087 0.129-0.146 0.196-0.177 0.199 0.004 0.044 0.018 0.083 0.046 0.116 0.007 0.079-0.205 0.615-0.635 1.604-0.977 2.301-1.797 4.003-2.463 5.103 0.002 0.022 0.015 0.052 0.039 0.089 0.164-0.039 0.268-0.079 0.312-0.118l0.035-0.004 0.006 0.063 0.061-0.006 0.063-0.035c0.002 0.018 0.022 0.028 0.065 0.024l0.006 0.063c0.006 0.061-0.030 0.153-0.103 0.281-0.066 0.076-0.138 0.235-0.214 0.476l0.002 0.029 0.061-0.006c0.266-0.297 0.467-0.589 0.606-0.873 0.776-0.227 1.366-0.451 1.776-0.67 0.412-0.035 0.726-0.144 0.94-0.323l-0.004-0.033-0.155 0.046-0.035 0.004-0.004-0.033c0.303-0.046 0.511-0.113 0.628-0.205 0.589-0.454 1.034-0.776 1.335-0.966 0.619-0.454 1.021-0.897 1.204-1.328 0.033-0.007 0.066-0.015 0.103-0.024 0.087-0.004 0.135-0.006 0.148-0.009-0.004-0.017 0.004-0.026 0.020-0.029 0.139-0.015 0.072 0.009 0.161-0.011l0.233-0.053 0.039-0.009-0.018 0.011c0.026 0.004 0.054 0.002 0.085-0.006l0.017 0.068-1.058 1.682-0.235 0.294-0.114 0.384 0.022-0.006 0.114-0.048-0.037 0.149 0.011 0.044 0.031 0.039c-0.015 0.004-0.020 0.013-0.017 0.029l0.006 0.024 0.048-0.011c0.070-0.061 0.1-0.116 0.089-0.166 0.076 0.013 0.126 0.018 0.151 0.011l0.006 0.024c-0.046 0.011-0.070 0.048-0.074 0.111l0.006 0.024 0.026-0.006c0.384-0.419 1.326-1.854 2.081-2.827-0.024-0.105 0.369-0.251 1.182-0.44l0.026-0.005c0.030 0.127-0.033 0.436-0.188 0.925-0.1 0.295-0.148 0.458-0.14 0.484-0.129 0.393-0.19 0.606-0.183 0.639l-0.288 0.944c-0.187 0.484-0.329 0.991-0.428 1.527 0.017-0.004 0.042-0.002 0.079 0.008l0.041-0.035c0.004 0.017 0.015 0.022 0.031 0.018l-0.017-0.068 0.126-0.004c0.037-0.009 0.068-0.055 0.094-0.14-0.006-0.127 0.020-0.196 0.078-0.21 0.078-0.303 0.126-0.454 0.142-0.46 0.072-0.301 0.126-0.473 0.161-0.515 0.109-0.392 0.188-0.593 0.24-0.606l0.011 0.048-0.079 0.205c-0.139 0.615-0.279 1.1-0.421 1.457l0.041 0.177 0.026-0.006c0.343-0.739 0.838-2.201 1.483-4.387 0.018-0.192 0.111-0.342 0.275-0.447l-0.037-0.039-0.005-0.020c0.074-0.017 0.126-0.046 0.155-0.087-0.004-0.017-0.068-0.041-0.194-0.074l0.321-1.377c0.070-0.063 0.111-0.096 0.124-0.096l0.006 0.070c-0.017 0.002-0.043 0.011-0.072 0.031l0.061 0.087c0.111-0.12 0.231-0.223 0.362-0.31 0.066 0.018 0.1 0.041 0.103 0.063l0.048-0.004c0.366-0.268 0.724-0.46 1.076-0.576l0.004 0.046c-0.065 0.098-0.109 0.148-0.133 0.149 0.004 0.033 0.013 0.063 0.029 0.089 0.006 0.061-0.153 0.467-0.478 1.22-0.742 1.745-1.364 3.035-1.87 3.874 0.002 0.017 0.013 0.039 0.033 0.068 0.124-0.029 0.203-0.061 0.234-0.090l0.022-0.002 0.004 0.046 0.052-0.004 0.046-0.024c0.002 0.013 0.018 0.018 0.050 0.017l0.004 0.050c0.004 0.044-0.022 0.114-0.079 0.21-0.053 0.057-0.109 0.177-0.168 0.36l0.002 0.024 0.048-0.004c0.201-0.225 0.354-0.447 0.46-0.665 0.589-0.174 1.038-0.342 1.348-0.508 0.316-0.028 0.554-0.109 0.716-0.246l-0.002-0.024-0.12 0.035-0.026 0.002-0.002-0.024c0.229-0.033 0.39-0.085 0.476-0.153 0.447-0.343 0.785-0.589 1.014-0.733 0.713-0.519 1.045-1.017 1.004-1.496zM18.747 15.043l0.017 0.187c-0.022 0.046-0.046 0.070-0.068 0.072l-0.028-0.318c0.052 0.018 0.078 0.037 0.079 0.059zM4.767 13.54l-0.031 0.002-0.006-0.057 0.127-0.011 0.002 0.030c-0.020 0.002-0.052 0.013-0.092 0.037zM4.144 19.764c-0.074-0.033-0.14-0.046-0.198-0.041l-0.007-0.090c-0.004-0.035 0.017-0.059 0.061-0.068 0.041-0.004 0.065 0.026 0.068 0.085 0.107-0.131 0.166-0.198 0.177-0.199l0.068 0.028c-0.022 0.185-0.079 0.279-0.17 0.286zM10.793 12.809c-0.031 0.004-0.094-0.094-0.185-0.288l-0.006-0.057c0.059-0.006 0.12 0.091 0.185 0.288l0.006 0.057zM10.705 12.12l-0.026 0.061-0.903-0.377c0.602 0.020 0.912 0.126 0.929 0.316zM6.892 15.394l-0.127 0.011-0.006-0.057 0.127-0.011 0.006 0.057zM6.788 13.427l0.031-0.002 0.007 0.091c-0.030 0.002-0.068 0.046-0.116 0.131l-0.006-0.063c0.057-0.068 0.087-0.12 0.083-0.157zM6.521 14.059l0.011 0.12-0.031 0.002-0.011-0.12 0.031-0.002zM6.38 14.284l0.061-0.005c-0.006 0.1-0.033 0.153-0.083 0.157l-0.031 0.002c0.039-0.066 0.057-0.118 0.054-0.153zM6.275 14.598l0.035-0.004 0.002 0.030-0.057 0.096-0.061 0.006-0.002-0.030c0.061-0.005 0.089-0.037 0.083-0.098zM6.172 14.88l-0.018 0.152-0.031 0.002-0.013-0.149 0.063-0.004zM5.136 17.826c-0.041 0.207-0.085 0.312-0.131 0.316l-0.002-0.029c-0.011-0.102 0.033-0.198 0.133-0.286zM4.946 18.237l0.002 0.029c0.004 0.041-0.015 0.065-0.055 0.067l-0.002-0.029c-0.004-0.035 0.015-0.057 0.055-0.067zM4.89 19.092l0.096-0.009 0.004 0.033c-0.024 0.002-0.055 0.015-0.094 0.037l-0.061 0.006c-0.004-0.031 0.017-0.055 0.055-0.067zM7.623 18.248c-0.539 0.266-0.857 0.447-0.951 0.541-0.583 0.203-0.873 0.329-0.868 0.378-0.519 0.205-0.86 0.356-1.025 0.451-0.039 0.004-0.094-0.011-0.168-0.044-0.009-0.105 0.039-0.19 0.14-0.259 0.090-0.007 0.177 0.006 0.26 0.041 0.096-0.050 0.264-0.105 0.502-0.164l-0.006-0.063-0.192 0.017c0.024-0.033 0.209-0.12 0.556-0.26l0.096-0.009 0.002 0.029c-0.164 0.015-0.255 0.063-0.275 0.15 0.004 0.039 0.026 0.055 0.066 0.052 0.124-0.078 0.185-0.124 0.183-0.137 0.234-0.044 0.883-0.384 1.944-1.017l0.006 0.057c0.002 0.028-0.089 0.105-0.271 0.238zM5.994 18.784c0.155-0.013 0.288-0.076 0.399-0.185 0.044-0.004 0.068 0.013 0.070 0.052-0.076 0.007-0.222 0.070-0.434 0.192l-0.031 0.002-0.004-0.061zM8.622 16.766l-0.814 0.646c-0.606 0.397-0.931 0.596-0.979 0.6-0.964 0.53-1.564 0.805-1.797 0.825l-0.035 0.004c0.030-0.109 0.458-0.986 1.289-2.637 0.366-0.031 0.942-0.201 1.726-0.511l0.192-0.017c0.397-0.035 0.694 0.042 0.89 0.227l0.011 0.12c-0.146 0.423-0.308 0.67-0.484 0.742zM7.030 15.87l0.131-0.011 0.002 0.030-0.131 0.011-0.002-0.030zM8.871 15.558l0.096-0.009c0.089 0.043 0.135 0.079 0.138 0.113l0.002 0.030c-0.085 0.007-0.164-0.037-0.236-0.133zM9.131 14.075c-0.085 0.102-0.318 0.275-0.698 0.519-0.126 0.011-0.593 0.192-1.401 0.546-0.041-0.018-0.083-0.026-0.129-0.022l-0.006-0.057c-0.009-0.116 0.042-0.262 0.157-0.44 0.063-0.332 0.131-0.522 0.207-0.569l0.674-1.516c-0.007-0.094 0.137-0.166 0.432-0.216l0.096-0.009 0.007 0.087c0.29-0.044 0.471-0.070 0.541-0.076 0.535-0.046 0.814 0.063 0.836 0.323l0.061-0.005-0.013-0.153 0.066-0.006c0.157 0.087 0.242 0.192 0.253 0.316 0.007 0.085-0.039 0.19-0.137 0.316-0.041 0.004-0.065-0.026-0.068-0.085l-0.066 0.005-0.015 0.185c-0.271 0.406-0.469 0.615-0.591 0.626-0.111 0.153-0.179 0.229-0.207 0.231zM9.545 15.137c-0.055-0.037-0.1-0.053-0.133-0.052l-0.007-0.091 0.061-0.005 0.135 0.079c0.006 0.043-0.013 0.065-0.055 0.068zM9.973 15.645c0.059 0.024 0.094 0.050 0.102 0.074l-0.030 0.007 0.002 0.002c-0.006 0-0.013 0.002-0.018 0.004l-0.044 0.035-0.011-0.122zM10.014 15.9l-0.006-0.024 0.078-0.018 0.006 0.024-0.078 0.018zM10.2 16.108c0.079-0.013 0.118-0.018 0.266-0.052l0.006 0.024-0.281 0.065c0.004-0.013 0.007-0.026 0.009-0.037zM10.474 16.225c-0.118 0.011-0.092-0.004-0.281 0.039l-0.006-0.024 0.236-0.076 0.113-0.026 0.011 0.044c-0.052 0.011-0.015 0.011-0.074 0.043zM10.723 16.166c-0.028 0.007-0.050-0.006-0.063-0.037l0.072-0.017c0.031-0.007 0.052 0.006 0.059 0.037l-0.068 0.017zM11.399 15.438l-0.006-0.024 0.116-0.028 0.011 0.044-0.122 0.007zM12.121 19.866c0.007-0.033 0.009-0.057 0.006-0.074l0.026-0.006c0.031-0.007 0.050 0.004 0.057 0.033l0.006 0.024-0.094 0.022zM12.627 15.628l-0.052-0.009c-0.083 0.033-0.153 0.057-0.211 0.070l-0.048 0.011c-0.028 0.007-0.050-0.004-0.061-0.033l0.338-0.078 0.111-0.052 0.037 0.043c-0.053 0.011-0.092 0.028-0.114 0.048zM12.887 15.545l-0.005-0.024c0.017-0.004 0.039-0.017 0.063-0.041l0.24-0.055 0.005 0.024c-0.127 0.031-0.229 0.063-0.303 0.096zM12.924 15.060c-0.017 0.004-0.039 0.018-0.066 0.041-0.004-0.017-0.037-0.017-0.1-0.002-0.011-0.046 0.166-0.111 0.534-0.196l0.052-0.011 0.011 0.044c-0.258 0.076-0.402 0.118-0.43 0.124zM13.57 14.362c-0.026 0.293-0.129 0.46-0.312 0.502l-0.005-0.024-0.162 0.063-0.072 0.017c-0.037 0.009-0.070 0.007-0.1-0.002l-0.015-0.065c-0.005-0.024 0.229-0.349 0.705-0.973l0.056 0.009c0.020 0.085-0.011 0.242-0.094 0.473zM14.713 13.383l-0.022 0.002-0.004-0.046 0.096-0.009 0.002 0.024c-0.017 0.004-0.041 0.013-0.072 0.030zM14.242 18.112c-0.055-0.026-0.105-0.037-0.148-0.033l-0.005-0.070c-0.002-0.024 0.013-0.041 0.044-0.050 0.031-0.004 0.050 0.018 0.054 0.066 0.079-0.102 0.124-0.153 0.133-0.153l0.050 0.020c-0.018 0.14-0.061 0.214-0.127 0.22zM19.29 12.831c-0.024 0.002-0.070-0.072-0.142-0.222l-0.004-0.046c0.046-0.004 0.094 0.068 0.142 0.216l0.004 0.052zM19.224 12.303l-0.022 0.048-0.683-0.286c0.456 0.015 0.692 0.094 0.705 0.238zM16.327 14.79l-0.096 0.009-0.004-0.046 0.096-0.009 0.004 0.046zM16.247 13.296l0.026-0.002 0.006 0.070c-0.024 0.002-0.053 0.035-0.089 0.1l-0.004-0.046c0.043-0.054 0.063-0.094 0.061-0.122zM16.046 13.776l0.007 0.091-0.026 0.002-0.008-0.091 0.026-0.002zM15.937 13.948l0.048-0.004c-0.005 0.078-0.026 0.118-0.061 0.122l-0.026 0.002c0.028-0.052 0.041-0.092 0.039-0.12zM15.86 14.184l0.022-0.002 0.002 0.024-0.042 0.074-0.048 0.004-0.002-0.024c0.050-0.004 0.072-0.030 0.068-0.076zM15.782 14.399l-0.017 0.118-0.022 0.002-0.009-0.116 0.048-0.004zM14.994 16.638c-0.031 0.155-0.065 0.235-0.1 0.238l-0.002-0.020c-0.005-0.078 0.028-0.151 0.102-0.218zM14.848 16.95l0.002 0.020c0.004 0.033-0.011 0.052-0.044 0.054l-0.002-0.024c-0.002-0.024 0.013-0.041 0.044-0.050zM14.807 17.6l0.074-0.006 0.002 0.024c-0.017 0.002-0.043 0.011-0.072 0.028l-0.048 0.004c-0.002-0.026 0.013-0.043 0.044-0.050zM16.881 16.96c-0.406 0.201-0.648 0.338-0.724 0.408-0.443 0.155-0.663 0.251-0.659 0.29-0.393 0.157-0.652 0.27-0.774 0.342-0.030 0.002-0.072-0.009-0.127-0.035-0.007-0.079 0.030-0.144 0.107-0.192 0.070-0.006 0.137 0.004 0.197 0.029 0.074-0.037 0.201-0.078 0.382-0.124l-0.004-0.046-0.149 0.013c0.018-0.026 0.161-0.092 0.425-0.2l0.074-0.006 0.002 0.020c-0.126 0.011-0.196 0.048-0.21 0.114 0.002 0.030 0.020 0.044 0.052 0.041 0.092-0.061 0.137-0.096 0.137-0.107 0.177-0.032 0.668-0.29 1.475-0.774l0.004 0.046c0 0.018-0.068 0.078-0.207 0.179zM15.644 17.366c0.12-0.011 0.222-0.057 0.306-0.139 0.031-0.002 0.050 0.011 0.052 0.041-0.055 0.006-0.164 0.052-0.329 0.14l-0.026 0.002-0.004-0.044zM17.641 15.831l-0.615 0.495c-0.46 0.301-0.709 0.452-0.748 0.456-0.731 0.403-1.185 0.611-1.364 0.626l-0.026 0.002c0.022-0.083 0.349-0.75 0.98-2.002 0.275-0.024 0.711-0.155 1.309-0.392l0.149-0.013c0.301-0.026 0.526 0.033 0.674 0.175l0.007 0.091c-0.113 0.318-0.235 0.504-0.367 0.561zM16.434 15.152l0.096-0.009 0.002 0.024-0.096 0.009-0.002-0.024zM17.832 14.914l0.074-0.005c0.068 0.033 0.103 0.063 0.105 0.087l0.002 0.020c-0.065 0.005-0.125-0.028-0.181-0.102zM18.026 13.789c-0.065 0.078-0.24 0.21-0.526 0.395-0.096 0.009-0.451 0.146-1.064 0.412-0.029-0.011-0.063-0.015-0.098-0.013l-0.004-0.046c-0.008-0.089 0.031-0.199 0.116-0.334 0.048-0.255 0.102-0.397 0.157-0.43l0.515-1.152c-0.006-0.068 0.103-0.124 0.325-0.166l0.074-0.006 0.006 0.070c0.218-0.035 0.355-0.055 0.41-0.061 0.406-0.035 0.619 0.046 0.635 0.246l0.048-0.004-0.009-0.111 0.048-0.004c0.118 0.065 0.181 0.142 0.188 0.235 0.006 0.066-0.028 0.148-0.098 0.242-0.031 0.004-0.050-0.018-0.053-0.066l-0.048 0.004-0.015 0.138c-0.205 0.312-0.355 0.473-0.449 0.48-0.083 0.113-0.135 0.17-0.159 0.172zM18.241 14.557l-0.006-0.070 0.048-0.004 0.103 0.063c0.002 0.030-0.013 0.046-0.044 0.050-0.044-0.028-0.078-0.041-0.102-0.039zM9.647 19.042l-0.048 0.011-0.041 0.035c0.007 0.029 0.026 0.041 0.057 0.033s0.044-0.026 0.037-0.055l-0.006-0.024zM9.464 18.678l0.006 0.024c0.031-0.007 0.044-0.026 0.037-0.055l-0.006-0.024c-0.030 0.007-0.042 0.026-0.037 0.055zM10.771 16.223l0.035-0.022c-0.007 0-0.013-0.002-0.018-0.004-0.013 0.004-0.018 0.013-0.017 0.026zM10.764 15.586l0.055-0.013-0.011-0.048-0.055 0.013 0.011 0.048zM23.812 17.451l-0.125-0.015-0.022 0.048 0.002 0.024 0.748-0.063-0.004-0.046-0.598 0.052zM24.495 17.393l0.004 0.046h0.007l-0.004-0.046h-0.007zM27.632 16.984l0.004 0.046 0.081 0.015-0.004-0.046-0.081-0.015zM27.518 16.993c-0.561 0.126-0.631 0.104-0.75 0.113l0.004 0.046 0.052-0.004 0.028-0.002-0.007-0.006 0.061-0.024c0.556-0.061 0.62-0.039 0.615-0.102l-0.002-0.022zM24.148 16.177l-0.050-0.017c-0.041 0.109-0.061 0.174-0.059 0.192l0.002 0.020c0.039-0.002 0.074-0.068 0.107-0.196zM23.472 15.813l-0.002-0.024-0.026 0.002-0.046 0.030 0.026 0.044c0.035-0.004 0.052-0.020 0.048-0.052zM24.94 17.331l-0.004-0.046-0.015 0.002 0.004 0.046 0.015-0.002zM27.987 16.644l0.035-0.004c0.020-0.002 0.030-0.018 0.028-0.048l-0.020-0.044c-0.127 0.011-0.186 0.017-0.29 0.074l-0.002-0.024-0.153 0.015c-0.004-0.046-0.017-0.070-0.037-0.068l-0.079 0.007c-0.092 0.007-0.137 0.004-0.183 0.039-0.002-0.017-0.007-0.024-0.017-0.024l-0.089 0.007-0.052 0.030c-0.002-0.017-0.007-0.024-0.017-0.024l-0.031 0.028-0.002-0.024-0.124-0.009-0.030 0.002 0.004 0.046 0.063 0.017 0.059-0.004c0.020 0.013 0.042 0.017 0.068 0.015l0.052-0.026 0.002 0.020c-0.29 0.072-0.288 0.059-0.488 0.092-0.022-0.015-0.039-0.022-0.050-0.020l-0.004 0.004c-0.022-0.002-0.035-0.017-0.037-0.041l0.103-0.013c0.008 0 0.013 0.007 0.070 0.018 0.083-0.041 0.087-0.057 0.131-0.061l-0.004-0.046c-0.284 0.055-0.17 0.018-0.526 0.050l-0.017 0.002-0.004-0.046c0.458-0.055 0.305-0.024 0.462-0.068 0.002 0.017 0.008 0.024 0.017 0.024 0.018-0.018 0.039-0.028 0.063-0.031l0.031-0.002c0.161-0.013 0.214 0.018 0.532-0.070l0.002 0.020 0.052-0.026 0.048-0.004c-0.004-0.046 0.067-0.054 0.090-0.055l-0.004-0.050c-0.558 0.113-0.703 0.081-0.858 0.125l-0.002-0.020c-0.146 0.026-0.151 0.015-0.188 0.017-0.011 0.002-0.028 0.011-0.046 0.029-0.002-0.017-0.007-0.024-0.018-0.024-0.006 0-0.008 0.002-0.009 0.002l-0.473 0.078c-0.002-0.013-0.007-0.020-0.018-0.018-0.246 0.052-0.179 0.061-0.508 0.090-0.015 0.002-0.035 0.009-0.061 0.026-0.002-0.013-0.009-0.020-0.026-0.018l-0.201 0.017-0.135 0.033c-0.002-0.013-0.009-0.020-0.026-0.018-0.076 0.020-0.142 0.033-0.196 0.037h-0.004c-0.033 0.004 0.017-0.009-0.009-0.020l-0.041 0.024c-0.059 0.006-0.028-0.004-0.231-0.002-0.356 0.044-0.318 0.050-0.356 0.052l-0.133-0.009c0.002 0.013-0.006 0.022-0.020 0.022-0.151-0.020-0.229-0.044-0.231-0.072 0.020-0.144 0.055-0.218 0.105-0.221l0.026-0.002-0.022 0.048 0.026-0.002c0.048-0.026 0.070-0.050 0.068-0.072l-0.004-0.050-0.048 0.004-0.004-0.046c-0.004-0.035 0.002-0.067 0.015-0.092l0.109-0.175 0.004 0.046 0.052-0.004-0.004-0.046-0.029-0.042c0.039-0.033 0.068-0.052 0.092-0.054l-0.002-0.024-0.070 0.006-0.006-0.070c0.14-0.292 0.207-0.461 0.203-0.509l0.050 0.020c0.031-0.002 0.046-0.020 0.044-0.053l-0.048 0.004-0.002-0.020c-0.004-0.035 0.004-0.068 0.018-0.098 0.076-0.079 0.111-0.159 0.103-0.242 0.015-0.002 0.022 0.005 0.024 0.022 0.064-0.037 0.114-0.135 0.151-0.297 0.114-0.207 0.277-0.62 0.489-1.239 0.406-1.093 0.39-1.209 0.447-1.468l-0.048 0.004c0.004 0.033-0.004 0.065-0.018 0.094-0.033-0.013-0.059-0.020-0.078-0.018l-0.002-0.020c-0.007-0.094 0.031-0.207 0.12-0.34l0.022-0.002 0.041 0.159 0.048-0.004c-0.002-0.011 0.011-0.074 0.037-0.19-0.002-0.024-0.020-0.039-0.057-0.041l-0.046 0.030c-0.004-0.033-0.002-0.12 0.004-0.258l-0.024 0.002c-0.041-0.041-0.061-0.074-0.063-0.102l-0.264 0.026c-0.002-0.018-0.011-0.046-0.029-0.081-0.002-0.024 0.057-0.048 0.179-0.072l0.053 0.020 0.050-0.030c0.002 0.017 0.011 0.024 0.029 0.022l0.050-0.030c0.002 0.017 0.011 0.024 0.030 0.022l0.024-0.002-0.004-0.054c-0.037 0.004-0.135 0.004-0.29-0.002l-0.050 0.033-0.002-0.030c-1.239 0.102-1.942 0.159-2.11 0.175-0.022 0.002-0.109 0-0.262-0.004 0.002 0.020-0.017 0.031-0.054 0.035l-0.053-0.024-0.181 0.046c-0.042 0.004-0.114 0.002-0.214-0.009-0.028 0.022-0.061 0.035-0.102 0.039-0.022 0.002 0.264-0.015 0.53-0.033-0.028 0.022-0.070 0.035-0.129 0.041-0.041 0.004-0.076-0.002-0.105-0.018-0.041 0.018-0.172 0.048-0.392 0.092l-0.053-0.020-0.864 0.133c-0.033-0.017-0.072-0.022-0.116-0.018-0.046 0.004-0.124 0.020-0.231 0.050l-0.417 0.174 0.031 0.052c0.020-0.002 0.050-0.013 0.085-0.033l0.148 0.013-0.018 0.139c-0.137 0.061-0.216 0.151-0.238 0.266-0.205 0.090-0.306 0.155-0.306 0.194l0.002 0.024 0.031-0.002 0.055-0.030 0.065 0.078 0.009 0.107c0.004 0.033-0.342 0.759-1.032 2.177-0.598 1.366-0.912 2.114-0.942 2.249-0.205 0.057-0.323 0.14-0.358 0.251 0.004 0.035 0.065 0.059 0.183 0.068l0.006 0.053-0.054 0.089 0.009 0.107c0.006 0.055 0.155 0.098 0.449 0.127-0.002-0.018 0.007-0.029 0.028-0.031 0.006 0.067-0.013 0.196-0.055 0.388l0.031-0.002c0.122-0.166 0.179-0.281 0.174-0.343l0.026-0.002c0.030-0.002 0.061 0.031 0.098 0.103-0.037 0.015-0.166 0.308-0.388 0.883l0.031 0.052 0.031-0.002c0.271-0.687 0.441-1.067 0.512-1.139 0.356-0.032 0.973-0.094 1.848-0.188l0.055-0.033c0.002 0.018 0.013 0.028 0.033 0.026l0.057-0.006 0.055-0.033c0.002 0.018 0.013 0.028 0.033 0.026l0.663-0.057c0.175-0.015 0.259-0.068 0.251-0.159-0.002-0.024 0.102-0.052 0.31-0.081 0.020-0.002 0.050 0.004 0.090 0.017-0.002-0.017 0.103-0.033 0.314-0.052 0.006-0.111 0.041-0.17 0.103-0.175l-0.006-0.053c-0.059 0.006-0.126 0.020-0.203 0.046-0.139-0.007-0.227-0.018-0.264-0.031-0.037 0.020-0.065 0.031-0.085 0.033l-0.462 0.015-0.055 0.030c-0.002-0.017-0.013-0.024-0.033-0.022l-0.026 0.002-0.059 0.029c-0.002-0.017-0.050-0.029-0.146-0.042l-0.059 0.035-0.114 0.009-0.002-0.029c0.595-0.065 0.888-0.146 0.881-0.242 0.039-0.004 0.059 0.015 0.063 0.053l0.174-0.044-0.006-0.054-1.424 0.039c0.002 0.018-0.007 0.029-0.028 0.031l-0.174-0.015c-0.044 0.004-0.081 0.017-0.111 0.039l-0.065-0.024c-0.179 0.015-0.312 0.037-0.401 0.065-0.122-0.009-0.257-0.007-0.406 0.006l-0.319 0.028-0.148-0.017c-0.007-0.094 0.175-0.558 0.552-1.389 0.109-0.281 0.209-0.456 0.305-0.523 0.020-0.002 0.050 0.005 0.090 0.022l0.227-0.078 0.116 0.018c0.196-0.017 0.423-0.072 0.683-0.168 0.065-0.005 0.113-0.002 0.148 0.013l0.174-0.041 0.517-0.044c0.22-0.018 0.458-0.066 0.716-0.146l-0.006-0.053c-0.096 0.009-0.146-0.007-0.149-0.046-0.006-0.072-0.076-0.101-0.21-0.090l-0.006-0.054 0.142-0.041 0.373-0.031-0.006-0.053c-0.015 0.002-0.090 0-0.231-0.006l-0.006-0.057 0.144-0.013c0.039-0.004 0.055-0.022 0.052-0.059-0.194 0.006-0.292-0.004-0.294-0.030-1.352 0.066-2.029 0.079-2.033 0.037-0.020 0.002-0.048 0.015-0.085 0.037l-0.035-0.055c0.358-0.761 0.569-1.145 0.63-1.15 0.002 0.030-0.013 0.078-0.044 0.142l0.002 0.024 0.057-0.005c0.142-0.34 0.262-0.515 0.362-0.523 0.425-0.037-0.059-0.065 0.849-0.207 0.037 0.017 0.063 0.024 0.081 0.022 0.356-0.072 0.853-0.148 1.49-0.225l-0.004-0.054-0.34 0.031-0.004-0.054c0.041-0.004 0.074-0.017 0.102-0.039l0.002 0.030c0.018-0.002 0.044-0.015 0.078-0.037 0.059-0.006 0.103 0 0.135 0.017 0.118-0.031 0.214-0.050 0.284-0.057l0.212-0.020c0.052-0.033 0.076-0.063 0.074-0.090l-0.002-0.024c-0.053 0.006-0.114 0.002-0.186-0.011-0.002-0.030 0.013-0.050 0.048-0.059l0.395-0.037 0.181-0.046c0.002 0.020 0.011 0.028 0.026 0.028 0.018-0.002 0.044-0.015 0.078-0.037 0.009 0.002 0.020 0.002 0.030 0.004-0.024 0.050-0.052 0.122-0.079 0.216l-0.052 0.004c-0.004-0.035-0.013-0.066-0.029-0.094l-0.026 0.002c-0.48 1.337-0.694 1.959-1.137 2.986-0.081 0.262-0.15 0.408-0.209 0.439 0.002 0.030 0.020 0.044 0.052 0.041 0.011 0.129-0.018 0.257-0.090 0.382-0.205 0.591-0.341 0.914-0.412 0.973l0.046 0.279c0.002 0.029-0.013 0.046-0.044 0.050l-0.048 0.004c-0.007-0.078-0.035-0.114-0.085-0.109l-0.026 0.002c-0.063 0.098-0.111 0.21-0.142 0.342l0.048-0.004c0.065-0.042 0.094-0.092 0.089-0.149l0.096-0.009 0.055 0.020c-0.044 0.070-0.065 0.126-0.061 0.168l0.026 0.044-0.063 0.148 0.002 0.024c0.055-0.006 0.116 0.013 0.181 0.052 0.044-0.004 0.092-0.024 0.146-0.059 0.055-0.006 0.262-0.007 0.619-0.007l0.179-0.061c0.218-0.002 0.253 0.004 0.441-0.013l0.078-0.007 0.041-0.028 0.002 0.024c0.198-0.017 0.21-0.004 0.366 0.015l0.002 0.024-0.109 0.009 0.004 0.046c0.033-0.004 0.063-0.013 0.087-0.033 0.028-0.002 0.044 0.013 0.046 0.046-0.044 0.004-0.094 0.015-0.15 0.033l-0.048-0.017c-0.076 0.020-0.059 0.026-0.111 0.029l-0.076-0.015c0.002 0.013-0.006 0.022-0.018 0.022 0.002 0.030 0.018 0.044 0.046 0.043l0.078-0.007 0.404-0.035 0.153-0.033c0.002 0.013 0.007 0.020 0.020 0.018l0.074-0.028 0.139-0.011c0.107-0.009 0.105-0.017 0.338-0.053-0.002-0.015 0.004-0.020 0.015-0.022l0.002 0.020c0.378-0.065 0.402-0.068 0.463-0.089l0.006 0.011c0.094-0.022 0.041-0.017 0.067-0.035 0.002 0.017 0.007 0.024 0.017 0.024l0.067-0.006-0.004-0.050-0.135-0.002-0.002-0.004c-0.006 0.002-0.009 0.002-0.015 0.004h-0.018v0.004c-0.090 0.018-0.092 0.006-0.151 0.011l-0.338 0.018-0.002-0.024 0.188-0.026 0.068-0.006 0.039-0.028 0.002 0.024c0.266-0.022 0.36 0.044 1.59-0.218 0.067-0.006 0.061-0.061 0.103-0.175-0.022 0.002-0.044-0.004-0.065-0.015-0.102 0.039-0.155 0.020-0.351 0.052-0.017 0.002-0.030-0.013-0.035-0.042l-0.002-0.020 0.188 0.006c0.035-0.004 0.103-0.009 0.205-0.066 0 0.017-0.039 0.026-0.017 0.024zM18.895 16.79l-0.087 0.007c-0.004-0.035 0.042-0.168 0.139-0.395l0.057-0.006c0.002 0.054-0.033 0.185-0.109 0.393zM19 16.369l-0.002-0.024c-0.002-0.030 0.017-0.050 0.057-0.059l0.002 0.024c0.002 0.035-0.017 0.055-0.057 0.059zM20.154 17.261l0.002 0.024-0.144 0.013-0.002-0.024 0.144-0.013zM19.981 17.246c0.002 0.029-0.042 0.063-0.138 0.096l-0.177-0.013-0.057 0.006-0.006-0.053 0.378-0.035zM21.148 11.875l-0.087 0.007-0.002-0.030c-0.002-0.030 0.015-0.050 0.052-0.059l0.031-0.002 0.059 0.024c0.002 0.035-0.015 0.055-0.053 0.059zM22.468 11.616l0.028-0.002 0.004 0.054-0.079 0.007c-0.002-0.030 0.013-0.050 0.048-0.059zM22.136 11.732l-0.131-0.015-0.002-0.024c0.172-0.015 0.229-0.033 0.334-0.063 0.002 0.020 0.020 0.028 0.054 0.024l0.004 0.054-0.052 0.006c-0.041 0.004-0.076-0.002-0.105-0.018-0.032 0.020-0.065 0.033-0.102 0.037zM22.3 12.211l-0.002-0.024 0.212-0.020 0.002 0.024-0.212 0.020zM22.527 12.026l-0.002-0.030 0.103-0.009 0.002 0.030-0.103 0.009zM22.551 11.664l-0.028 0.002 0.024-0.057 0.236-0.022 0.002 0.030c-0.061 0.006-0.14 0.022-0.235 0.048zM22.671 12.174l-0.004-0.054 0.103-0.009c0.035-0.004 0.054 0.013 0.055 0.050l-0.155 0.013zM23.297 11.321l-0.133 0.037-0.024 0.002c-0.063 0.006-0.144 0.004-0.24-0.006 0.172-0.011 0.336-0.024 0.397-0.033zM23.155 11.912l0.002 0.024-0.183 0.017-0.002-0.024 0.183-0.017zM23.454 12.054c-0.002-0.022-0.037-0.037-0.109-0.044l-0.183 0.052-0.14 0.006c-0.031-0.022-0.048-0.037-0.050-0.048l0.163 0.009 0.366-0.059 0.186 0.007 0.002 0.030c-0.092 0.009-0.17 0.026-0.235 0.048zM25.335 11.568c0.022 0.002 0.037 0.002 0.043 0.002 0.065-0.063 0.137-0.113 0.22-0.148-0.067 0.292-0.17 0.508-0.312 0.648l-0.104-0.063c0.087-0.22 0.139-0.366 0.153-0.439zM25.018 12.113l0.026-0.002c-0.035 0.066-0.067 0.102-0.092 0.103l-0.006-0.070c0.017 0 0.041-0.011 0.072-0.031zM24.813 12.602c0.050-0.199 0.098-0.312 0.142-0.342l0.002 0.024c-0.026 0.185-0.066 0.282-0.12 0.29l0.009 0.116c-0.044 0.063-0.065 0.111-0.063 0.148l-0.026 0.002-0.015-0.161c0.029-0.004 0.053-0.030 0.070-0.078zM24.733 12.868c0.002 0.028-0.017 0.092-0.053 0.192l-0.026 0.002-0.006-0.070c0.035-0.081 0.065-0.122 0.085-0.124zM23.243 17.192l-0.002-0.020 0.048-0.004 0.006 0.070c-0.026 0.002-0.044-0.013-0.052-0.046zM25.372 17.248c-0.002-0.017-0.009-0.024-0.026-0.022l-0.12 0.011-0.002-0.024h0.011l0.284-0.024 0.002 0.024c-0.083 0.004-0.133 0.017-0.149 0.035zM25.23 17.189c0.011 0.006 0.006 0.011 0 0.015-0.006-0.002-0.013-0.007 0-0.015zM25.245 16.856l-0.159 0.013-0.002-0.024 0.144-0.013 0.125-0.031c0.002 0.015 0.009 0.020 0.026 0.018 0.149-0.026 0.135-0.033 0.207-0.039 0.024-0.002 0.039 0.013 0.041 0.042l-0.382 0.033zM25.801 16.808c-0.089-0.009-0.094-0.017-0.157-0.011l-0.002-0.020 0.142-0.013 0.002 0.020c-0.015 0.002 0.039 0.006 0.015 0.024zM25.812 16.782l-0.002-0.020 0.078-0.007 0.002 0.020-0.078 0.007zM25.983 16.767l-0.002-0.020c0.013-0.002 0.031-0.011 0.055-0.029 0.039-0.004 0.059 0.022 0.063 0.052l-0.116-0.002zM26.203 16.74l-0.002-0.024 0.094-0.007 0.002 0.024-0.094 0.007zM26.334 16.729c-0.002-0.028 0.009-0.044 0.033-0.048l0.032 0.041c-0.002-0.013 0.004-0.020 0.015-0.022l0.024 0.044-0.103-0.015zM28.151 16.515l0.002-0.002v-0.002c0 0-0.002 0.002-0.002 0.004zM28.184 16.491c0.015-0.009 0.022-0.018-0.013-0.024-0.017 0.018 0.018 0.024-0.018 0.026l0.002 0.017c0.004-0.004 0.013-0.009 0.020-0.015l-0.020 0.017v0.002l-0.039 0.050 0.078-0.028h0.009l-0.004-0.046-0.015 0.002zM28.319 16.596l-0.015 0.002 0.004 0.046 0.109-0.009c-0.002-0.030-0.074-0.039-0.098-0.039z"></path>
</svg>
