<!-- Generated by IcoMoon.io -->
<svg version="1.1" xmlns="http://www.w3.org/2000/svg" width="32" height="32" viewBox="0 0 32 32">
<title>Blender-Light</title>
<path fill="#f4f2ed" d="M7.5 0h17c4.142 0 7.5 3.358 7.5 7.5v17c0 4.142-3.358 7.5-7.5 7.5h-17c-4.142 0-7.5-3.358-7.5-7.5v-17c0-4.142 3.358-7.5 7.5-7.5z"></path>
<path fill="#fff" d="M13.194 17.16c0.097-1.735 0.942-3.264 2.218-4.347 1.251-1.064 2.935-1.715 4.772-1.715 1.835 0 3.519 0.65 4.771 1.715 1.275 1.084 2.12 2.612 2.218 4.345 0.097 1.783-0.616 3.439-1.867 4.666-1.276 1.249-3.090 2.032-5.122 2.032s-3.85-0.784-5.125-2.032c-1.252-1.228-1.963-2.884-1.866-4.665v0z"></path>
<path fill="#265787" d="M16.598 17.316c0.050-0.89 0.483-1.675 1.138-2.231 0.642-0.546 1.506-0.88 2.449-0.88 0.942 0 1.806 0.334 2.448 0.88 0.654 0.556 1.088 1.34 1.138 2.23 0.050 0.915-0.316 1.765-0.958 2.395-0.655 0.641-1.585 1.043-2.628 1.043s-1.975-0.402-2.63-1.043c-0.642-0.63-1.007-1.48-0.957-2.393v0z"></path>
<path fill="#ea7600" d="M10.886 19.115c0.006 0.348 0.117 1.025 0.283 1.554 0.349 1.119 0.94 2.154 1.763 3.067 0.844 0.938 1.884 1.691 3.085 2.226 1.262 0.562 2.63 0.848 4.050 0.846 1.418-0.002 2.786-0.294 4.048-0.86 1.201-0.54 2.24-1.296 3.082-2.235 0.822-0.916 1.413-1.953 1.762-3.072 0.176-0.566 0.287-1.139 0.331-1.715 0.044-0.567 0.025-1.136-0.055-1.703-0.157-1.106-0.538-2.145-1.124-3.091-0.536-0.87-1.228-1.631-2.050-2.272l0.002-0.001-8.298-6.402c-0.008-0.006-0.014-0.012-0.021-0.017-0.544-0.42-1.46-0.419-2.059 0.002-0.605 0.426-0.675 1.129-0.136 1.573l-0.002 0.002 3.461 2.828-10.563 0.011c-0.872 0.001-1.71 0.576-1.876 1.302-0.171 0.74 0.422 1.354 1.328 1.357l-0.001 0.003 5.347-0.010-9.541 7.359c-0.012 0.009-0.025 0.018-0.037 0.027-0.9 0.692-1.191 1.844-0.624 2.573 0.575 0.741 1.799 0.742 2.708 0.004l5.207-4.282c0 0-0.076 0.578-0.070 0.925v0zM24.267 21.051c-1.073 1.098-2.575 1.721-4.2 1.724-1.628 0.003-3.13-0.614-4.203-1.711-0.524-0.534-0.909-1.149-1.147-1.804-0.233-0.644-0.323-1.327-0.263-2.016 0.057-0.674 0.256-1.316 0.575-1.898 0.313-0.572 0.744-1.088 1.276-1.525 1.043-0.854 2.371-1.316 3.759-1.318 1.39-0.002 2.717 0.456 3.761 1.307 0.531 0.435 0.962 0.95 1.275 1.52 0.32 0.581 0.518 1.221 0.577 1.897 0.059 0.688-0.031 1.37-0.264 2.014-0.238 0.657-0.622 1.271-1.146 1.808v0z"></path>
</svg>
