<!-- Generated by IcoMoon.io -->
<svg version="1.1" xmlns="http://www.w3.org/2000/svg" width="32" height="32" viewBox="0 0 32 32">
<title>CPP</title>
<path fill="#00599c" d="M7.5 0h17c4.142 0 7.5 3.358 7.5 7.5v17c0 4.142-3.358 7.5-7.5 7.5h-17c-4.142 0-7.5-3.358-7.5-7.5v-17c0-4.142 3.358-7.5 7.5-7.5z"></path>
<path fill="#fff" d="M13.845 26.315c-5.704 0-10.345-4.641-10.345-10.345s4.641-10.345 10.345-10.345c3.681 0 7.114 1.981 8.959 5.169l-4.477 2.591c-0.923-1.596-2.641-2.587-4.482-2.587-2.852 0-5.172 2.32-5.172 5.172s2.32 5.172 5.172 5.172c1.841 0 3.558-0.991 4.482-2.588l4.477 2.591c-1.845 3.189-5.278 5.169-8.959 5.169z"></path>
<path fill="#fff" d="M24.19 15.395h-1.149v-1.149h-1.149v1.149h-1.149v1.149h1.149v1.149h1.149v-1.149h1.149v-1.149z"></path>
<path fill="#fff" d="M28.5 15.395h-1.149v-1.149h-1.149v1.149h-1.149v1.149h1.149v1.149h1.149v-1.149h1.149v-1.149z"></path>
</svg>
