<!-- Generated by IcoMoon.io -->
<svg version="1.1" xmlns="http://www.w3.org/2000/svg" width="32" height="32" viewBox="0 0 32 32">
<title>CS</title>
<path fill="#953cad" d="M7.5 0h17c4.142 0 7.5 3.358 7.5 7.5v17c0 4.142-3.358 7.5-7.5 7.5h-17c-4.142 0-7.5-3.358-7.5-7.5v-17c0-4.142 3.358-7.5 7.5-7.5z"></path>
<path fill="#fff" d="M24.43 12.584v1.684h1.684v-1.684h0.842v1.684h1.684v0.842h-1.684v1.684h1.684v0.842h-1.684v1.684h-0.842v-1.684h-1.684v1.684h-0.842v-1.684h-1.684v-0.842h1.684v-1.684h-1.684v-0.842h1.684v-1.684h0.842zM26.114 15.11h-1.684v1.684h1.684v-1.684z"></path>
<path fill="#fff" d="M15.25 4.125c4.393 0 8.228 2.386 10.283 5.932l-0.020-0.034-5.169 2.976c-1.018-1.724-2.885-2.888-5.027-2.912l-0.067-0c-3.266 0-5.913 2.647-5.913 5.913 0 1.068 0.285 2.069 0.78 2.934 1.019 1.779 2.935 2.98 5.133 2.98 2.212 0 4.139-1.215 5.153-3.014l-0.025 0.043 5.161 2.99c-2.032 3.516-5.815 5.895-10.156 5.942l-0.132 0.001c-4.407 0-8.253-2.401-10.302-5.965-1-1.74-1.573-3.758-1.573-5.91 0-6.558 5.317-11.875 11.875-11.875z"></path>
</svg>
