<!-- Generated by IcoMoon.io -->
<svg version="1.1" xmlns="http://www.w3.org/2000/svg" width="32" height="32" viewBox="0 0 32 32">
<title>CSS</title>
<path fill="#0277bd" d="M7.5 0h17c4.142 0 7.5 3.358 7.5 7.5v17c0 4.142-3.358 7.5-7.5 7.5h-17c-4.142 0-7.5-3.358-7.5-7.5v-17c0-4.142 3.358-7.5 7.5-7.5z"></path>
<path fill="#ebebeb" d="M6.719 12.831l0.358 3.993h8.935v-3.993h-9.293z"></path>
<path fill="#ebebeb" d="M16.012 4.75h-10.012l0.363 3.993h9.649v-3.993z"></path>
<path fill="#ebebeb" d="M16.012 27.355v-4.154l-0.018 0.005-4.447-1.201-0.284-3.184h-4.008l0.559 6.269 8.179 2.27 0.018-0.005z"></path>
<path fill="#fff" d="M20.915 16.824l-0.463 5.178-4.453 1.202v4.154l8.185-2.268 0.060-0.675 0.938-10.511 0.097-1.072 0.721-8.081h-10.002v3.993h5.626l-0.363 4.089h-5.263v3.993h4.917z"></path>
</svg>
