<!-- Generated by IcoMoon.io -->
<svg version="1.1" xmlns="http://www.w3.org/2000/svg" width="32" height="32" viewBox="0 0 32 32">
<title>ExpressJS</title>
<path fill="#f4f2ed" d="M7.5 0h17c4.142 0 7.5 3.358 7.5 7.5v17c0 4.142-3.358 7.5-7.5 7.5h-17c-4.142 0-7.5-3.358-7.5-7.5v-17c0-4.142 3.358-7.5 7.5-7.5z"></path>
<path fill="#0f0f0f" d="M28.5 22.867c-0.364 0.138-0.766 0.137-1.129-0.001s-0.664-0.405-0.845-0.75c-1.133-1.696-2.384-3.315-3.586-4.969l-0.521-0.695c-1.432 1.918-2.864 3.76-4.17 5.671-0.17 0.329-0.454 0.586-0.8 0.721s-0.728 0.141-1.077 0.015l5.372-7.207-4.997-6.512c0.36-0.13 0.753-0.132 1.114-0.005s0.667 0.374 0.867 0.7c1.161 1.696 2.447 3.315 3.725 5.032 1.286-1.703 2.558-3.329 3.746-5.011 0.171-0.324 0.456-0.574 0.799-0.702s0.722-0.126 1.064 0.007l-1.939 2.572c-0.869 1.147-1.724 2.3-2.627 3.419-0.073 0.065-0.131 0.145-0.171 0.234s-0.061 0.186-0.061 0.284c0 0.098 0.021 0.194 0.061 0.284s0.098 0.169 0.171 0.234c1.661 2.203 3.308 4.413 5.004 6.679v0z"></path>
<path fill="#0f0f0f" d="M3.5 15.563c0.146-0.695 0.236-1.453 0.438-2.162 1.202-4.274 6.102-6.054 9.473-3.406 1.974 1.55 2.467 3.746 2.37 6.22h-11.12c-0.181 4.42 3.009 7.089 7.089 5.727 0.662-0.237 1.254-0.634 1.724-1.157s0.802-1.155 0.966-1.838c0.216-0.695 0.563-0.813 1.223-0.612-0.109 0.846-0.408 1.657-0.875 2.37s-1.090 1.313-1.822 1.751c-1.209 0.661-2.596 0.923-3.963 0.748s-2.644-0.777-3.647-1.721c-0.993-1.117-1.594-2.527-1.71-4.017 0-0.236-0.090-0.473-0.139-0.695-0.005-0.412-0.007-0.816-0.007-1.209zM4.675 15.264h10.057c-0.063-3.204-2.085-5.477-4.782-5.498-3.002-0.042-5.15 2.182-5.282 5.484l0.007 0.014z"></path>
</svg>
