<!-- Generated by IcoMoon.io -->
<svg version="1.1" xmlns="http://www.w3.org/2000/svg" width="32" height="32" viewBox="0 0 32 32">
<title>Figma</title>
<path fill="#242938" d="M7.5 0h17c4.142 0 7.5 3.358 7.5 7.5v17c0 4.142-3.358 7.5-7.5 7.5h-17c-4.142 0-7.5-3.358-7.5-7.5v-17c0-4.142 3.358-7.5 7.5-7.5z"></path>
<path fill="#0acf83" d="M11.793 28.5c2.3 0 4.167-1.867 4.167-4.167v-4.167h-4.167c-2.3 0-4.167 1.867-4.167 4.167s1.867 4.167 4.167 4.167z"></path>
<path fill="#a259ff" d="M7.627 16c0-2.3 1.867-4.167 4.167-4.167h4.167v8.333h-4.167c-2.3 0-4.167-1.867-4.167-4.167z"></path>
<path fill="#f24e1e" d="M7.627 7.667c0-2.3 1.867-4.167 4.167-4.167h4.167v8.333h-4.167c-2.3 0-4.167-1.867-4.167-4.167z"></path>
<path fill="#ff7262" d="M15.96 3.5h4.167c2.3 0 4.167 1.867 4.167 4.167s-1.867 4.167-4.167 4.167h-4.167v-8.333z"></path>
<path fill="#1abcfe" d="M24.293 16c0 2.3-1.867 4.167-4.167 4.167s-4.167-1.867-4.167-4.167c0-2.3 1.867-4.167 4.167-4.167s4.167 1.867 4.167 4.167z"></path>
</svg>
