<!-- Generated by IcoMoon.io -->
<svg version="1.1" xmlns="http://www.w3.org/2000/svg" width="32" height="32" viewBox="0 0 32 32">
<title>Git</title>
<path fill="#f03c2e" d="M7.5 0h17c4.142 0 7.5 3.358 7.5 7.5v17c0 4.142-3.358 7.5-7.5 7.5h-17c-4.142 0-7.5-3.358-7.5-7.5v-17c0-4.142 3.358-7.5 7.5-7.5z"></path>
<path fill="#fff" d="M28.028 14.887l-10.915-10.915c-0.149-0.15-0.327-0.268-0.522-0.349s-0.405-0.123-0.616-0.123-0.421 0.042-0.616 0.123c-0.195 0.081-0.373 0.2-0.522 0.349l-2.266 2.266 2.875 2.875c0.669-0.234 1.434-0.074 1.967 0.459 0.254 0.254 0.431 0.574 0.511 0.924s0.061 0.715-0.057 1.055l2.771 2.771c0.67-0.231 1.444-0.082 1.979 0.455 0.178 0.178 0.319 0.389 0.415 0.622s0.146 0.482 0.146 0.733c-0 0.252-0.050 0.501-0.146 0.733s-0.238 0.444-0.416 0.622c-0.178 0.178-0.389 0.319-0.622 0.415s-0.482 0.146-0.733 0.146c-0.252 0-0.501-0.050-0.733-0.146s-0.444-0.238-0.622-0.416c-0.563-0.563-0.701-1.391-0.417-2.084l-2.584-2.584v6.801c0.188 0.093 0.359 0.215 0.508 0.363 0.178 0.178 0.319 0.389 0.415 0.622s0.146 0.482 0.146 0.733-0.049 0.501-0.146 0.733c-0.096 0.233-0.238 0.444-0.415 0.622s-0.389 0.319-0.622 0.415c-0.233 0.096-0.482 0.146-0.733 0.146s-0.501-0.050-0.733-0.146c-0.232-0.096-0.444-0.237-0.622-0.415s-0.319-0.389-0.416-0.621c-0.097-0.233-0.146-0.482-0.146-0.733s0.050-0.501 0.146-0.733c0.096-0.233 0.238-0.444 0.416-0.621 0.185-0.184 0.391-0.324 0.627-0.418v-6.864c-0.228-0.094-0.442-0.232-0.627-0.418-0.269-0.269-0.452-0.611-0.525-0.984s-0.034-0.759 0.113-1.11l-2.836-2.834-7.484 7.477c-0.15 0.149-0.268 0.327-0.349 0.522s-0.123 0.405-0.123 0.616c0 0.212 0.042 0.421 0.123 0.616s0.2 0.373 0.349 0.522l10.916 10.914c0.149 0.149 0.327 0.268 0.522 0.349s0.405 0.122 0.616 0.122 0.421-0.042 0.616-0.122c0.195-0.081 0.373-0.2 0.522-0.349l10.865-10.848c0.15-0.149 0.268-0.327 0.349-0.522s0.123-0.405 0.123-0.616c0-0.211-0.042-0.421-0.123-0.616s-0.2-0.373-0.349-0.522z"></path>
</svg>
