<!-- Generated by IcoMoon.io -->
<svg version="1.1" xmlns="http://www.w3.org/2000/svg" width="32" height="32" viewBox="0 0 32 32">
<title>Github</title>
<path fill="#f4f2ed" d="M7.5 0h17c4.142 0 7.5 3.358 7.5 7.5v17c0 4.142-3.358 7.5-7.5 7.5h-17c-4.142 0-7.5-3.358-7.5-7.5v-17c0-4.142 3.358-7.5 7.5-7.5z"></path>
<path fill="#161614" d="M16 3.75c-6.903 0-12.5 5.596-12.5 12.5 0 5.523 3.582 10.208 8.548 11.861 0.625 0.116 0.854-0.271 0.854-0.601 0-0.298-0.012-1.283-0.017-2.327-3.478 0.756-4.211-1.475-4.211-1.475-0.569-1.445-1.388-1.829-1.388-1.829-1.134-0.776 0.085-0.76 0.085-0.76 1.255 0.088 1.916 1.288 1.916 1.288 1.115 1.911 2.924 1.358 3.638 1.039 0.112-0.808 0.436-1.359 0.794-1.671-2.776-0.316-5.695-1.388-5.695-6.178 0-1.365 0.488-2.48 1.288-3.355-0.13-0.315-0.558-1.586 0.121-3.308 0 0 1.050-0.336 3.438 1.281 0.997-0.277 2.066-0.416 3.129-0.421 1.062 0.005 2.133 0.144 3.131 0.421 2.386-1.617 3.434-1.281 3.434-1.281 0.68 1.722 0.252 2.993 0.122 3.308 0.802 0.875 1.287 1.99 1.287 3.355 0 4.801-2.924 5.858-5.708 6.168 0.448 0.388 0.848 1.149 0.848 2.315 0 1.672-0.015 3.019-0.015 3.43 0 0.333 0.225 0.722 0.859 0.6 4.964-1.655 8.541-6.339 8.541-11.86 0-6.904-5.597-12.5-12.5-12.5zM8.182 21.557c-0.028 0.062-0.125 0.081-0.214 0.038-0.091-0.041-0.142-0.125-0.112-0.188 0.027-0.064 0.125-0.082 0.215-0.039 0.091 0.041 0.143 0.126 0.111 0.189zM8.797 22.105c-0.060 0.055-0.176 0.030-0.255-0.058-0.082-0.087-0.097-0.204-0.037-0.26s0.175-0.029 0.256 0.058c0.082 0.088 0.098 0.204 0.035 0.26zM9.218 22.807c-0.077 0.053-0.202 0.003-0.279-0.108s-0.077-0.244 0.002-0.298c0.078-0.053 0.201-0.005 0.279 0.105 0.076 0.113 0.076 0.246-0.002 0.301zM9.932 23.62c-0.069 0.076-0.214 0.055-0.321-0.048-0.109-0.101-0.14-0.244-0.071-0.319s0.216-0.054 0.324 0.048c0.108 0.101 0.142 0.245 0.069 0.319zM10.854 23.895c-0.030 0.098-0.171 0.142-0.312 0.101-0.141-0.043-0.234-0.157-0.205-0.256s0.171-0.145 0.313-0.1c0.141 0.043 0.234 0.157 0.204 0.256zM11.903 24.011c0.004 0.103-0.117 0.189-0.265 0.19-0.149 0.003-0.27-0.080-0.272-0.181 0-0.104 0.117-0.189 0.267-0.191s0.27 0.080 0.27 0.182zM12.934 23.972c0.018 0.101-0.085 0.204-0.233 0.231-0.145 0.026-0.279-0.036-0.298-0.135-0.018-0.103 0.087-0.206 0.232-0.233 0.148-0.026 0.28 0.035 0.299 0.137z"></path>
</svg>
