<!-- Generated by IcoMoon.io -->
<svg version="1.1" xmlns="http://www.w3.org/2000/svg" width="32" height="32" viewBox="0 0 32 32">
<title>GitLab</title>
<path fill="#f4f2ed" d="M7.5 0h17c4.142 0 7.5 3.358 7.5 7.5v17c0 4.142-3.358 7.5-7.5 7.5h-17c-4.142 0-7.5-3.358-7.5-7.5v-17c0-4.142 3.358-7.5 7.5-7.5z"></path>
<path fill="#e24329" d="M16 27.5l4.695-14.149h-9.39l4.695 14.149z"></path>
<path fill="#fc6d26" d="M16 27.5l-4.695-14.149h-6.58l11.275 14.149z"></path>
<path fill="#fca326" d="M4.725 13.351l-1.427 4.3c-0.13 0.392 0.012 0.822 0.353 1.064l12.349 8.785-11.275-14.149z"></path>
<path fill="#e24329" d="M4.725 13.351h6.58l-2.828-8.522c-0.146-0.438-0.779-0.438-0.925 0l-2.827 8.522z"></path>
<path fill="#fc6d26" d="M16 27.5l4.695-14.149h6.58l-11.276 14.149z"></path>
<path fill="#fca326" d="M27.275 13.351l1.427 4.3c0.13 0.392-0.012 0.822-0.353 1.064l-12.349 8.785 11.275-14.149z"></path>
<path fill="#e24329" d="M27.275 13.351h-6.58l2.828-8.522c0.146-0.438 0.779-0.438 0.925 0l2.828 8.522z"></path>
</svg>
