<!-- Generated by IcoMoon.io -->
<svg version="1.1" xmlns="http://www.w3.org/2000/svg" width="32" height="32" viewBox="0 0 32 32">
<title>GoLang</title>
<path fill="#00b4e0" d="M7.5 0h17c4.142 0 7.5 3.358 7.5 7.5v17c0 4.142-3.358 7.5-7.5 7.5h-17c-4.142 0-7.5-3.358-7.5-7.5v-17c0-4.142 3.358-7.5 7.5-7.5z"></path>
<path fill="#fff" d="M5.063 14.154c-0.050 0-0.063-0.025-0.037-0.063l0.263-0.338c0.025-0.037 0.088-0.063 0.138-0.063h4.463c0.050 0 0.063 0.037 0.037 0.075l-0.213 0.325c-0.025 0.037-0.088 0.075-0.125 0.075l-4.525-0.012z"></path>
<path fill="#fff" d="M3.175 15.304c-0.050 0-0.063-0.025-0.038-0.063l0.263-0.338c0.025-0.037 0.087-0.063 0.138-0.063h5.7c0.050 0 0.075 0.037 0.063 0.075l-0.1 0.3c-0.012 0.050-0.063 0.075-0.113 0.075l-5.912 0.012z"></path>
<path fill="#fff" d="M6.2 16.454c-0.050 0-0.063-0.038-0.037-0.075l0.175-0.313c0.025-0.038 0.075-0.075 0.125-0.075h2.5c0.050 0 0.075 0.038 0.075 0.087l-0.025 0.3c0 0.050-0.050 0.087-0.088 0.087l-2.725-0.012z"></path>
<path fill="#fff" d="M19.175 13.929c-0.788 0.2-1.325 0.35-2.1 0.55-0.188 0.050-0.2 0.063-0.363-0.125-0.188-0.213-0.325-0.35-0.587-0.475-0.787-0.387-1.55-0.275-2.262 0.188-0.85 0.55-1.287 1.363-1.275 2.375 0.012 1 0.7 1.825 1.688 1.962 0.85 0.113 1.563-0.188 2.125-0.825 0.113-0.137 0.212-0.288 0.337-0.462-0.45 0-1.012 0-2.412 0-0.262 0-0.325-0.163-0.238-0.375 0.162-0.387 0.463-1.037 0.637-1.363 0.037-0.075 0.125-0.2 0.313-0.2 0.637 0 2.987 0 4.55 0-0.025 0.338-0.025 0.675-0.075 1.012-0.137 0.9-0.475 1.725-1.025 2.45-0.9 1.188-2.075 1.925-3.563 2.125-1.225 0.163-2.363-0.075-3.363-0.825-0.925-0.7-1.45-1.625-1.588-2.775-0.162-1.363 0.238-2.588 1.063-3.662 0.887-1.162 2.063-1.9 3.5-2.162 1.175-0.213 2.3-0.075 3.312 0.613 0.663 0.438 1.137 1.037 1.45 1.762 0.075 0.113 0.025 0.175-0.125 0.213z"></path>
<path fill="#fff" d="M23.313 20.842c-1.137-0.025-2.175-0.35-3.050-1.1-0.738-0.637-1.2-1.45-1.35-2.413-0.225-1.412 0.163-2.662 1.012-3.775 0.913-1.2 2.012-1.825 3.5-2.087 1.275-0.225 2.475-0.1 3.563 0.637 0.988 0.675 1.6 1.587 1.762 2.787 0.212 1.687-0.275 3.062-1.438 4.237-0.825 0.837-1.837 1.363-3 1.6-0.337 0.063-0.675 0.075-1 0.113zM26.288 15.792c-0.012-0.162-0.012-0.287-0.038-0.412-0.225-1.238-1.363-1.938-2.55-1.662-1.163 0.262-1.913 1-2.188 2.175-0.225 0.975 0.25 1.962 1.15 2.363 0.688 0.3 1.375 0.262 2.038-0.075 0.988-0.512 1.525-1.313 1.587-2.387z"></path>
</svg>
