<!-- Generated by IcoMoon.io -->
<svg version="1.1" xmlns="http://www.w3.org/2000/svg" width="32" height="32" viewBox="0 0 32 32">
<title>Gradle</title>
<path fill="#f4f2ed" d="M7.5 0h17c4.142 0 7.5 3.358 7.5 7.5v17c0 4.142-3.358 7.5-7.5 7.5h-17c-4.142 0-7.5-3.358-7.5-7.5v-17c0-4.142 3.358-7.5 7.5-7.5z"></path>
<path fill="#02303a" d="M26.584 8.349c-0.692-0.69-1.624-1.084-2.601-1.099s-1.921 0.349-2.634 1.017c-0.035 0.032-0.064 0.072-0.083 0.116s-0.029 0.091-0.029 0.139c-0.001 0.048 0.007 0.096 0.025 0.141s0.045 0.085 0.079 0.12l0.474 0.474c0.061 0.061 0.142 0.098 0.228 0.104s0.172-0.019 0.241-0.071c0.437-0.329 0.982-0.479 1.526-0.421s1.045 0.32 1.403 0.733c0.358 0.413 0.546 0.947 0.525 1.493s-0.247 1.065-0.635 1.45c-2.989 2.989-6.982-5.388-16.034-1.080-0.154 0.072-0.292 0.175-0.405 0.302s-0.197 0.277-0.249 0.44c-0.052 0.162-0.069 0.333-0.051 0.502s0.071 0.333 0.156 0.48l1.555 2.687c0.161 0.279 0.426 0.484 0.737 0.569s0.643 0.044 0.924-0.114l0.038-0.030-0.030 0.022 0.688-0.384c0.768-0.477 1.493-1.018 2.169-1.618 0.067-0.062 0.153-0.097 0.244-0.1s0.179 0.027 0.25 0.083c0.041 0.032 0.075 0.073 0.099 0.12s0.037 0.098 0.038 0.15c0.002 0.052-0.008 0.104-0.029 0.152s-0.052 0.091-0.091 0.126c-0.709 0.64-1.473 1.217-2.284 1.722h-0.025l-0.688 0.387c-0.451 0.249-0.982 0.312-1.479 0.175s-0.921-0.462-1.181-0.908l-1.47-2.534c-2.819 2.005-4.527 5.841-3.614 10.692 0.015 0.082 0.058 0.157 0.122 0.21s0.145 0.083 0.229 0.083h1.67c0.088-0.001 0.172-0.033 0.237-0.091s0.108-0.138 0.119-0.224c0.075-0.592 0.362-1.136 0.81-1.531s1.023-0.612 1.62-0.612 1.172 0.218 1.62 0.612c0.447 0.395 0.735 0.939 0.81 1.531 0.011 0.087 0.052 0.166 0.117 0.224s0.149 0.090 0.236 0.091h1.629c0.088-0.001 0.172-0.033 0.237-0.091s0.108-0.138 0.119-0.224c0.075-0.592 0.363-1.136 0.81-1.531s1.023-0.612 1.62-0.612c0.596 0 1.172 0.218 1.62 0.612s0.735 0.939 0.81 1.531c0.011 0.090 0.055 0.172 0.125 0.231s0.158 0.089 0.248 0.085h1.61c0.094-0.001 0.184-0.038 0.251-0.104s0.106-0.155 0.108-0.25c0.036-2.271 0.647-4.876 2.394-6.184 6.027-4.519 4.437-8.391 3.041-9.795zM20.42 15.18l-1.152-0.579c-0-0.124 0.031-0.246 0.091-0.354s0.147-0.199 0.252-0.264 0.226-0.102 0.349-0.107c0.124-0.005 0.247 0.021 0.357 0.077s0.205 0.139 0.274 0.242 0.111 0.222 0.121 0.345c0.010 0.123-0.012 0.248-0.063 0.36s-0.131 0.21-0.231 0.284v-0.003z"></path>
</svg>
