<!-- Generated by IcoMoon.io -->
<svg version="1.1" xmlns="http://www.w3.org/2000/svg" width="32" height="32" viewBox="0 0 32 32">
<title>HTML</title>
<path fill="#e14e1d" d="M7.5 0h17c4.142 0 7.5 3.358 7.5 7.5v17c0 4.142-3.358 7.5-7.5 7.5h-17c-4.142 0-7.5-3.358-7.5-7.5v-17c0-4.142 3.358-7.5 7.5-7.5z"></path>
<path fill="#fff" d="M6 4.75l1.076 12.074h13.839l-0.464 5.179-4.456 1.205-4.447-1.203-0.297-3.325h-4.008l0.573 6.41 8.178 2.271 8.189-2.271 1.098-12.258h-14.553l-0.365-4.089h15.28l0.358-3.993h-20z"></path>
<path fill="#ebebeb" d="M16 4.75h-10l1.076 12.074h8.924v-3.992h-5.272l-0.365-4.089h5.637v-3.993z"></path>
<path fill="#ebebeb" d="M16 23.206l-0.005 0.002-4.447-1.203-0.297-3.325h-4.008l0.573 6.41 8.185 2.27v-4.153z"></path>
</svg>
