<!-- Generated by IcoMoon.io -->
<svg version="1.1" xmlns="http://www.w3.org/2000/svg" width="32" height="32" viewBox="0 0 32 32">
<title>Illustrator</title>
<path fill="#300" d="M7.5 0h17c4.142 0 7.5 3.358 7.5 7.5v17c0 4.142-3.358 7.5-7.5 7.5h-17c-4.142 0-7.5-3.358-7.5-7.5v-17c0-4.142 3.358-7.5 7.5-7.5z"></path>
<path fill="#ff9a00" d="M15.467 19.042h-4.96l-1.013 3.133c-0.027 0.12-0.133 0.2-0.253 0.187h-2.507c-0.147 0-0.187-0.080-0.147-0.24l4.293-12.36c0.040-0.133 0.080-0.28 0.133-0.44 0.053-0.28 0.080-0.573 0.080-0.867-0.013-0.067 0.040-0.133 0.107-0.147h3.453c0.107 0 0.16 0.040 0.173 0.107l4.867 13.733c0.040 0.147 0 0.213-0.133 0.213h-2.787c-0.093 0.013-0.187-0.053-0.213-0.147l-1.093-3.173zM11.28 16.335h3.387c-0.080-0.28-0.187-0.613-0.307-0.96-0.12-0.36-0.24-0.747-0.36-1.147-0.133-0.413-0.253-0.813-0.387-1.227s-0.253-0.8-0.36-1.187c-0.107-0.373-0.2-0.72-0.293-1.040h-0.027c-0.12 0.573-0.267 1.147-0.453 1.72-0.2 0.64-0.4 1.307-0.613 1.973-0.187 0.68-0.387 1.307-0.587 1.867v0z"></path>
<path fill="#ff9a00" d="M22.667 10.642c-0.44 0.013-0.867-0.16-1.187-0.467-0.307-0.333-0.467-0.773-0.453-1.227-0.013-0.453 0.16-0.88 0.48-1.187s0.747-0.467 1.187-0.467c0.52 0 0.92 0.16 1.213 0.467 0.293 0.32 0.453 0.747 0.44 1.187 0.013 0.453-0.147 0.893-0.467 1.227-0.307 0.32-0.76 0.493-1.213 0.467zM21.173 22.215v-10.267c0-0.133 0.053-0.187 0.173-0.187h2.64c0.12 0 0.173 0.067 0.173 0.187v10.267c0 0.147-0.053 0.213-0.173 0.213h-2.613c-0.133 0-0.2-0.080-0.2-0.213v0z"></path>
</svg>
