<!-- Generated by IcoMoon.io -->
<svg version="1.1" xmlns="http://www.w3.org/2000/svg" width="32" height="32" viewBox="0 0 32 32">
<title>Java</title>
<path fill="#f4f2ed" d="M7.5 0h17c4.142 0 7.5 3.358 7.5 7.5v17c0 4.142-3.358 7.5-7.5 7.5h-17c-4.142 0-7.5-3.358-7.5-7.5v-17c0-4.142 3.358-7.5 7.5-7.5z"></path>
<path fill="#4e7896" d="M12.704 22.827c0 0-0.96 0.584 0.668 0.751 1.966 0.25 3.005 0.209 5.176-0.209 0 0 0.584 0.376 1.378 0.668-4.884 2.087-11.062-0.125-7.221-1.211zM12.078 20.114c0 0-1.044 0.793 0.584 0.96 2.129 0.209 3.799 0.25 6.679-0.333 0 0 0.376 0.418 1.002 0.626-5.885 1.753-12.481 0.167-8.265-1.252v-0zM23.599 24.873c0 0 0.709 0.584-0.793 1.044-2.797 0.835-11.73 1.086-14.234 0-0.876-0.376 0.793-0.919 1.336-1.002 0.543-0.125 0.835-0.125 0.835-0.125-0.96-0.668-6.387 1.378-2.755 1.966 9.977 1.628 18.2-0.709 15.612-1.878l0-0.004zM13.163 17.275c0 0-4.55 1.086-1.628 1.461 1.252 0.167 3.715 0.125 6.011-0.042 1.878-0.167 3.761-0.501 3.761-0.501s-0.668 0.292-1.127 0.584c-4.637 1.212-13.529 0.669-10.982-0.584 2.171-1.044 3.966-0.919 3.966-0.919v0zM21.303 21.826c4.676-2.421 2.505-4.759 1.002-4.466-0.376 0.083-0.543 0.167-0.543 0.167s0.125-0.25 0.418-0.333c2.964-1.044 5.302 3.131-0.96 4.759 0 0 0.042-0.042 0.083-0.125v-0zM13.622 28.421c4.508 0.292 11.396-0.167 11.563-2.296 0 0-0.333 0.835-3.715 1.461-3.84 0.709-8.6 0.626-11.396 0.167 0 0 0.584 0.501 3.548 0.668l-0 0z"></path>
<path fill="#f58219" d="M18.461 3.5c0 0 2.588 2.63-2.463 6.595-4.049 3.214-0.919 5.051 0 7.138-2.379-2.128-4.090-4.007-2.922-5.761 1.716-2.587 6.432-3.839 5.385-7.972zM17.125 15.48c1.21 1.377-0.333 2.63-0.333 2.63s3.089-1.586 1.67-3.548c-1.294-1.879-2.296-2.797 3.131-5.928 0 0-8.558 2.129-4.466 6.846l-0.001 0.001z"></path>
</svg>
