<!-- Generated by IcoMoon.io -->
<svg version="1.1" xmlns="http://www.w3.org/2000/svg" width="32" height="32" viewBox="0 0 32 32">
<title>Jest</title>
<path fill="#99424f" d="M7.5 0h17c4.142 0 7.5 3.358 7.5 7.5v17c0 4.142-3.358 7.5-7.5 7.5h-17c-4.142 0-7.5-3.358-7.5-7.5v-17c0-4.142 3.358-7.5 7.5-7.5z"></path>
<path fill="#fff" d="M26.669 15.812c0-1.506-1.035-2.772-2.425-3.134l3.112-9.178h-15.424l3.12 9.207c-1.346 0.391-2.338 1.636-2.338 3.112 0 1.086 0.543 2.048 1.368 2.642-0.326 0.463-0.702 0.89-1.129 1.296-0.803 0.753-1.694 1.332-2.656 1.715-0.869-0.586-1.245-1.621-0.905-2.548 1.325-0.405 2.287-1.643 2.287-3.098 0-1.788-1.455-3.235-3.235-3.235-1.788 0-3.243 1.455-3.243 3.243 0 0.883 0.362 1.694 0.941 2.273-0.051 0.101-0.101 0.203-0.152 0.311-0.485 0.999-1.035 2.128-1.245 3.395-0.42 2.533 0.268 4.567 1.925 5.718 0.934 0.644 1.962 0.97 3.069 0.97 1.904 0 3.836-0.955 5.704-1.882 1.332-0.659 2.707-1.346 4.061-1.679 0.5-0.123 1.021-0.195 1.571-0.275 1.115-0.159 2.265-0.326 3.3-0.927 1.209-0.702 2.034-1.875 2.273-3.221 0.181-1.035 0-2.077-0.463-2.989 0.311-0.5 0.485-1.086 0.485-1.715v0zM25.258 15.812c0 1.006-0.818 1.824-1.824 1.824s-1.824-0.818-1.824-1.824c0-0.326 0.087-0.637 0.239-0.905 0.058-0.101 0.13-0.203 0.203-0.29s0.159-0.166 0.253-0.239l0.007-0.007c0.058-0.043 0.123-0.087 0.188-0.13 0 0 0.007 0 0.007-0.007 0.029-0.014 0.058-0.036 0.087-0.051 0.007 0 0.015-0.007 0.022-0.007 0.029-0.014 0.065-0.029 0.101-0.043s0.072-0.029 0.101-0.043c0.007 0 0.015-0.007 0.022-0.007 0.029-0.007 0.058-0.022 0.087-0.029 0.007 0 0.022-0.007 0.029-0.007 0.036-0.007 0.065-0.014 0.101-0.022h0.007l0.109-0.022c0.007 0 0.022 0 0.029-0.007 0.029 0 0.058-0.007 0.087-0.007h0.036c0.036 0 0.072-0.007 0.116-0.007h0.094c0.029 0 0.051 0 0.080 0.007h0.015c0.058 0.007 0.116 0.014 0.174 0.029 0.825 0.174 1.455 0.912 1.455 1.795v0zM13.952 4.948h11.385l-2.613 7.708c-0.109 0.022-0.217 0.058-0.326 0.094l-2.75-5.609-2.758 5.573c-0.108-0.036-0.224-0.058-0.34-0.080l-2.598-7.687zM19.127 15.182c-0.137-0.68-0.485-1.288-0.977-1.737l1.498-3.025 1.513 3.091c-0.449 0.449-0.774 1.021-0.905 1.672h-1.129zM15.501 14.039c0.036-0.007 0.065-0.014 0.101-0.022h0.022c0.029-0.007 0.058-0.007 0.087-0.014h0.029c0.029 0 0.051-0.007 0.080-0.007h0.282c0.029 0 0.051 0.007 0.072 0.007 0.015 0 0.022 0 0.036 0.007 0.029 0.007 0.051 0.007 0.080 0.014 0.007 0 0.015 0 0.029 0.007 0.036 0.007 0.072 0.014 0.101 0.022h0.007c0.029 0.007 0.058 0.014 0.087 0.029 0.007 0 0.015 0.007 0.029 0.007 0.022 0.007 0.051 0.014 0.072 0.029 0.007 0 0.015 0.007 0.022 0.007 0.029 0.014 0.058 0.022 0.087 0.036h0.007c0.036 0.014 0.065 0.029 0.094 0.051h0.007c0.029 0.014 0.058 0.036 0.087 0.051 0.007 0 0.007 0.007 0.015 0.007 0.029 0.014 0.051 0.036 0.080 0.051l0.007 0.007c0.087 0.065 0.166 0.137 0.246 0.21l0.007 0.007c0.072 0.080 0.145 0.166 0.203 0.261 0.188 0.29 0.297 0.63 0.297 0.999 0 1.006-0.818 1.824-1.824 1.824s-1.824-0.818-1.824-1.824c-0.007-0.847 0.579-1.563 1.375-1.766v0zM8.379 13.988c1.006 0 1.824 0.818 1.824 1.824s-0.818 1.824-1.824 1.824-1.824-0.818-1.824-1.824c0-1.006 0.818-1.824 1.824-1.824zM25.214 20.263c-0.159 0.927-0.731 1.737-1.571 2.222-0.789 0.456-1.759 0.601-2.779 0.745-0.557 0.080-1.143 0.166-1.708 0.304-1.506 0.369-2.953 1.093-4.357 1.788-1.795 0.89-3.489 1.73-5.059 1.73-0.818 0-1.549-0.232-2.244-0.716-1.592-1.1-1.513-3.163-1.325-4.292 0.174-1.057 0.659-2.048 1.122-2.997 0.029-0.058 0.051-0.109 0.080-0.166 0.159 0.058 0.326 0.101 0.499 0.13-0.275 1.535 0.507 3.12 2.027 3.901l0.275 0.145 0.297-0.108c1.267-0.449 2.439-1.18 3.474-2.157 0.586-0.55 1.086-1.143 1.505-1.788 0.166 0.029 0.333 0.036 0.499 0.036 1.506 0 2.772-1.035 3.134-2.425h1.216c0.362 1.397 1.628 2.425 3.134 2.425 0.601 0 1.158-0.166 1.636-0.449 0.188 0.543 0.246 1.107 0.145 1.672v0z"></path>
</svg>
