<!-- Generated by IcoMoon.io -->
<svg version="1.1" xmlns="http://www.w3.org/2000/svg" width="32" height="32" viewBox="0 0 32 32">
<title>JQuery</title>
<path fill="#000" d="M7.5 0h17c4.142 0 7.5 3.358 7.5 7.5v17c0 4.142-3.358 7.5-7.5 7.5h-17c-4.142 0-7.5-3.358-7.5-7.5v-17c0-4.142 3.358-7.5 7.5-7.5z"></path>
<path fill="#fff" d="M9.905 8.593c-1.248 1.827-1.093 4.204-0.142 6.143l0.070 0.138 0.047 0.088c0.009 0.017 0.019 0.034 0.028 0.050 0.017 0.031 0.033 0.060 0.047 0.091l0.091 0.159 0.052 0.088 0.106 0.168 0.047 0.071c0.047 0.076 0.101 0.151 0.153 0.225 0.001 0.002 0.003 0.004 0.004 0.006 0.008 0.012 0.018 0.024 0.024 0.036 0.045 0.064 0.095 0.127 0.142 0.189l0.052 0.068 0.129 0.161 0.049 0.060c0.059 0.071 0.118 0.14 0.18 0.209l0.004 0.004c0.002 0.003 0.005 0.005 0.007 0.008 0.059 0.067 0.12 0.132 0.182 0.196l0.059 0.060 0.146 0.146 0.060 0.058c0.066 0.063 0.132 0.124 0.2 0.185l0.038 0.033 0.181 0.156 0.075 0.061 0.151 0.118 0.081 0.063 0.231 0.169c0.006 0.004 0.011 0.008 0.017 0.012 0.054 0.038 0.109 0.075 0.165 0.111l0.071 0.048 0.258 0.161 0.071 0.041 0.194 0.11c0.035 0.019 0.072 0.038 0.107 0.056l0.139 0.071 0.089 0.044 0.22 0.104 0.047 0.024c0.085 0.038 0.17 0.074 0.256 0.108l0.062 0.025 0.242 0.091 0.030 0.011c0.089 0.032 0.179 0.061 0.269 0.090l0.065 0.020c0.095 0.028 0.183 0.062 0.278 0.080 6.036 1.124 7.79-3.692 7.79-3.692-1.473 1.954-4.087 2.469-6.563 1.896-0.094-0.024-0.185-0.051-0.277-0.079l-0.069-0.024c-0.089-0.028-0.178-0.058-0.266-0.088l-0.037-0.014c-0.079-0.028-0.157-0.058-0.235-0.089l-0.066-0.026c-0.085-0.034-0.17-0.070-0.253-0.107l-0.050-0.023-0.214-0.102-0.061-0.030c-0.056-0.028-0.111-0.056-0.165-0.086l-0.11-0.059c-0.067-0.037-0.133-0.074-0.198-0.113l-0.067-0.038c-0.087-0.052-0.173-0.106-0.258-0.161-0.024-0.015-0.046-0.032-0.070-0.047l-0.184-0.124-0.059-0.043-0.174-0.128-0.077-0.059-0.157-0.125-0.070-0.057-0.195-0.165c-0.007-0.006-0.014-0.012-0.024-0.018-0.069-0.062-0.138-0.126-0.205-0.19l-0.058-0.057-0.147-0.147-0.058-0.059c-0.061-0.064-0.122-0.129-0.181-0.195-0.003-0.003-0.006-0.006-0.009-0.009-0.062-0.070-0.124-0.141-0.183-0.213l-0.048-0.058-0.132-0.166-0.048-0.061-0.152-0.207c-1.375-1.91-1.867-4.545-0.77-6.708l-0.973 1.259zM13.78 7.053c-0.902 1.323-0.854 3.094-0.149 4.493 0.118 0.235 0.251 0.462 0.399 0.679 0.135 0.197 0.285 0.432 0.465 0.591 0.065 0.071 0.133 0.142 0.203 0.214 0.018 0.018 0.036 0.035 0.053 0.054 0.068 0.067 0.136 0.132 0.207 0.196 0.003 0.002 0.005 0.005 0.008 0.008 0.079 0.071 0.161 0.139 0.244 0.206l0.055 0.043c0.082 0.065 0.167 0.128 0.253 0.188 0.002 0.002 0.005 0.004 0.007 0.005 0.038 0.027 0.077 0.052 0.115 0.077 0.018 0.012 0.036 0.025 0.054 0.037 0.062 0.040 0.124 0.079 0.187 0.117l0.027 0.016 0.165 0.095c0.019 0.011 0.039 0.021 0.059 0.031l0.118 0.061c0.006 0.003 0.012 0.005 0.017 0.008 0.080 0.040 0.16 0.078 0.242 0.115 0.017 0.008 0.035 0.015 0.053 0.022 0.066 0.028 0.132 0.056 0.198 0.082l0.085 0.032c0.060 0.022 0.121 0.044 0.182 0.065l0.082 0.027c0.087 0.028 0.172 0.062 0.263 0.078 4.66 0.786 5.737-2.868 5.737-2.868-0.97 1.422-2.848 2.101-4.853 1.572-0.089-0.024-0.177-0.050-0.264-0.078-0.027-0.008-0.053-0.017-0.079-0.024-0.062-0.020-0.123-0.042-0.184-0.065l-0.084-0.032c-0.067-0.024-0.133-0.053-0.198-0.082-0.018-0.008-0.036-0.015-0.054-0.023-0.082-0.036-0.163-0.074-0.243-0.115-0.041-0.021-0.081-0.042-0.122-0.063l-0.070-0.037c-0.052-0.029-0.103-0.058-0.154-0.089l-0.037-0.024c-0.063-0.038-0.125-0.076-0.187-0.116-0.019-0.012-0.037-0.024-0.056-0.038l-0.121-0.082c-0.085-0.060-0.169-0.123-0.252-0.188l-0.057-0.045c-0.877-0.706-1.573-1.669-1.903-2.763-0.347-1.134-0.272-2.406 0.331-3.439l-0.742 1.060zM17.038 5.903c-0.532 0.798-0.584 1.788-0.213 2.669 0.389 0.935 1.187 1.669 2.118 2.016 0.038 0.015 0.077 0.028 0.118 0.041l0.051 0.017c0.055 0.017 0.109 0.038 0.166 0.049 2.573 0.506 3.271-1.345 3.457-1.617-0.611 0.897-1.639 1.112-2.9 0.8-0.099-0.025-0.209-0.061-0.307-0.096-0.123-0.045-0.244-0.096-0.362-0.153-0.224-0.11-0.437-0.242-0.635-0.395-1.131-0.872-1.832-2.535-1.095-3.889z"></path>
<path fill="#fff" d="M11.355 22.835l-0.174 0.618 0.174-0.618v-0zM12.251 24.177v0zM12.204 25.1v0zM12.445 24.178v0zM12.308 25.021v0zM16.544 21.499v0zM15.584 21.499v0z"></path>
<path fill="#fff" d="M16.478 21.42h-0.799c-0.044 0-0.088 0.035-0.098 0.079l-0.567 2.624c-0.009 0.043-0.053 0.079-0.098 0.079h-0.565c-0.559 0-0.495-0.387-0.378-0.917l0.004-0.016 0.068-0.361 0.029-0.149 0.258-1.26c0.009-0.043-0.020-0.079-0.065-0.079h-0.82c-0.023 0.001-0.044 0.009-0.062 0.023s-0.030 0.034-0.035 0.056l-0.369 1.752c-0.203 0.927-0.149 1.811 0.955 1.839l0.032 0.001h1.732c0.044 0 0.088-0.035 0.098-0.079l0.747-3.512c0.009-0.043-0.020-0.079-0.064-0.079l-0.003 0zM19.665 24.211c0.044 0 0.071 0.035 0.064 0.079l-0.078 0.379 0.013-0.458zM19.574 25.049v0zM19.477 25.128v0z"></path>
<path fill="#fff" d="M17.528 23.723c-0.001-0.042 0.047-0.113 0.091-0.113l-0.1-0.002c-0.047 0.452 0.009 0.115 0.009 0.115zM18.078 25.135v0zM19.665 24.211c0.044 0 0.071 0.035 0.064 0.079l-0.090 0.441 0.026-0.52zM18.456 25.137v0zM18.259 25.135v0zM18.2 25.135v0zM18.141 25.135v0zM18.25 25.135v0z"></path>
<path fill="#fff" d="M18.453 25.137v0zM19.477 25.131v0zM19.572 25.049v0zM18.179 25.135v0zM18.062 25.135v0zM18.122 25.135v0zM6.436 23.732l0.124-0.55-0.142 0.628-0.017 0.079 0.035-0.158-0 0zM7.921 21.411h-0.877c-0.023 0.001-0.044 0.009-0.062 0.023s-0.030 0.034-0.036 0.055l-0.166 0.732c-0.003 0.009-0.003 0.020-0.001 0.029s0.006 0.019 0.012 0.026 0.014 0.014 0.023 0.018c0.009 0.004 0.019 0.006 0.029 0.005h0.884c0.044 0 0.088-0.035 0.098-0.079l0.161-0.734c0.009-0.043-0.019-0.079-0.064-0.079l0 0.002zM7.731 22.632v0zM5.182 26.576l0.723 0.006c-0.214 0-0.566-0.004-0.724-0.006l0 0z"></path>
<path fill="#fff" d="M6.682 22.632v0zM7.667 22.553h-0.884c-0.023 0.001-0.044 0.009-0.062 0.023s-0.030 0.034-0.036 0.055l-0.248 1.1-0.035 0.158-0.236 1.123c-0.012 0.052-0.026 0.104-0.043 0.155 0 0-0.165 0.491-0.443 0.486l-0.275-0.005c-0.023 0.001-0.044 0.008-0.062 0.022s-0.031 0.033-0.037 0.055l-0.183 0.771c-0.003 0.009-0.003 0.020-0.002 0.029s0.006 0.019 0.012 0.027 0.014 0.014 0.023 0.018c0.009 0.004 0.019 0.006 0.029 0.006l0.724 0.006c0.694 0 1.059-0.384 1.294-1.49l0.532-2.457c0.009-0.043-0.019-0.079-0.064-0.079l-0.002-0.003zM20.228 25.090c-0.044 0-0.071-0.035-0.064-0.079l0.665-3.116-0.601 3.194zM21.152 25.011v0z"></path>
<path fill="#fff" d="M20.174 25.051c-0.005-0.022-0.002-0.075 0.007-0.118l0.316-1.479-0.333 1.558c-0.009 0.044 0.019 0.079 0.064 0.079h0.081c-0.044 0-0.13-0.018-0.135-0.039zM21.1 25.073c-0.024 0.009-0.080 0.018-0.125 0.018h0.081c0.023-0.001 0.044-0.009 0.062-0.023s0.030-0.034 0.035-0.056l0.016-0.079c-0.009 0.043-0.047 0.131-0.071 0.14h0.002zM21.287 24.346v0zM23.911 22.105l0.037 0.151c0.010 0.043-0.018 0.078-0.062 0.079z"></path>
<path fill="#fff" d="M21.168 24.932v0zM23.875 21.947v0zM21.406 23.759l0.033-0.157 0.127-0.594-0.144 0.673-0.016 0.078v0zM20.84 21.845l-0.028 0.13-0.316 1.479 0.333-1.558 0.011-0.051v-0z"></path>
<path fill="#fff" d="M23.948 22.256l-0.037-0.151-0.054-0.236c-0.072-0.279-0.283-0.44-0.741-0.44l-2.108-0.001c-0.023 0.001-0.044 0.009-0.062 0.023s-0.030 0.034-0.035 0.056l-0.033 0.154-0.047 0.233-0.648 3.037c-0.009 0.044-0.012 0.095-0.007 0.118s0.090 0.040 0.135 0.040h0.666c0.044 0 0.1-0.008 0.125-0.018s0.060-0.095 0.071-0.14l0.253-1.251 0.27-1.267c0.009-0.043 0.053-0.078 0.097-0.079l2.096-0.001c0.044 0 0.072-0.035 0.062-0.079l-0.004 0.003zM26.647 20.887l-0.161 0.001h-0.671c-0.025 0.002-0.049 0.008-0.070 0.020s-0.041 0.027-0.056 0.047l-1.484 2.174c-0.025 0.037-0.054 0.031-0.064-0.012l-0.109-0.479c-0.006-0.022-0.018-0.041-0.036-0.055s-0.040-0.022-0.062-0.023h-0.954c-0.044 0-0.071 0.035-0.059 0.078l0.425 1.497c0.012 0.043 0.013 0.113 0.002 0.156l-0.189 0.725c-0.003 0.009-0.004 0.019-0.003 0.029s0.006 0.019 0.012 0.027c0.006 0.008 0.014 0.014 0.023 0.018s0.019 0.006 0.029 0.005h0.945c0.044 0 0.090-0.035 0.101-0.078l0.189-0.725c0.015-0.051 0.038-0.099 0.069-0.143l2.411-3.198c0.027-0.035 0.012-0.064-0.032-0.064l-0.253 0.002-0.003-0zM19.068 22.762c-0.006 0.047-0.050 0.083-0.095 0.083h-1.21c-0.042 0-0.063-0.028-0.057-0.064l0.001-0.006 0.006-0.020c0.118-0.307 0.351-0.509 0.793-0.509 0.498 0 0.595 0.243 0.561 0.517h0zM18.713 21.366c-1.552 0-1.92 0.942-2.126 1.893-0.206 0.969-0.189 1.876 1.418 1.876h0.255l0.196-0.001 1.022-0.006c0.023-0.001 0.044-0.009 0.061-0.023s0.030-0.034 0.035-0.056l0.155-0.759c0.009-0.044-0.020-0.079-0.064-0.079h-1.444c-0.574 0-0.745-0.153-0.682-0.601h2.308c0.038-0.001 0.072-0.024 0.085-0.059 0.002-0.006 0.005-0.013 0.006-0.020 0.343-1.292 0.244-2.163-1.224-2.163l-0-0.001zM11.376 22.757l-0.022 0.077c0 0-0.174 0.618-0.174 0.618l-0.174 0.618c-0.007 0.022-0.021 0.041-0.039 0.055s-0.040 0.022-0.063 0.023h-0.923c-0.7 0-0.87-0.547-0.7-1.355 0.17-0.826 0.504-1.339 1.193-1.391 0.941-0.071 1.129 0.591 0.903 1.355v0zM12.009 24.1c0 0 0.435-1.056 0.534-1.666 0.135-0.817-0.274-2.001-1.854-2.001-1.571 0-2.252 1.131-2.513 2.363-0.26 1.238 0.081 2.324 1.642 2.316l2.383-0.009c0.023-0.001 0.045-0.009 0.063-0.023s0.031-0.033 0.038-0.055l0.201-0.765c0.003-0.009 0.004-0.019 0.003-0.029s-0.005-0.019-0.011-0.027c-0.006-0.008-0.014-0.014-0.023-0.018s-0.019-0.006-0.029-0.005l-0.384-0.002c-0.038-0-0.059-0.024-0.055-0.057 0.001-0.006 0.002-0.012 0.005-0.018v-0.003z"></path>
<path fill="#fff" d="M19.783 23.394c0 0.029-0.024 0.053-0.053 0.053s-0.053-0.024-0.053-0.053c0-0.029 0.024-0.053 0.053-0.053s0.053 0.024 0.053 0.053z"></path>
</svg>
