<!-- Generated by IcoMoon.io -->
<svg version="1.1" xmlns="http://www.w3.org/2000/svg" width="32" height="32" viewBox="0 0 32 32">
<title>Laravel</title>
<path fill="#f4f2ed" d="M7.5 0h17c4.142 0 7.5 3.358 7.5 7.5v17c0 4.142-3.358 7.5-7.5 7.5h-17c-4.142 0-7.5-3.358-7.5-7.5v-17c0-4.142 3.358-7.5 7.5-7.5z"></path>
<path fill="#ff2d20" d="M26.981 9.789c0.008 0.030 0.012 0.062 0.012 0.093v4.9c0 0.063-0.016 0.125-0.047 0.179s-0.076 0.1-0.13 0.131l-4.056 2.368v4.693c0 0.128-0.067 0.246-0.176 0.31l-8.466 4.942c-0.019 0.011-0.040 0.018-0.062 0.026-0.008 0.003-0.015 0.008-0.024 0.010-0.059 0.016-0.121 0.016-0.181 0-0.010-0.003-0.018-0.008-0.028-0.012-0.019-0.007-0.040-0.013-0.058-0.024l-8.464-4.942c-0.054-0.031-0.098-0.076-0.13-0.131s-0.047-0.116-0.048-0.179v-14.7c0-0.032 0.004-0.063 0.012-0.094 0.003-0.010 0.009-0.020 0.012-0.030 0.007-0.019 0.013-0.038 0.022-0.055 0.007-0.012 0.016-0.021 0.024-0.032 0.010-0.014 0.019-0.029 0.031-0.042 0.010-0.010 0.023-0.018 0.035-0.027 0.013-0.011 0.024-0.022 0.039-0.031h0l4.232-2.471c0.054-0.031 0.114-0.048 0.176-0.048s0.123 0.016 0.176 0.048l4.233 2.471c0.014 0.009 0.026 0.020 0.039 0.030 0.011 0.009 0.024 0.017 0.034 0.027 0.012 0.013 0.021 0.028 0.032 0.042 0.008 0.011 0.018 0.020 0.024 0.032 0.010 0.018 0.016 0.037 0.023 0.055 0.004 0.010 0.010 0.020 0.012 0.030 0.008 0.030 0.012 0.062 0.012 0.093v9.181l3.527-2.059v-4.694c0-0.031 0.004-0.063 0.012-0.093 0.003-0.011 0.009-0.020 0.012-0.030 0.007-0.019 0.013-0.038 0.023-0.055 0.007-0.012 0.016-0.021 0.024-0.032 0.011-0.014 0.019-0.029 0.032-0.042 0.010-0.010 0.023-0.018 0.034-0.027 0.013-0.011 0.025-0.022 0.039-0.031h0l4.233-2.471c0.053-0.031 0.114-0.048 0.176-0.048s0.123 0.016 0.176 0.048l4.232 2.471c0.015 0.009 0.026 0.020 0.040 0.030 0.011 0.009 0.024 0.017 0.034 0.027 0.012 0.013 0.021 0.028 0.032 0.042 0.008 0.011 0.018 0.020 0.024 0.032 0.010 0.017 0.016 0.037 0.023 0.055 0.004 0.010 0.010 0.020 0.012 0.030v0zM26.288 14.576v-4.075l-3.527 2.059v4.075l3.527-2.059zM22.055 21.947v-4.077l-7.76 4.492v4.116l7.76-4.53zM5.831 8.072v13.874l7.759 4.53v-4.115l-4.057-2.328c-0.014-0.008-0.025-0.020-0.038-0.029-0.011-0.009-0.024-0.016-0.033-0.026l-0.001-0.001c-0.011-0.011-0.019-0.025-0.029-0.038s-0.019-0.022-0.026-0.035l-0.001-0.001c-0.008-0.013-0.013-0.029-0.018-0.045-0.006-0.013-0.013-0.026-0.017-0.040v-0c-0.004-0.017-0.005-0.035-0.007-0.052-0.002-0.013-0.005-0.027-0.005-0.040v-9.594l-3.527-2.059zM9.711 5.395l-3.526 2.058 3.525 2.058 3.526-2.059-3.525-2.058zM11.544 18.241l2.046-1.194v-8.975l-3.527 2.059v8.975l1.482-0.865zM22.408 7.824l-3.526 2.058 3.526 2.058 3.525-2.059-3.525-2.058zM22.055 12.56l-3.527-2.059v4.075l3.527 2.059v-4.075zM13.942 21.742l7.757-4.49-3.523-2.057-7.754 4.527 3.52 2.020z"></path>
</svg>
