<!-- Generated by IcoMoon.io -->
<svg version="1.1" xmlns="http://www.w3.org/2000/svg" width="32" height="32" viewBox="0 0 32 32">
<title>LinkedIn</title>
<path fill="#fff" d="M7.5 0h17c4.142 0 7.5 3.358 7.5 7.5v17c0 4.142-3.358 7.5-7.5 7.5h-17c-4.142 0-7.5-3.358-7.5-7.5v-17c0-4.142 3.358-7.5 7.5-7.5z"></path>
<path fill="#0a66c2" d="M7.5 0h17c4.142 0 7.5 3.358 7.5 7.5v17c0 4.142-3.358 7.5-7.5 7.5h-17c-4.142 0-7.5-3.358-7.5-7.5v-17c0-4.142 3.358-7.5 7.5-7.5z"></path>
<path fill="#fff" d="M23.089 27.211h3.659c0.276 0 0.5-0.224 0.5-0.5l0.002-7.73c0-4.040-0.871-7.146-5.592-7.146-1.795-0.067-3.488 0.859-4.401 2.404-0.007 0.012-0.020 0.020-0.035 0.020-0.022 0-0.040-0.018-0.040-0.040v-1.51c0-0.276-0.224-0.5-0.5-0.5h-3.472c-0.276 0-0.5 0.224-0.5 0.5v14.003c0 0.276 0.224 0.5 0.5 0.5h3.659c0.276 0 0.5-0.224 0.5-0.5v-6.922c0-1.957 0.371-3.852 2.798-3.852 2.392 0 2.423 2.239 2.423 3.979v6.796c0 0.276 0.224 0.5 0.5 0.5z"></path>
<path fill="#fff" d="M4.75 7.453c0 1.483 1.221 2.703 2.704 2.703s2.703-1.221 2.703-2.704c-0-1.483-1.22-2.703-2.703-2.703s-2.703 1.22-2.703 2.703z"></path>
<path fill="#fff" d="M5.62 27.211h3.663c0.276 0 0.5-0.224 0.5-0.5v-14.003c0-0.276-0.224-0.5-0.5-0.5h-3.663c-0.276 0-0.5 0.224-0.5 0.5v14.003c0 0.276 0.224 0.5 0.5 0.5z"></path>
</svg>
