<!-- Generated by IcoMoon.io -->
<svg version="1.1" xmlns="http://www.w3.org/2000/svg" width="32" height="32" viewBox="0 0 32 32">
<title>Markdown-Dark</title>
<path fill="#242938" d="M7.5 0h17c4.142 0 7.5 3.358 7.5 7.5v17c0 4.142-3.358 7.5-7.5 7.5h-17c-4.142 0-7.5-3.358-7.5-7.5v-17c0-4.142 3.358-7.5 7.5-7.5z"></path>
<path fill="none" stroke="#fff" stroke-linejoin="miter" stroke-linecap="butt" stroke-miterlimit="4" stroke-width="1.25" d="M27.125 8.625h-22.25c-0.69 0-1.25 0.56-1.25 1.25v12.25c0 0.69 0.56 1.25 1.25 1.25h22.25c0.69 0 1.25-0.56 1.25-1.25v-12.25c0-0.69-0.56-1.25-1.25-1.25z"></path>
<path fill="#fff" d="M6.75 20.25v-8.5h2.5l2.5 3.125 2.5-3.125h2.5v8.5h-2.5v-4.875l-2.5 3.125-2.5-3.125v4.875h-2.5zM22.375 20.25l-3.75-4.125h2.5v-4.375h2.5v4.375h2.5l-3.75 4.125z"></path>
</svg>
