<!-- Generated by IcoMoon.io -->
<svg version="1.1" xmlns="http://www.w3.org/2000/svg" width="32" height="32" viewBox="0 0 32 32">
<title>MongoDB</title>
<path fill="#023430" d="M7.5 0h17c4.142 0 7.5 3.358 7.5 7.5v17c0 4.142-3.358 7.5-7.5 7.5h-17c-4.142 0-7.5-3.358-7.5-7.5v-17c0-4.142 3.358-7.5 7.5-7.5z"></path>
<path fill="#10aa50" d="M21.397 13.449c-1.317-5.81-4.062-7.357-4.762-8.45-0.289-0.482-0.545-0.982-0.766-1.499-0.037 0.516-0.105 0.841-0.544 1.233-0.881 0.785-4.622 3.834-4.937 10.436-0.293 6.155 4.525 9.951 5.162 10.343 0.489 0.241 1.086 0.005 1.377-0.216 2.323-1.594 5.496-5.844 4.473-11.847z"></path>
<path fill="#b8c4c2" d="M16.068 22.234c-0.121 1.523-0.208 2.409-0.516 3.279 0 0 0.202 1.45 0.344 2.987h0.502c0.12-1.082 0.303-2.156 0.548-3.216-0.65-0.32-0.853-1.713-0.878-3.050z"></path>
<path fill="#12924f" d="M16.946 25.284c-0.657-0.304-0.847-1.726-0.877-3.050 0.163-2.185 0.21-4.378 0.142-6.568-0.035-1.149 0.016-10.645-0.283-12.035 0.205 0.471 0.441 0.928 0.706 1.367 0.7 1.094 3.446 2.641 4.762 8.451 1.025 5.993-2.131 10.231-4.451 11.835z"></path>
</svg>
