<!-- Generated by IcoMoon.io -->
<svg version="1.1" xmlns="http://www.w3.org/2000/svg" width="32" height="32" viewBox="0 0 32 32">
<title>MySQL</title>
<path fill="#f4f2ed" d="M7.5 0h17c4.142 0 7.5 3.358 7.5 7.5v17c0 4.142-3.358 7.5-7.5 7.5h-17c-4.142 0-7.5-3.358-7.5-7.5v-17c0-4.142 3.358-7.5 7.5-7.5z"></path>
<path fill="#00678c" d="M25.475 22.276c-1.224-0.034-2.173 0.091-2.969 0.426-0.229 0.092-0.597 0.092-0.627 0.38 0.122 0.121 0.137 0.319 0.245 0.487 0.183 0.304 0.505 0.714 0.796 0.927l0.979 0.7c0.597 0.365 1.27 0.578 1.851 0.943 0.337 0.213 0.673 0.487 1.010 0.715 0.172 0.122 0.275 0.32 0.49 0.395v-0.046c-0.107-0.136-0.138-0.334-0.244-0.487l-0.46-0.441c-0.443-0.593-0.995-1.11-1.591-1.536-0.49-0.335-1.561-0.791-1.759-1.353l-0.030-0.034c0.336-0.034 0.734-0.152 1.056-0.244 0.521-0.136 0.995-0.106 1.53-0.243l0.735-0.213v-0.136c-0.276-0.274-0.474-0.639-0.765-0.897-0.78-0.669-1.638-1.323-2.525-1.871-0.474-0.304-1.087-0.502-1.591-0.76-0.184-0.091-0.49-0.137-0.597-0.289-0.276-0.334-0.429-0.776-0.628-1.171l-1.255-2.646c-0.275-0.593-0.444-1.186-0.78-1.734-1.576-2.585-3.29-4.152-5.922-5.688-0.566-0.319-1.239-0.457-1.955-0.624l-1.148-0.061c-0.245-0.106-0.49-0.395-0.704-0.532-0.872-0.547-3.122-1.734-3.765-0.17-0.413 0.988 0.612 1.962 0.96 2.464 0.261 0.35 0.597 0.745 0.781 1.14 0.103 0.258 0.137 0.532 0.245 0.806 0.245 0.669 0.474 1.415 0.796 2.038 0.171 0.319 0.352 0.654 0.566 0.943 0.122 0.17 0.337 0.243 0.382 0.517-0.214 0.304-0.229 0.76-0.352 1.141-0.551 1.718-0.337 3.848 0.443 5.113 0.245 0.38 0.823 1.217 1.607 0.897 0.689-0.274 0.535-1.14 0.734-1.901 0.046-0.182 0.015-0.304 0.107-0.426v0.034l0.628 1.262c0.474 0.745 1.301 1.521 1.989 2.038 0.367 0.274 0.658 0.745 1.117 0.913v-0.046h-0.030c-0.092-0.136-0.23-0.198-0.352-0.304-0.275-0.274-0.581-0.608-0.796-0.912-0.642-0.852-1.208-1.795-1.713-2.768-0.245-0.471-0.46-0.988-0.658-1.46-0.093-0.183-0.093-0.457-0.245-0.547-0.23 0.334-0.566 0.624-0.735 1.034-0.291 0.654-0.321 1.46-0.428 2.296-0.062 0.015-0.034 0-0.062 0.034-0.489-0.121-0.658-0.624-0.841-1.049-0.459-1.080-0.536-2.813-0.138-4.061 0.107-0.319 0.567-1.323 0.383-1.627-0.093-0.289-0.398-0.456-0.567-0.684-0.199-0.289-0.413-0.654-0.55-0.973-0.367-0.852-0.55-1.795-0.949-2.646-0.184-0.395-0.505-0.806-0.766-1.171-0.291-0.411-0.612-0.7-0.841-1.186-0.077-0.17-0.183-0.441-0.061-0.624 0.030-0.122 0.092-0.17 0.214-0.198 0.199-0.17 0.766 0.046 0.964 0.136 0.566 0.228 1.040 0.441 1.515 0.76 0.214 0.152 0.444 0.441 0.72 0.517h0.322c0.49 0.106 1.040 0.034 1.499 0.17 0.811 0.259 1.545 0.639 2.204 1.050 2.004 1.262 3.657 3.057 4.774 5.201 0.183 0.35 0.26 0.669 0.429 1.034 0.322 0.745 0.72 1.506 1.040 2.236 0.322 0.715 0.628 1.445 1.087 2.038 0.23 0.319 1.148 0.486 1.561 0.654 0.306 0.136 0.78 0.259 1.056 0.426 0.52 0.319 1.040 0.684 1.53 1.034 0.244 0.182 1.010 0.562 1.056 0.866l0.002-0.008zM9.87 9.061c-0.211-0.002-0.422 0.024-0.627 0.076v0.034h0.030c0.122 0.243 0.337 0.411 0.49 0.624l0.352 0.73 0.030-0.034c0.214-0.152 0.322-0.395 0.322-0.76-0.092-0.106-0.107-0.213-0.184-0.319-0.092-0.152-0.291-0.228-0.414-0.35v-0.001z"></path>
</svg>
