<!-- Generated by IcoMoon.io -->
<svg version="1.1" xmlns="http://www.w3.org/2000/svg" width="32" height="32" viewBox="0 0 32 32">
<title>NextJS</title>
<path fill="#f4f2ed" d="M7.5 0h17c4.142 0 7.5 3.358 7.5 7.5v17c0 4.142-3.358 7.5-7.5 7.5h-17c-4.142 0-7.5-3.358-7.5-7.5v-17c0-4.142 3.358-7.5 7.5-7.5z"></path>
<path fill="#000" d="M15.181 3.507c-0.054 0.005-0.225 0.022-0.379 0.034-3.551 0.32-6.877 2.236-8.983 5.181-1.173 1.637-1.923 3.495-2.207 5.462-0.1 0.687-0.112 0.89-0.112 1.821s0.012 1.134 0.112 1.821c0.679 4.694 4.020 8.639 8.551 10.1 0.811 0.262 1.667 0.44 2.639 0.547 0.379 0.041 2.016 0.041 2.395 0 1.679-0.186 3.101-0.601 4.504-1.317 0.215-0.11 0.257-0.139 0.227-0.164-0.020-0.015-0.936-1.244-2.036-2.73l-1.999-2.7-2.505-3.707c-1.378-2.038-2.512-3.705-2.522-3.705-0.010-0.002-0.020 1.645-0.024 3.656-0.007 3.521-0.010 3.663-0.054 3.746-0.063 0.12-0.112 0.169-0.215 0.223-0.078 0.039-0.147 0.046-0.516 0.046h-0.423l-0.112-0.071c-0.073-0.046-0.127-0.108-0.164-0.178l-0.051-0.11 0.005-4.9 0.007-4.902 0.076-0.095c0.039-0.051 0.122-0.117 0.181-0.149 0.1-0.049 0.139-0.054 0.562-0.054 0.499 0 0.582 0.020 0.711 0.161 0.037 0.039 1.393 2.082 3.016 4.543s3.842 5.821 4.931 7.471l1.98 2.999 0.1-0.066c0.887-0.577 1.826-1.398 2.568-2.253 1.581-1.816 2.6-4.030 2.942-6.39 0.1-0.687 0.112-0.89 0.112-1.821s-0.012-1.134-0.112-1.821c-0.679-4.694-4.020-8.639-8.551-10.1-0.799-0.259-1.649-0.437-2.603-0.545-0.235-0.024-1.85-0.051-2.053-0.032zM20.299 11.068c0.117 0.059 0.213 0.171 0.247 0.288 0.020 0.064 0.024 1.422 0.020 4.484l-0.007 4.394-0.775-1.188-0.777-1.188v-3.194c0-2.065 0.010-3.226 0.024-3.282 0.039-0.137 0.125-0.244 0.242-0.308 0.1-0.051 0.137-0.056 0.52-0.056 0.362 0 0.425 0.005 0.506 0.049z"></path>
</svg>
