<!-- Generated by IcoMoon.io -->
<svg version="1.1" xmlns="http://www.w3.org/2000/svg" width="32" height="32" viewBox="0 0 32 32">
<title>NodeJS</title>
<path fill="#f4f2ed" d="M7.5 0h17c4.142 0 7.5 3.358 7.5 7.5v17c0 4.142-3.358 7.5-7.5 7.5h-17c-4.142 0-7.5-3.358-7.5-7.5v-17c0-4.142 3.358-7.5 7.5-7.5z"></path>
<path fill="#81cd39" d="M14.985 3.89c0.615-0.352 1.416-0.353 2.030 0 3.090 1.746 6.181 3.49 9.271 5.237 0.581 0.327 0.97 0.974 0.964 1.644v10.506c0.004 0.697-0.423 1.36-1.036 1.68-3.080 1.737-6.159 3.475-9.238 5.212-0.627 0.359-1.444 0.331-2.052-0.057-0.923-0.535-1.848-1.068-2.772-1.603-0.189-0.113-0.401-0.202-0.535-0.385 0.118-0.159 0.328-0.178 0.5-0.248 0.385-0.123 0.739-0.319 1.094-0.51 0.090-0.061 0.199-0.038 0.285 0.017 0.79 0.453 1.572 0.919 2.365 1.367 0.169 0.098 0.34-0.032 0.485-0.113 3.023-1.708 6.049-3.41 9.071-5.119 0.112-0.054 0.174-0.173 0.165-0.295 0.002-3.466 0-6.932 0.001-10.397 0.013-0.139-0.068-0.267-0.194-0.324-3.069-1.729-6.137-3.46-9.206-5.189-0.109-0.075-0.252-0.075-0.361-0.001-3.069 1.73-6.136 3.462-9.205 5.191-0.125 0.057-0.21 0.183-0.195 0.323 0.001 3.466 0 6.932 0 10.398-0.011 0.123 0.056 0.239 0.167 0.292 0.819 0.464 1.639 0.925 2.458 1.388 0.462 0.248 1.028 0.396 1.537 0.206 0.449-0.161 0.763-0.619 0.755-1.096 0.004-3.445-0.002-6.891 0.003-10.336-0.011-0.153 0.134-0.279 0.283-0.265 0.394-0.003 0.787-0.005 1.181 0.001 0.164-0.004 0.277 0.161 0.257 0.315-0.002 3.467 0.004 6.934-0.003 10.402 0.001 0.924-0.379 1.93-1.233 2.382-1.053 0.545-2.354 0.43-3.395-0.093-0.901-0.45-1.76-0.98-2.644-1.462-0.615-0.318-1.040-0.983-1.035-1.68v-10.506c-0.006-0.684 0.398-1.342 0.997-1.665 3.080-1.738 6.159-3.477 9.238-5.216z"></path>
<path fill="#81cd39" d="M17.672 11.167c1.343-0.086 2.781-0.051 3.99 0.61 0.936 0.507 1.455 1.571 1.471 2.611-0.026 0.14-0.173 0.217-0.307 0.208-0.39-0.001-0.779 0.005-1.169-0.003-0.165 0.006-0.261-0.146-0.282-0.292-0.112-0.498-0.383-0.99-0.852-1.23-0.719-0.36-1.552-0.342-2.336-0.334-0.572 0.030-1.187 0.080-1.672 0.416-0.372 0.255-0.485 0.769-0.352 1.184 0.125 0.297 0.469 0.393 0.75 0.482 1.619 0.423 3.334 0.381 4.922 0.938 0.657 0.227 1.3 0.669 1.526 1.357 0.294 0.922 0.165 2.025-0.491 2.765-0.532 0.609-1.307 0.941-2.081 1.121-1.029 0.229-2.096 0.235-3.14 0.133-0.982-0.112-2.004-0.37-2.762-1.039-0.648-0.563-0.965-1.44-0.934-2.287 0.008-0.143 0.15-0.243 0.287-0.231 0.392-0.003 0.785-0.004 1.177 0.001 0.157-0.011 0.273 0.124 0.281 0.272 0.072 0.474 0.251 0.971 0.664 1.252 0.798 0.515 1.799 0.479 2.712 0.494 0.756-0.034 1.606-0.044 2.223-0.544 0.326-0.285 0.422-0.762 0.334-1.173-0.095-0.347-0.458-0.508-0.769-0.614-1.598-0.505-3.332-0.322-4.915-0.894-0.643-0.227-1.264-0.656-1.511-1.316-0.344-0.934-0.187-2.090 0.539-2.805 0.707-0.712 1.727-0.986 2.698-1.084v0z"></path>
</svg>
