<!-- Generated by IcoMoon.io -->
<svg version="1.1" xmlns="http://www.w3.org/2000/svg" width="32" height="32" viewBox="0 0 32 32">
<title>Photoshop</title>
<path fill="#001e36" d="M7.5 0h17c4.142 0 7.5 3.358 7.5 7.5v17c0 4.142-3.358 7.5-7.5 7.5h-17c-4.142 0-7.5-3.358-7.5-7.5v-17c0-4.142 3.358-7.5 7.5-7.5z"></path>
<path fill="#31a8ff" d="M7.2 22.255v-13.72c0-0.093 0.040-0.147 0.133-0.147 0.227 0 0.44 0 0.747-0.013 0.32-0.013 0.653-0.013 1.013-0.027s0.747-0.013 1.16-0.027c0.413-0.013 0.813-0.013 1.213-0.013 1.093 0 2 0.133 2.747 0.413 0.667 0.227 1.28 0.6 1.787 1.093 0.427 0.427 0.76 0.947 0.973 1.52 0.2 0.56 0.307 1.133 0.307 1.733 0 1.147-0.267 2.093-0.8 2.84s-1.28 1.307-2.147 1.627c-0.907 0.333-1.907 0.453-3 0.453-0.32 0-0.533 0-0.667-0.013s-0.32-0.013-0.573-0.013v4.28c0.013 0.093-0.053 0.173-0.147 0.187-0.013 0-0.027 0-0.053 0h-2.533c-0.107 0-0.16-0.053-0.16-0.173zM10.107 10.962v4.48c0.187 0.013 0.36 0.027 0.52 0.027h0.707c0.52 0 1.040-0.080 1.533-0.24 0.427-0.12 0.8-0.373 1.093-0.707 0.28-0.333 0.413-0.787 0.413-1.373 0.013-0.413-0.093-0.827-0.307-1.187-0.227-0.347-0.547-0.613-0.933-0.76-0.493-0.2-1.027-0.28-1.573-0.267-0.347 0-0.653 0-0.907 0.013-0.267-0.013-0.453 0-0.547 0.013z"></path>
<path fill="#31a8ff" d="M25.6 14.628c-0.4-0.213-0.827-0.36-1.28-0.453-0.493-0.107-0.987-0.173-1.493-0.173-0.267-0.013-0.547 0.027-0.8 0.093-0.173 0.040-0.32 0.133-0.413 0.267-0.067 0.107-0.107 0.24-0.107 0.36s0.053 0.24 0.133 0.347c0.12 0.147 0.28 0.267 0.453 0.36 0.307 0.16 0.627 0.307 0.947 0.44 0.72 0.24 1.413 0.573 2.053 0.973 0.44 0.28 0.8 0.653 1.053 1.107 0.213 0.427 0.32 0.893 0.307 1.373 0.013 0.627-0.173 1.253-0.52 1.773-0.373 0.533-0.893 0.947-1.493 1.187-0.653 0.28-1.453 0.427-2.413 0.427-0.613 0-1.213-0.053-1.813-0.173-0.467-0.080-0.933-0.227-1.36-0.427-0.093-0.053-0.16-0.147-0.147-0.253v-2.32c0-0.040 0.013-0.093 0.053-0.12s0.080-0.013 0.12 0.013c0.52 0.307 1.067 0.52 1.653 0.653 0.507 0.133 1.040 0.2 1.573 0.2 0.507 0 0.867-0.067 1.107-0.187 0.213-0.093 0.36-0.32 0.36-0.56 0-0.187-0.107-0.36-0.32-0.533s-0.653-0.373-1.307-0.627c-0.68-0.24-1.307-0.56-1.893-0.96-0.413-0.293-0.76-0.68-1.013-1.133-0.213-0.427-0.32-0.893-0.307-1.36 0-0.573 0.16-1.12 0.453-1.613 0.333-0.533 0.827-0.96 1.4-1.227 0.627-0.32 1.413-0.467 2.36-0.467 0.547 0 1.107 0.040 1.653 0.12 0.4 0.053 0.787 0.16 1.147 0.307 0.053 0.013 0.107 0.067 0.133 0.12 0.013 0.053 0.027 0.107 0.027 0.16v2.173c0 0.053-0.027 0.107-0.067 0.133-0.12 0.027-0.187 0.027-0.24 0z"></path>
</svg>
