<!-- Generated by IcoMoon.io -->
<svg version="1.1" xmlns="http://www.w3.org/2000/svg" width="32" height="32" viewBox="0 0 32 32">
<title>Postman</title>
<path fill="#ff6c37" d="M7.5 0h17c4.142 0 7.5 3.358 7.5 7.5v17c0 4.142-3.358 7.5-7.5 7.5h-17c-4.142 0-7.5-3.358-7.5-7.5v-17c0-4.142 3.358-7.5 7.5-7.5z"></path>
<path fill="#eee" d="M21.133 11.077l-6.317 6.318-1.782-1.781c6.213-6.213 6.827-5.674 8.099-4.536z"></path>
<path fill="#ff6c37" d="M14.815 17.544c-0.045 0-0.075-0.015-0.105-0.045l-1.796-1.781c-0.060-0.060-0.060-0.15 0-0.21 6.318-6.318 6.976-5.719 8.309-4.521 0.030 0.030 0.045 0.060 0.045 0.105s-0.015 0.075-0.045 0.105l-6.318 6.303c-0.015 0.030-0.060 0.045-0.090 0.045zM13.243 15.613l1.572 1.572 6.093-6.093c-1.108-0.988-1.856-1.287-7.665 4.521z"></path>
<path fill="#eee" d="M16.627 19.206l-1.722-1.722 6.318-6.318c1.692 1.707-0.838 4.476-4.596 8.039z"></path>
<path fill="#ff6c37" d="M16.627 19.355c-0.045 0-0.075-0.015-0.105-0.045l-1.722-1.722c-0.030-0.030-0.030-0.060-0.030-0.105s0.015-0.075 0.045-0.105l6.317-6.318c0.060-0.060 0.15-0.060 0.21 0 0.389 0.359 0.599 0.868 0.584 1.392-0.030 1.662-1.916 3.773-5.18 6.857-0.045 0.030-0.090 0.045-0.12 0.045zM15.114 17.484c0.958 0.973 1.362 1.362 1.512 1.512 2.515-2.395 4.955-4.851 4.97-6.542 0.015-0.389-0.135-0.778-0.389-1.078l-6.093 6.108z"></path>
<path fill="#eee" d="M13.063 15.658l1.272 1.272c0.030 0.030 0.030 0.060 0 0.090-0.015 0.015-0.015 0.015-0.030 0.015l-2.635 0.569c-0.135 0.015-0.254-0.075-0.284-0.21-0.015-0.075 0.015-0.15 0.060-0.195l1.527-1.527c0.030-0.030 0.075-0.045 0.090-0.015z"></path>
<path fill="#ff6c37" d="M11.626 17.753c-0.225 0-0.389-0.18-0.389-0.404 0-0.105 0.045-0.209 0.12-0.284l1.527-1.527c0.090-0.075 0.21-0.075 0.3 0l1.272 1.272c0.090 0.075 0.090 0.21 0 0.299-0.030 0.030-0.060 0.045-0.105 0.060l-2.635 0.569c-0.030 0-0.060 0.015-0.090 0.015zM13.019 15.822l-1.467 1.467c-0.030 0.030-0.045 0.075-0.015 0.12 0.015 0.045 0.060 0.060 0.105 0.045l2.47-0.539-1.093-1.093z"></path>
<path fill="#eee" d="M24.471 7.573c-0.958-0.928-2.5-0.898-3.428 0.075s-0.898 2.5 0.075 3.428c0.794 0.763 1.991 0.898 2.934 0.329l-1.707-1.707 2.126-2.126z"></path>
<path fill="#ff6c37" d="M22.794 11.9c-1.422 0-2.575-1.153-2.575-2.575s1.153-2.575 2.575-2.575c0.659 0 1.302 0.255 1.782 0.719 0.030 0.030 0.045 0.060 0.045 0.105s-0.015 0.075-0.045 0.105l-2.021 2.021 1.587 1.587c0.060 0.060 0.060 0.15 0 0.21-0.015 0.015-0.015 0.015-0.030 0.030-0.389 0.239-0.853 0.374-1.317 0.374zM22.794 7.064c-1.258 0-2.276 1.018-2.261 2.276 0 1.258 1.018 2.276 2.276 2.261 0.344 0 0.689-0.075 1.003-0.24l-1.572-1.557c-0.030-0.030-0.045-0.060-0.045-0.105s0.015-0.075 0.045-0.105l2.006-2.006c-0.404-0.344-0.913-0.524-1.452-0.524z"></path>
<path fill="#eee" d="M24.516 7.618l-0.030-0.030-2.141 2.111 1.692 1.692c0.165-0.105 0.329-0.225 0.464-0.359 0.958-0.943 0.958-2.47 0.015-3.413z"></path>
<path fill="#ff6c37" d="M24.052 11.556c-0.045 0-0.075-0.015-0.105-0.045l-1.707-1.707c-0.030-0.030-0.045-0.060-0.045-0.105s0.015-0.075 0.045-0.105l2.126-2.126c0.060-0.060 0.15-0.060 0.21 0l0.045 0.030c1.003 1.003 1.003 2.62 0.015 3.638-0.15 0.15-0.314 0.284-0.494 0.389-0.045 0.015-0.075 0.030-0.090 0.030zM22.555 9.699l1.512 1.512c0.12-0.075 0.239-0.18 0.329-0.269 0.853-0.853 0.898-2.246 0.075-3.144l-1.916 1.901z"></path>
<path fill="#eee" d="M21.387 11.346c-0.359-0.359-0.943-0.359-1.302 0l-5.644 5.644 0.943 0.943 5.973-5.24c0.389-0.329 0.419-0.913 0.090-1.303-0.030-0.015-0.045-0.030-0.060-0.045z"></path>
<path fill="#ff6c37" d="M15.369 18.083c-0.045 0-0.075-0.015-0.105-0.045l-0.943-0.943c-0.060-0.060-0.060-0.15 0-0.21l5.644-5.644c0.419-0.419 1.093-0.419 1.512 0s0.419 1.093 0 1.512c-0.015 0.015-0.030 0.030-0.045 0.045l-5.973 5.24c-0.015 0.030-0.045 0.045-0.090 0.045zM14.65 16.99l0.734 0.734 5.869-5.15c0.329-0.269 0.359-0.764 0.090-1.093s-0.764-0.359-1.093-0.090c-0.015 0.015-0.030 0.030-0.060 0.045l-5.539 5.554z"></path>
<path fill="#eee" d="M10.114 23.413c-0.060 0.030-0.090 0.090-0.075 0.15l0.255 1.078c0.060 0.15-0.030 0.329-0.195 0.374-0.12 0.045-0.254 0-0.329-0.090l-1.647-1.632 5.374-5.375 1.856 0.030 1.258 1.258c-0.299 0.255-2.111 2.006-6.497 4.207z"></path>
<path fill="#ff6c37" d="M9.994 25.164c-0.12 0-0.239-0.045-0.314-0.135l-1.632-1.632c-0.030-0.030-0.045-0.060-0.045-0.105s0.015-0.075 0.045-0.105l5.374-5.374c0.030-0.030 0.075-0.045 0.105-0.045l1.856 0.030c0.045 0 0.075 0.015 0.105 0.045l1.258 1.258c0.030 0.030 0.045 0.075 0.045 0.12s-0.015 0.075-0.060 0.105l-0.105 0.090c-1.587 1.392-3.743 2.785-6.422 4.117l0.255 1.063c0.045 0.195-0.045 0.404-0.225 0.509-0.090 0.045-0.165 0.060-0.24 0.060zM8.348 23.293l1.542 1.527c0.045 0.075 0.135 0.105 0.21 0.060s0.105-0.135 0.060-0.21l-0.254-1.078c-0.030-0.135 0.030-0.255 0.15-0.314 2.65-1.332 4.791-2.71 6.363-4.072l-1.108-1.108-1.722-0.030-5.24 5.225z"></path>
<path fill="#eee" d="M6.851 24.58l1.288-1.288 1.916 1.916-3.054-0.209c-0.135-0.015-0.225-0.135-0.21-0.27 0-0.060 0.015-0.12 0.060-0.15z"></path>
<path fill="#ff6c37" d="M10.054 25.344l-3.069-0.21c-0.225-0.015-0.374-0.209-0.359-0.434 0.015-0.090 0.045-0.18 0.12-0.239l1.288-1.288c0.060-0.060 0.15-0.060 0.21 0l1.916 1.916c0.045 0.045 0.060 0.105 0.030 0.165s-0.075 0.090-0.135 0.090zM8.138 23.502l-1.183 1.183c-0.045 0.030-0.045 0.105 0 0.135 0.015 0.015 0.030 0.030 0.060 0.030l2.65 0.18-1.527-1.527z"></path>
<path fill="#ff6c37" d="M12.974 18.607c-0.090 0-0.15-0.075-0.15-0.15 0-0.045 0.015-0.075 0.045-0.105l1.452-1.452c0.060-0.060 0.15-0.060 0.21 0l0.943 0.943c0.045 0.045 0.060 0.090 0.045 0.15-0.015 0.045-0.060 0.090-0.12 0.105l-2.395 0.509c-0.015 0-0.030 0-0.030 0zM14.426 17.215l-0.988 0.988 1.617-0.345-0.629-0.644z"></path>
<path fill="#eee" d="M15.354 17.948l-1.647 0.359c-0.12 0.030-0.24-0.045-0.27-0.165-0.015-0.075 0-0.15 0.060-0.21l0.913-0.913 0.943 0.928z"></path>
<path fill="#ff6c37" d="M13.677 18.457c-0.21 0-0.374-0.165-0.374-0.374 0-0.105 0.045-0.195 0.105-0.269l0.913-0.913c0.060-0.060 0.15-0.060 0.21 0l0.943 0.943c0.045 0.045 0.060 0.090 0.045 0.15-0.015 0.045-0.060 0.090-0.12 0.105l-1.647 0.359c-0.030 0-0.060 0-0.075 0zM14.426 17.215l-0.808 0.808c-0.030 0.030-0.030 0.060-0.015 0.090s0.045 0.045 0.090 0.045l1.377-0.299-0.644-0.644z"></path>
<path fill="#ff6c37" d="M24.531 9.055c-0.030-0.090-0.135-0.135-0.225-0.105s-0.135 0.135-0.105 0.225c0 0.015 0.015 0.030 0.015 0.045 0.090 0.18 0.060 0.404-0.060 0.569-0.060 0.075-0.045 0.18 0.015 0.24 0.075 0.060 0.18 0.045 0.239-0.030 0.225-0.284 0.27-0.644 0.12-0.943z"></path>
</svg>
