<!-- Generated by IcoMoon.io -->
<svg version="1.1" xmlns="http://www.w3.org/2000/svg" width="32" height="32" viewBox="0 0 32 32">
<title>PostgreSQL</title>
<path fill="#f4f2ed" d="M7.5 0h17c4.142 0 7.5 3.358 7.5 7.5v17c0 4.142-3.358 7.5-7.5 7.5h-17c-4.142 0-7.5-3.358-7.5-7.5v-17c0-4.142 3.358-7.5 7.5-7.5z"></path>
<path fill="#000" d="M21.434 21.129c0.143-1.193 0.1-1.367 0.988-1.174l0.226 0.020c0.683 0.031 1.576-0.11 2.109-0.353 1.13-0.524 1.799-1.399 0.686-1.169-2.54 0.524-2.725-0.337-2.725-0.337 2.683-3.981 3.806-9.035 2.836-10.272-2.64-3.375-7.212-1.779-7.288-1.737l-0.025 0.004c-0.501-0.105-1.055-0.167-1.696-0.176-1.149-0.018-2.021 0.301-2.684 0.803 0 0-8.154-3.359-7.775 4.225 0.081 1.614 2.312 12.217 4.975 9.009 0.975-1.172 1.915-2.163 1.915-2.163 0.466 0.31 1.026 0.468 1.612 0.411l0.046-0.039c-0.014 0.152-0.007 0.305 0.018 0.455-0.685 0.766-0.483 0.901-1.854 1.183-1.387 0.286-0.571 0.794-0.040 0.928 0.645 0.162 2.138 0.39 3.146-1.021l-0.040 0.161c0.269 0.215 0.25 1.547 0.29 2.498s0.102 1.84 0.296 2.363c0.194 0.523 0.422 1.872 2.224 1.494 1.506-0.323 2.657-0.788 2.762-5.106z"></path>
<path fill="none" stroke="#000" stroke-linejoin="miter" stroke-linecap="butt" stroke-miterlimit="4" stroke-width="1.8887" d="M21.434 21.129c0.143-1.193 0.1-1.367 0.988-1.174l0.226 0.020c0.683 0.031 1.576-0.11 2.109-0.353 1.13-0.524 1.799-1.399 0.686-1.169-2.54 0.524-2.725-0.337-2.725-0.337 2.683-3.981 3.806-9.035 2.836-10.272-2.64-3.375-7.212-1.779-7.288-1.737l-0.025 0.004c-0.501-0.105-1.055-0.167-1.696-0.176-1.149-0.018-2.021 0.301-2.684 0.803 0 0-8.154-3.359-7.775 4.225 0.081 1.614 2.312 12.217 4.975 9.009 0.975-1.172 1.915-2.163 1.915-2.163 0.466 0.31 1.026 0.468 1.612 0.411l0.046-0.039c-0.014 0.152-0.007 0.305 0.018 0.455-0.685 0.766-0.483 0.901-1.854 1.183-1.387 0.286-0.571 0.794-0.040 0.928 0.645 0.162 2.138 0.39 3.146-1.021l-0.040 0.161c0.269 0.215 0.25 1.547 0.29 2.498s0.102 1.84 0.296 2.363c0.194 0.523 0.422 1.872 2.224 1.494 1.506-0.323 2.657-0.788 2.762-5.106"></path>
<path fill="#336791" d="M25.435 18.461c-2.54 0.524-2.724-0.337-2.724-0.337 2.683-3.982 3.806-9.035 2.837-10.272-2.64-3.375-7.211-1.778-7.288-1.737l-0.025 0.004c-0.558-0.112-1.126-0.171-1.695-0.177-1.15-0.018-2.021 0.301-2.684 0.803 0 0-8.155-3.359-7.775 4.225 0.081 1.614 2.312 12.217 4.975 9.009 0.981-1.18 1.921-2.17 1.921-2.17 0.466 0.31 1.026 0.468 1.612 0.411l0.046-0.039c-0.013 0.152-0.007 0.305 0.018 0.455-0.685 0.766-0.483 0.901-1.854 1.183-1.387 0.286-0.571 0.794-0.040 0.928 0.645 0.162 2.138 0.39 3.146-1.021l-0.040 0.161c0.269 0.215 0.457 1.4 0.425 2.474s-0.053 1.811 0.158 2.387c0.211 0.577 0.422 1.872 2.224 1.494 1.506-0.323 2.285-1.16 2.395-2.554 0.077-0.991 0.251-0.846 0.264-1.732l0.141-0.42c0.161-1.345 0.026-1.778 0.954-1.576l0.226 0.020c0.683 0.031 1.577-0.11 2.101-0.353 1.129-0.524 1.799-1.399 0.686-1.169h-0.001z"></path>
<path fill="none" stroke="#fff" stroke-linejoin="round" stroke-linecap="round" stroke-miterlimit="4" stroke-width="0.6292" d="M18.259 6.074c-0.281 0.088 4.539-1.762 7.279 1.739 0.967 1.237-0.154 6.29-2.837 10.272M16.012 19.223c-0.070 2.501 0.018 5.020 0.262 5.625s0.769 1.802 2.572 1.417c1.506-0.323 2.054-0.948 2.291-2.326l0.556-4.409-5.681-0.306zM13.852 6.684c0 0-8.16-3.336-7.78 4.248 0.081 1.614 2.312 12.217 4.975 9.009 0.972-1.172 1.851-2.088 1.851-2.088l0.954-11.168z"></path>
<path fill="none" stroke="#fff" stroke-linejoin="bevel" stroke-linecap="round" stroke-miterlimit="4" stroke-width="0.6292" d="M22.702 18.083c0 0 0.176 0.861 2.725 0.336 1.114-0.23 0.443 0.645-0.686 1.169-0.926 0.431-3.004 0.541-3.038-0.053-0.088-1.534 1.093-1.068 1.008-1.452-0.077-0.346-0.607-0.686-0.954-1.533-0.305-0.738-4.184-6.407 1.076-5.566 0.193-0.040-1.371-5.010-6.293-5.082s-4.766 6.051-4.766 6.051"></path>
<path fill="none" stroke="#fff" stroke-linejoin="round" stroke-linecap="butt" stroke-miterlimit="4" stroke-width="0.6292" d="M14.635 18.609c-0.685 0.766-0.483 0.901-1.854 1.183-1.387 0.286-0.571 0.794-0.040 0.928 0.645 0.162 2.138 0.39 3.146-1.022 0.308-0.431-0.002-1.116-0.424-1.29-0.204-0.084-0.476-0.19-0.826 0.202l-0.002-0.001z"></path>
<path fill="none" stroke="#fff" stroke-linejoin="round" stroke-linecap="round" stroke-miterlimit="4" stroke-width="0.6292" d="M14.59 18.595c-0.070-0.451 0.148-0.986 0.38-1.614 0.35-0.94 1.157-1.881 0.512-4.867-0.481-2.224-3.709-0.463-3.709-0.162s0.146 1.529-0.053 2.957c-0.261 1.865 1.187 3.442 2.853 3.281"></path>
<path fill="#fff" d="M13.822 11.909c-0.015 0.103 0.189 0.378 0.454 0.415s0.49-0.178 0.505-0.281c0.015-0.104-0.189-0.216-0.454-0.253s-0.492 0.018-0.505 0.12v0z"></path>
<path fill="#fff" d="M21.876 11.699c0.014 0.103-0.189 0.378-0.454 0.415s-0.492-0.178-0.505-0.281c-0.013-0.104 0.189-0.216 0.453-0.253s0.492 0.018 0.505 0.12z"></path>
<path fill="none" stroke="#fff" stroke-linejoin="round" stroke-linecap="round" stroke-miterlimit="4" stroke-width="0.6292" d="M22.822 10.986c0.044 0.809-0.174 1.358-0.202 2.218-0.040 1.25 0.596 2.681-0.363 4.113"></path>
</svg>
