<!-- Generated by IcoMoon.io -->
<svg version="1.1" xmlns="http://www.w3.org/2000/svg" width="32" height="32" viewBox="0 0 32 32">
<title>Powershell</title>
<path fill="#f4f2ed" d="M7.5 0h17c4.142 0 7.5 3.358 7.5 7.5v17c0 4.142-3.358 7.5-7.5 7.5h-17c-4.142 0-7.5-3.358-7.5-7.5v-17c0-4.142 3.358-7.5 7.5-7.5z"></path>
<path fill="#000" d="M4.551 25.406c-0.158 0.005-0.315-0.027-0.458-0.092s-0.27-0.163-0.37-0.285c-0.1-0.132-0.169-0.285-0.201-0.448s-0.028-0.331 0.014-0.491l3.747-16.366c0.083-0.339 0.275-0.642 0.545-0.863s0.606-0.347 0.955-0.36h18.667c0.158-0.005 0.314 0.027 0.458 0.093s0.27 0.163 0.37 0.285c0.1 0.132 0.169 0.286 0.201 0.448s0.028 0.33-0.014 0.491l-3.749 16.367c-0.083 0.339-0.275 0.642-0.546 0.863s-0.606 0.347-0.955 0.36l-18.665-0.001z"></path>
<path fill="#000" d="M8.782 6.711h18.667c0.131-0.005 0.261 0.021 0.379 0.076s0.222 0.139 0.301 0.243 0.133 0.225 0.155 0.354c0.023 0.129 0.014 0.261-0.026 0.386l-3.749 16.366c-0.074 0.292-0.24 0.553-0.473 0.744s-0.521 0.302-0.822 0.316h-18.665c-0.131 0.005-0.261-0.021-0.379-0.076s-0.222-0.139-0.301-0.243c-0.079-0.104-0.133-0.226-0.155-0.354s-0.014-0.261 0.026-0.386l3.749-16.366c0.074-0.292 0.239-0.552 0.472-0.743s0.52-0.302 0.821-0.317v0z"></path>
<path fill="#2c5591" d="M16.036 20.902h4.54c0.257 0.011 0.5 0.121 0.678 0.306s0.278 0.433 0.278 0.691-0.099 0.505-0.278 0.691c-0.178 0.186-0.421 0.296-0.678 0.306h-4.54c-0.257-0.011-0.5-0.121-0.678-0.306s-0.278-0.433-0.278-0.691 0.1-0.505 0.278-0.691c0.178-0.186 0.421-0.296 0.678-0.306v0z"></path>
<path fill="#2c5591" d="M18.981 16.47c-0.13 0.219-0.311 0.402-0.528 0.536l-8.426 6.048c-0.235 0.153-0.519 0.209-0.794 0.159s-0.521-0.205-0.685-0.432c-0.165-0.226-0.236-0.507-0.2-0.785s0.178-0.53 0.395-0.707l7.598-5.502v-0.113l-4.774-5.076c-0.178-0.214-0.268-0.488-0.25-0.766s0.14-0.539 0.343-0.729c0.203-0.191 0.471-0.296 0.75-0.296s0.546 0.107 0.748 0.299l5.729 6.094c0.154 0.172 0.247 0.389 0.263 0.619s-0.043 0.459-0.171 0.651z"></path>
<path fill="#fff" d="M18.767 16.259c-0.129 0.219-0.31 0.402-0.527 0.536l-8.423 6.049c-0.235 0.149-0.518 0.204-0.791 0.152s-0.517-0.206-0.68-0.431c-0.164-0.225-0.236-0.504-0.201-0.78s0.173-0.529 0.388-0.706l7.599-5.502v-0.113l-4.774-5.078c-0.18-0.214-0.271-0.489-0.254-0.768s0.139-0.541 0.343-0.732c0.204-0.191 0.473-0.297 0.752-0.296s0.548 0.11 0.75 0.303l5.728 6.094c0.155 0.172 0.247 0.39 0.264 0.621s-0.045 0.46-0.174 0.652v0z"></path>
<path fill="#fff" d="M15.911 20.785h4.54c0.251 0 0.491 0.1 0.669 0.277s0.277 0.418 0.277 0.668c0 0.251-0.1 0.491-0.277 0.669s-0.418 0.277-0.669 0.277h-4.54c-0.251 0-0.491-0.1-0.668-0.277s-0.277-0.418-0.277-0.669c0-0.251 0.1-0.491 0.277-0.668s0.418-0.277 0.668-0.277v0z"></path>
</svg>
