<!-- Generated by IcoMoon.io -->
<svg version="1.1" xmlns="http://www.w3.org/2000/svg" width="32" height="32" viewBox="0 0 32 32">
<title>Premiere</title>
<path fill="#00005b" d="M7.5 0h17c4.142 0 7.5 3.358 7.5 7.5v17c0 4.142-3.358 7.5-7.5 7.5h-17c-4.142 0-7.5-3.358-7.5-7.5v-17c0-4.142 3.358-7.5 7.5-7.5z"></path>
<path fill="#99f" d="M6.75 22.835v-13.733c0-0.093 0.040-0.147 0.133-0.147 0.227 0 0.44 0 0.747-0.013 0.32-0.013 0.653-0.013 1.013-0.027s0.747-0.013 1.16-0.027c0.413-0.013 0.813-0.013 1.213-0.013 1.093 0 2 0.133 2.747 0.413 0.667 0.227 1.28 0.6 1.787 1.093 0.427 0.427 0.76 0.947 0.973 1.52 0.2 0.56 0.307 1.133 0.307 1.733 0 1.147-0.267 2.093-0.8 2.84s-1.28 1.307-2.147 1.627c-0.907 0.333-1.907 0.453-3 0.453-0.32 0-0.533 0-0.667-0.013s-0.32-0.013-0.573-0.013v4.28c0.013 0.093-0.053 0.173-0.147 0.187h-2.587c-0.107 0-0.16-0.053-0.16-0.173v0.013zM9.657 11.542v4.48c0.187 0.013 0.36 0.027 0.52 0.027h0.707c0.52 0 1.040-0.080 1.533-0.24 0.427-0.12 0.8-0.373 1.093-0.707 0.28-0.333 0.413-0.787 0.413-1.373 0.013-0.413-0.093-0.827-0.307-1.187-0.227-0.347-0.547-0.613-0.933-0.76-0.493-0.2-1.027-0.28-1.573-0.267-0.347 0-0.653 0-0.907 0.013-0.267-0.013-0.453 0-0.547 0.013v0z"></path>
<path fill="#99f" d="M18.75 12.328h2.333c0.133 0 0.24 0.093 0.28 0.213 0.040 0.107 0.067 0.213 0.080 0.333 0.027 0.133 0.053 0.28 0.067 0.413 0.013 0.147 0.027 0.307 0.027 0.48 0.4-0.467 0.88-0.853 1.427-1.147 0.613-0.347 1.32-0.52 2.027-0.52 0.093-0.013 0.173 0.053 0.187 0.147v2.653c0 0.107-0.067 0.147-0.213 0.147-0.48-0.013-0.973 0.027-1.44 0.133-0.387 0.080-0.76 0.2-1.12 0.36-0.253 0.12-0.493 0.28-0.68 0.493v6.8c0 0.133-0.053 0.187-0.173 0.187h-2.627c-0.107 0.013-0.2-0.053-0.213-0.16v-7.44c0-0.32 0-0.653-0.013-1s-0.013-0.693-0.027-1.040c0-0.307-0.027-0.6-0.053-0.907-0.013-0.067 0.027-0.133 0.093-0.147 0-0.013 0.027-0.013 0.040 0v0z"></path>
</svg>
