<!-- Generated by IcoMoon.io -->
<svg version="1.1" xmlns="http://www.w3.org/2000/svg" width="32" height="32" viewBox="0 0 32 32">
<title>Prisma</title>
<path fill="#677eeb" d="M7.5 0h17c4.142 0 7.5 3.358 7.5 7.5v17c0 4.142-3.358 7.5-7.5 7.5h-17c-4.142 0-7.5-3.358-7.5-7.5v-17c0-4.142 3.358-7.5 7.5-7.5z"></path>
<path fill="#f7fafc" d="M6.582 20.648l4.337 6.842c0.281 0.444 0.824 0.646 1.328 0.495l12.516-3.755c0.683-0.205 1.027-0.967 0.728-1.615l-8.046-17.454c-0.392-0.851-1.575-0.921-2.065-0.122l-8.808 14.367c-0.234 0.382-0.23 0.863 0.009 1.241zM16.397 9.241c0.085-0.423 0.664-0.484 0.835-0.088l5.55 12.843c0.105 0.242-0.026 0.521-0.278 0.596l-8.648 2.581c-0.318 0.095-0.622-0.183-0.557-0.508l3.098-15.424z"></path>
</svg>
