<!-- Generated by IcoMoon.io -->
<svg version="1.1" xmlns="http://www.w3.org/2000/svg" width="32" height="32" viewBox="0 0 32 32">
<title>React</title>
<path fill="#242938" d="M7.5 0h17c4.142 0 7.5 3.358 7.5 7.5v17c0 4.142-3.358 7.5-7.5 7.5h-17c-4.142 0-7.5-3.358-7.5-7.5v-17c0-4.142 3.358-7.5 7.5-7.5z"></path>
<path fill="#00d8ff" d="M16 18.369c1.288 0 2.332-1.044 2.332-2.332s-1.044-2.332-2.332-2.332c-1.288 0-2.332 1.044-2.332 2.332s1.044 2.332 2.332 2.332z"></path>
<path fill="none" stroke="#00d8ff" stroke-linejoin="miter" stroke-linecap="butt" stroke-miterlimit="4" stroke-width="1.1139" d="M16 11.295c3.131 0 6.040 0.449 8.233 1.204 2.642 0.91 4.267 2.289 4.267 3.537 0 1.301-1.722 2.766-4.559 3.706-2.145 0.711-4.968 1.082-7.94 1.082-3.047 0-5.933-0.348-8.102-1.090-2.745-0.938-4.398-2.422-4.398-3.698 0-1.239 1.551-2.607 4.156-3.515 2.201-0.767 5.182-1.226 8.343-1.226h0.001z"></path>
<path fill="none" stroke="#00d8ff" stroke-linejoin="miter" stroke-linecap="butt" stroke-miterlimit="4" stroke-width="1.1139" d="M11.873 13.68c1.564-2.712 3.406-5.007 5.156-6.53 2.108-1.835 4.114-2.553 5.196-1.929 1.127 0.65 1.536 2.873 0.933 5.801-0.456 2.213-1.545 4.844-3.030 7.419-1.522 2.64-3.265 4.965-4.991 6.474-2.184 1.909-4.295 2.6-5.401 1.962-1.073-0.618-1.483-2.646-0.968-5.357 0.435-2.29 1.526-5.102 3.105-7.84h0.001z"></path>
<path fill="none" stroke="#00d8ff" stroke-linejoin="miter" stroke-linecap="butt" stroke-miterlimit="4" stroke-width="1.1139" d="M11.877 18.447c-1.569-2.709-2.637-5.452-3.082-7.728-0.537-2.743-0.157-4.84 0.923-5.465 1.126-0.652 3.257 0.104 5.492 2.089 1.69 1.501 3.425 3.758 4.915 6.33 1.527 2.637 2.671 5.309 3.116 7.558 0.563 2.846 0.107 5.020-0.997 5.659-1.072 0.62-3.033-0.036-5.125-1.836-1.767-1.52-3.658-3.87-5.242-6.606z"></path>
</svg>
