<!-- Generated by IcoMoon.io -->
<svg version="1.1" xmlns="http://www.w3.org/2000/svg" width="32" height="32" viewBox="0 0 32 32">
<title>Sass</title>
<path fill="#cd6799" d="M7.5 0h17c4.142 0 7.5 3.358 7.5 7.5v17c0 4.142-3.358 7.5-7.5 7.5h-17c-4.142 0-7.5-3.358-7.5-7.5v-17c0-4.142 3.358-7.5 7.5-7.5z"></path>
<path fill="#fff" d="M25.013 17.395c-0.872 0.005-1.629 0.215-2.264 0.525-0.233-0.461-0.465-0.872-0.507-1.173-0.046-0.351-0.1-0.566-0.046-0.986s0.301-1.018 0.297-1.063c-0.005-0.046-0.055-0.26-0.557-0.265s-0.936 0.096-0.986 0.228c-0.050 0.132-0.146 0.434-0.21 0.744-0.087 0.456-1.004 2.086-1.529 2.939-0.169-0.333-0.315-0.625-0.347-0.858-0.046-0.351-0.1-0.566-0.046-0.986s0.301-1.018 0.297-1.063c-0.005-0.046-0.055-0.26-0.557-0.265s-0.936 0.096-0.986 0.228c-0.050 0.132-0.105 0.443-0.21 0.744s-1.323 3.021-1.643 3.724c-0.164 0.36-0.306 0.648-0.406 0.844 0 0-0.005 0.014-0.018 0.037-0.087 0.169-0.137 0.26-0.137 0.26s0 0 0 0.005c-0.068 0.123-0.142 0.237-0.178 0.237-0.027 0-0.078-0.328 0.009-0.776 0.183-0.945 0.616-2.414 0.612-2.464 0-0.027 0.082-0.283-0.283-0.415-0.356-0.132-0.484 0.087-0.516 0.087s-0.055 0.078-0.055 0.078 0.397-1.652-0.758-1.652c-0.721 0-1.716 0.79-2.209 1.502-0.31 0.169-0.972 0.529-1.679 0.917-0.269 0.151-0.548 0.301-0.808 0.443-0.018-0.018-0.037-0.041-0.055-0.059-1.396-1.492-3.98-2.546-3.87-4.55 0.041-0.73 0.292-2.647 4.961-4.974 3.843-1.894 6.9-1.369 7.43-0.205 0.758 1.661-1.638 4.746-5.609 5.193-1.515 0.169-2.309-0.415-2.51-0.634-0.21-0.228-0.242-0.242-0.319-0.196-0.128 0.068-0.046 0.274 0 0.392 0.119 0.31 0.607 0.858 1.433 1.127 0.73 0.237 2.505 0.37 4.655-0.461 2.405-0.931 4.285-3.519 3.733-5.686-0.552-2.2-4.203-2.925-7.658-1.698-2.054 0.73-4.281 1.88-5.883 3.377-1.903 1.78-2.204 3.327-2.081 3.975 0.443 2.3 3.614 3.797 4.883 4.906-0.064 0.037-0.123 0.069-0.173 0.096-0.634 0.315-3.053 1.579-3.656 2.916-0.685 1.515 0.11 2.601 0.634 2.747 1.629 0.452 3.304-0.36 4.203-1.702s0.79-3.085 0.374-3.884c-0.005-0.009-0.009-0.018-0.018-0.027 0.164-0.096 0.333-0.196 0.497-0.292 0.324-0.192 0.643-0.37 0.917-0.516-0.155 0.424-0.269 0.931-0.324 1.661-0.068 0.858 0.283 1.971 0.744 2.41 0.205 0.192 0.447 0.196 0.602 0.196 0.539 0 0.78-0.447 1.050-0.977 0.329-0.648 0.625-1.401 0.625-1.401s-0.37 2.035 0.634 2.035c0.365 0 0.735-0.475 0.899-0.716 0 0.005 0 0.005 0 0.005s0.009-0.014 0.027-0.046c0.037-0.059 0.059-0.096 0.059-0.096s0-0.005 0-0.009c0.146-0.256 0.475-0.835 0.963-1.798 0.63-1.241 1.237-2.793 1.237-2.793s0.055 0.379 0.242 1.009c0.11 0.37 0.338 0.776 0.52 1.168-0.146 0.205-0.237 0.319-0.237 0.319s0 0 0.005 0.005c-0.119 0.155-0.246 0.324-0.388 0.488-0.497 0.593-1.091 1.273-1.173 1.47-0.096 0.233-0.073 0.401 0.11 0.538 0.132 0.1 0.37 0.114 0.611 0.1 0.447-0.032 0.762-0.142 0.917-0.21 0.242-0.087 0.525-0.219 0.79-0.415 0.488-0.36 0.785-0.876 0.758-1.556-0.014-0.374-0.137-0.748-0.288-1.1 0.046-0.064 0.087-0.128 0.132-0.192 0.771-1.127 1.369-2.364 1.369-2.364s0.055 0.379 0.242 1.009c0.091 0.319 0.278 0.666 0.443 1.004-0.726 0.589-1.173 1.273-1.333 1.721-0.288 0.831-0.064 1.205 0.36 1.291 0.192 0.041 0.465-0.050 0.666-0.137 0.256-0.082 0.557-0.224 0.844-0.434 0.488-0.36 0.958-0.863 0.931-1.543-0.014-0.31-0.096-0.616-0.21-0.913 0.616-0.256 1.41-0.397 2.423-0.278 2.172 0.256 2.601 1.611 2.519 2.181s-0.538 0.881-0.689 0.977c-0.151 0.096-0.201 0.128-0.187 0.196 0.018 0.1 0.091 0.096 0.219 0.078 0.178-0.032 1.141-0.461 1.182-1.511 0.069-1.342-1.209-2.807-3.468-2.793zM8.255 23.045c-0.721 0.785-1.725 1.082-2.159 0.831-0.465-0.269-0.283-1.428 0.602-2.259 0.539-0.506 1.232-0.977 1.693-1.264 0.105-0.064 0.26-0.155 0.447-0.269 0.032-0.018 0.050-0.027 0.050-0.027 0.037-0.023 0.073-0.046 0.11-0.069 0.324 1.187 0.014 2.232-0.744 3.058zM13.504 19.476c-0.251 0.612-0.776 2.177-1.095 2.090-0.274-0.073-0.443-1.26-0.055-2.433 0.196-0.589 0.612-1.291 0.853-1.565 0.393-0.438 0.826-0.584 0.931-0.406 0.132 0.233-0.479 1.93-0.634 2.314zM17.835 21.548c-0.105 0.055-0.205 0.091-0.251 0.064-0.032-0.018 0.046-0.091 0.046-0.091s0.543-0.584 0.758-0.849c0.123-0.155 0.269-0.338 0.424-0.543 0 0.018 0 0.041 0 0.059 0 0.698-0.675 1.168-0.977 1.36zM21.175 20.786c-0.078-0.055-0.064-0.237 0.196-0.808 0.1-0.224 0.338-0.598 0.744-0.958 0.046 0.146 0.078 0.288 0.073 0.42-0.005 0.881-0.634 1.209-1.013 1.346z"></path>
</svg>
