<!-- Generated by IcoMoon.io -->
<svg version="1.1" xmlns="http://www.w3.org/2000/svg" width="32" height="32" viewBox="0 0 32 32">
<title>Supabase-Light</title>
<path fill="#f4f2ed" d="M7.5 0h17c4.142 0 7.5 3.358 7.5 7.5v17c0 4.142-3.358 7.5-7.5 7.5h-17c-4.142 0-7.5-3.358-7.5-7.5v-17c0-4.142 3.358-7.5 7.5-7.5z"></path>
<path fill="#000" d="M18.095 27.899c-0.633 0.797-1.915 0.36-1.931-0.657l-0.223-14.879h10.004c1.812 0 2.823 2.093 1.696 3.512l-9.547 12.024z"></path>
<path fill="#000" opacity="0.2" d="M18.095 27.899c-0.633 0.797-1.915 0.36-1.931-0.657l-0.223-14.879h10.004c1.812 0 2.823 2.093 1.696 3.512l-9.547 12.024z"></path>
<path fill="#3ecf8e" d="M14.026 3.958c0.633-0.797 1.915-0.36 1.931 0.657l0.098 14.879h-9.879c-1.812 0-2.823-2.093-1.696-3.512l9.547-12.024z"></path>
</svg>
