<!-- Generated by IcoMoon.io -->
<svg version="1.1" xmlns="http://www.w3.org/2000/svg" width="32" height="32" viewBox="0 0 32 32">
<title>Swift</title>
<path fill="#f05138" d="M7.5 0h17c4.142 0 7.5 3.358 7.5 7.5v17c0 4.142-3.358 7.5-7.5 7.5h-17c-4.142 0-7.5-3.358-7.5-7.5v-17c0-4.142 3.358-7.5 7.5-7.5z"></path>
<path fill="#fff" d="M25.335 19.755c0.030-0.121 0.060-0.241 0.090-0.362 1.327-5.278-1.9-11.551-7.389-14.839 2.413 3.257 3.468 7.208 2.533 10.647-0.090 0.302-0.181 0.603-0.302 0.905-0.121-0.090-0.271-0.181-0.483-0.271 0 0-5.459-3.378-11.37-9.319-0.151-0.151 3.167 4.735 6.907 8.686-1.779-0.995-6.696-4.584-9.832-7.419 0.392 0.633 0.845 1.267 1.327 1.84 2.594 3.318 6.002 7.389 10.074 10.526-2.865 1.749-6.907 1.9-10.918 0-0.995-0.452-1.93-1.025-2.805-1.659 1.689 2.714 4.313 5.067 7.51 6.454 3.8 1.629 7.6 1.538 10.405 0.030 0 0 0.030 0 0.030-0.030 0.121-0.060 0.241-0.151 0.362-0.211 1.357-0.694 4.011-1.387 5.459 1.387 0.422 0.633 1.176-2.986-1.599-6.364z"></path>
</svg>
