<!-- Generated by IcoMoon.io -->
<svg version="1.1" xmlns="http://www.w3.org/2000/svg" width="32" height="32" viewBox="0 0 32 32">
<title>TypeScript</title>
<path fill="#007acc" d="M7.5 0h17c4.142 0 7.5 3.358 7.5 7.5v17c0 4.142-3.358 7.5-7.5 7.5h-17c-4.142 0-7.5-3.358-7.5-7.5v-17c0-4.142 3.358-7.5 7.5-7.5z"></path>
<path fill="#fff" d="M7.076 16.106l-0.010 1.311h4.165v11.835h2.946v-11.835h4.165v-1.285c0-0.711-0.015-1.305-0.035-1.321-0.015-0.020-2.55-0.030-5.623-0.025l-5.592 0.015-0.015 1.305z"></path>
<path fill="#fff" d="M25.821 14.764c0.813 0.203 1.432 0.564 2.001 1.153 0.295 0.315 0.731 0.889 0.767 1.026 0.010 0.041-1.382 0.975-2.225 1.498-0.030 0.020-0.152-0.112-0.29-0.315-0.411-0.599-0.843-0.858-1.503-0.904-0.97-0.066-1.595 0.442-1.59 1.29 0 0.249 0.035 0.396 0.137 0.599 0.213 0.442 0.61 0.706 1.854 1.244 2.291 0.986 3.271 1.636 3.881 2.56 0.681 1.031 0.833 2.677 0.371 3.901-0.508 1.331-1.768 2.235-3.54 2.535-0.549 0.096-1.849 0.081-2.438-0.025-1.285-0.229-2.504-0.863-3.256-1.697-0.295-0.325-0.869-1.173-0.833-1.234 0.015-0.020 0.147-0.102 0.294-0.188 0.142-0.081 0.681-0.391 1.189-0.686l0.919-0.533 0.193 0.285c0.269 0.411 0.858 0.975 1.214 1.163 1.021 0.538 2.423 0.462 3.114-0.157 0.295-0.269 0.416-0.549 0.416-0.96 0-0.371-0.046-0.533-0.239-0.813-0.249-0.355-0.757-0.655-2.199-1.28-1.651-0.711-2.362-1.153-3.012-1.854-0.376-0.406-0.732-1.056-0.879-1.6-0.122-0.452-0.152-1.585-0.056-2.042 0.34-1.595 1.544-2.707 3.281-3.037 0.564-0.107 1.874-0.066 2.428 0.071z"></path>
</svg>
