<!-- Generated by IcoMoon.io -->
<svg version="1.1" xmlns="http://www.w3.org/2000/svg" width="32" height="32" viewBox="0 0 32 32">
<title>Vite-Light</title>
<path fill="#f4f2ed" d="M7.5 0h17c4.142 0 7.5 3.358 7.5 7.5v17c0 4.142-3.358 7.5-7.5 7.5h-17c-4.142 0-7.5-3.358-7.5-7.5v-17c0-4.142 3.358-7.5 7.5-7.5z"></path>
<path fill="#000" d="M28.386 7.2l-11.729 20.973c-0.242 0.433-0.864 0.436-1.11 0.005l-11.962-20.976c-0.268-0.47 0.134-1.038 0.666-0.943l11.742 2.099c0.075 0.013 0.152 0.013 0.227-0l11.496-2.095c0.53-0.097 0.934 0.468 0.671 0.938z"></path>
<path fill="#000" d="M21.586 3.506l-8.68 1.701c-0.143 0.028-0.248 0.149-0.257 0.294l-0.534 9.018c-0.013 0.212 0.182 0.377 0.39 0.329l2.417-0.558c0.226-0.052 0.43 0.147 0.384 0.374l-0.718 3.516c-0.048 0.237 0.174 0.439 0.405 0.369l1.493-0.454c0.231-0.070 0.454 0.133 0.405 0.369l-1.141 5.522c-0.071 0.346 0.388 0.534 0.58 0.238l0.128-0.198 7.073-14.115c0.119-0.236-0.086-0.506-0.345-0.456l-2.487 0.48c-0.234 0.045-0.433-0.173-0.367-0.401l1.624-5.628c0.066-0.229-0.134-0.447-0.368-0.401z"></path>
</svg>
