<!-- Generated by IcoMoon.io -->
<svg version="1.1" xmlns="http://www.w3.org/2000/svg" width="32" height="32" viewBox="0 0 32 32">
<title>VSCode</title>
<path fill="#f4f2ed" d="M7.5 0h17c4.142 0 7.5 3.358 7.5 7.5v17c0 4.142-3.358 7.5-7.5 7.5h-17c-4.142 0-7.5-3.358-7.5-7.5v-17c0-4.142 3.358-7.5 7.5-7.5z"></path>
<path fill="#2489ca" d="M4.214 12.526c0 0-0.592-0.427 0.118-0.996l1.655-1.479c0 0 0.473-0.498 0.974-0.064l15.269 11.56v5.543c0 0-0.007 0.87-1.125 0.774l-16.891-15.338z"></path>
<path fill="#1070b3" d="M8.15 16.099l-3.936 3.578c0 0-0.404 0.301 0 0.838l1.827 1.662c0 0 0.434 0.466 1.075-0.064l4.172-3.164-3.139-2.851z"></path>
<path fill="#0877b9" d="M15.059 16.129l7.218-5.511-0.047-5.514c0 0-0.308-1.203-1.337-0.577l-9.604 8.741 3.77 2.861z"></path>
<path fill="#3c99d4" d="M21.105 27.871c0.419 0.429 0.927 0.288 0.927 0.288l5.625-2.772c0.72-0.491 0.619-1.1 0.619-1.1v-16.551c0-0.727-0.745-0.979-0.745-0.979l-4.875-2.35c-1.065-0.658-1.763 0.118-1.763 0.118s0.898-0.646 1.337 0.577v21.884c0 0.151-0.032 0.298-0.096 0.432-0.128 0.259-0.407 0.5-1.075 0.399l0.047 0.052z"></path>
</svg>
