<!-- Generated by IcoMoon.io -->
<svg version="1.1" xmlns="http://www.w3.org/2000/svg" width="32" height="32" viewBox="0 0 32 32">
<title>VueJS</title>
<path fill="#f4f2ee" d="M7.5 0h17c4.142 0 7.5 3.358 7.5 7.5v17c0 4.142-3.358 7.5-7.5 7.5h-17c-4.142 0-7.5-3.358-7.5-7.5v-17c0-4.142 3.358-7.5 7.5-7.5z"></path>
<path fill="#41b883" d="M22.75 6.25h4.5l-11.25 19.406-11.25-19.406h8.606l2.644 4.5 2.587-4.5h4.163z"></path>
<path fill="#41b883" d="M4.75 6.25l11.25 19.406 11.25-19.406h-4.5l-6.75 11.644-6.806-11.644h-4.444z"></path>
<path fill="#35495e" d="M9.194 6.25l6.806 11.7 6.75-11.7h-4.163l-2.588 4.5-2.644-4.5h-4.162z"></path>
</svg>
