<!-- Generated by IcoMoon.io -->
<svg version="1.1" xmlns="http://www.w3.org/2000/svg" width="32" height="32" viewBox="0 0 32 32">
<title>Wordpress</title>
<path fill="#0073aa" d="M7.5 0h17c4.142 0 7.5 3.358 7.5 7.5v17c0 4.142-3.358 7.5-7.5 7.5h-17c-4.142 0-7.5-3.358-7.5-7.5v-17c0-4.142 3.358-7.5 7.5-7.5z"></path>
<path fill="#fff" d="M5.277 15.999c0 4.244 2.467 7.912 6.043 9.651l-5.115-14.014c-0.595 1.334-0.928 2.809-0.928 4.364z"></path>
<path fill="#fff" d="M23.238 15.458c0-1.325-0.476-2.243-0.884-2.957-0.544-0.883-1.053-1.631-1.053-2.515 0-0.986 0.748-1.903 1.801-1.903 0.048 0 0.093 0.006 0.139 0.009-1.908-1.748-4.449-2.815-7.241-2.815-3.746 0-7.042 1.922-8.959 4.833 0.252 0.008 0.489 0.013 0.69 0.013 1.122 0 2.858-0.136 2.858-0.136 0.578-0.034 0.646 0.815 0.069 0.883 0 0-0.581 0.068-1.227 0.102l3.905 11.615 2.347-7.038-1.671-4.577c-0.577-0.034-1.124-0.102-1.124-0.102-0.578-0.034-0.51-0.917 0.068-0.883 0 0 1.771 0.136 2.824 0.136 1.122 0 2.858-0.136 2.858-0.136 0.579-0.034 0.646 0.815 0.069 0.883 0 0-0.582 0.068-1.227 0.102l3.875 11.527 1.070-3.574c0.464-1.483 0.816-2.549 0.816-3.466z"></path>
<path fill="#fff" d="M16.188 16.937l-3.217 9.349c0.96 0.282 1.976 0.437 3.029 0.437 1.249 0 2.446-0.216 3.561-0.608-0.029-0.046-0.055-0.095-0.076-0.148l-3.296-9.030z"></path>
<path fill="#fff" d="M25.409 10.855c0.046 0.342 0.072 0.708 0.072 1.103 0 1.088-0.203 2.311-0.815 3.841l-3.275 9.47c3.188-1.859 5.332-5.313 5.332-9.268 0-1.864-0.476-3.617-1.314-5.145z"></path>
<path fill="#fff" d="M16 3.5c-6.892 0-12.5 5.607-12.5 12.499s5.608 12.5 12.5 12.5c6.892 0 12.5-5.607 12.5-12.5s-5.608-12.499-12.5-12.499zM16 27.926c-6.576 0-11.927-5.351-11.927-11.927s5.35-11.926 11.927-11.926c6.576 0 11.926 5.35 11.926 11.926s-5.35 11.927-11.926 11.927z"></path>
</svg>
